<svg width="35" height="35" viewBox="0 0 35 35" fill="none" xmlns="http://www.w3.org/2000/svg">
<path d="M35.0005 17.0195C35.0005 7.61999 27.3807 0.000202179 17.9812 0.000202179C8.5817 0.000202179 0.961914 7.61999 0.961914 17.0195C0.961914 25.5143 7.18562 32.5552 15.3219 33.832V21.9391H11.0006V17.0195H15.3219V13.2699C15.3219 9.00447 17.8628 6.64836 21.7504 6.64836C23.6124 6.64836 25.5601 6.98077 25.5601 6.98077V11.1691H23.414C21.2998 11.1691 20.6405 12.481 20.6405 13.8269V17.0195H25.3607L24.6061 21.9391H20.6405V33.832C28.7768 32.5552 35.0005 25.5143 35.0005 17.0195Z" fill="#C1ACBD"/>
<path d="M24.6062 21.9394L25.3608 17.0198H20.6406V13.8272C20.6406 12.4813 21.2999 11.1694 23.4141 11.1694H25.5602V6.98105C25.5602 6.98105 23.6125 6.64864 21.7505 6.64864C17.8629 6.64864 15.322 9.00475 15.322 13.2702V17.0198H11.0007V21.9394H15.322V33.8323C16.1885 33.9683 17.0766 34.0391 17.9813 34.0391C18.886 34.0391 19.7741 33.9683 20.6406 33.8323V21.9394H24.6062Z" fill="#FDF6EC"/>
</svg>
