<svg width="30" height="30" viewBox="0 0 30 30" fill="none" xmlns="http://www.w3.org/2000/svg">
<path d="M30 14.9999C30 6.71557 23.2843 -0.000148773 15 -0.000148773C6.71572 -0.000148773 0 6.71557 0 14.9999C0 22.4868 5.48528 28.6923 12.6562 29.8176V19.3358H8.84766V14.9999H12.6562V11.6952C12.6562 7.93579 14.8956 5.85923 18.322 5.85923C19.9631 5.85923 21.6797 6.15219 21.6797 6.15219V9.8436H19.7882C17.9249 9.8436 17.3438 10.9999 17.3438 12.1861V14.9999H21.5039L20.8389 19.3358H17.3438V29.8176C24.5147 28.6923 30 22.4868 30 14.9999Z" fill="#C1ACBD"/>
<path d="M20.8389 19.3359L21.5039 15H17.3438V12.1862C17.3438 11 17.9249 9.84375 19.7882 9.84375H21.6797V6.15234C21.6797 6.15234 19.9631 5.85938 18.322 5.85938C14.8956 5.85938 12.6563 7.93594 12.6563 11.6953V15H8.84766V19.3359H12.6563V29.8178C13.4199 29.9376 14.2027 30 15 30C15.7973 30 16.5801 29.9376 17.3438 29.8178V19.3359H20.8389Z" fill="#47426A"/>
</svg>
