<svg width="106" height="40" viewBox="0 0 106 40" fill="none" xmlns="http://www.w3.org/2000/svg">
<path d="M3.07926 37.3275C2.8366 37.3275 2.59393 37.299 2.35126 37.2419C2.11573 37.1848 1.89448 37.092 1.6875 36.9635C1.43056 36.8065 1.22714 36.5924 1.07726 36.3212C0.92738 36.0571 0.852439 35.7787 0.852439 35.4861C0.852439 35.4362 0.863145 35.4076 0.884556 35.4005C0.905968 35.4147 0.923811 35.4469 0.938086 35.4968C0.95236 35.5396 0.973772 35.5611 1.00232 35.5611C1.03801 35.5611 1.06656 35.5361 1.08797 35.4861C1.10938 35.429 1.12365 35.3933 1.13079 35.3791C1.16648 35.3005 1.19503 35.2399 1.21644 35.1971C1.23785 35.1542 1.28781 35.1078 1.36632 35.0579C1.39487 35.0436 1.44126 35.0222 1.5055 34.9936C1.57687 34.9651 1.64467 34.9401 1.70891 34.9187C1.78028 34.8902 1.82667 34.8759 1.84809 34.8759C1.85522 34.8759 1.85879 34.8795 1.85879 34.8866C1.85879 34.9009 1.81597 34.9258 1.73032 34.9615C1.65181 34.9972 1.56973 35.0543 1.48409 35.1328C1.40558 35.2042 1.36632 35.3077 1.36632 35.4433C1.36632 35.4647 1.37346 35.504 1.38773 35.5611C1.5162 36.0607 1.76601 36.4211 2.13714 36.6424C2.50828 36.8707 2.93652 36.9849 3.42185 36.9849C3.86436 36.9849 4.3033 36.91 4.73867 36.7601C5.17405 36.6102 5.58801 36.4104 5.98056 36.1606C6.37311 35.9179 6.72283 35.6467 7.02973 35.3469C7.32236 35.0686 7.60785 34.7867 7.8862 34.5012C8.17169 34.2085 8.44648 33.9124 8.71056 33.6126L6.7942 33.5162C6.75138 33.5162 6.70856 33.5162 6.66573 33.5162C6.62291 33.5091 6.58009 33.5055 6.53726 33.5055C6.37311 33.5055 6.1804 33.5269 5.95914 33.5698C5.73789 33.6055 5.57373 33.6947 5.46667 33.8374C5.41671 33.9088 5.37746 33.9909 5.34891 34.0836C5.32036 34.1764 5.29181 34.2656 5.26326 34.3513C5.22044 34.337 5.18118 34.312 5.1455 34.2764C5.10981 34.2335 5.09197 34.1871 5.09197 34.1372C5.09197 34.0587 5.13122 33.9802 5.20973 33.9016C5.29538 33.8231 5.38816 33.7553 5.48809 33.6982C5.58801 33.634 5.67009 33.584 5.73432 33.5484C5.96271 33.427 6.19824 33.3271 6.44091 33.2486C6.68358 33.1701 6.93695 33.1308 7.20103 33.1308C7.51507 33.1308 7.82554 33.1415 8.13244 33.1629C8.44648 33.1772 8.75695 33.1915 9.06385 33.2058C9.54918 32.6348 10.0131 32.0531 10.4556 31.4607C10.9053 30.8683 11.3906 30.3045 11.9116 29.7692C11.5191 29.605 11.0873 29.4551 10.6162 29.3195C10.1523 29.1768 9.67766 29.0662 9.19232 28.9876C8.71413 28.902 8.26091 28.8592 7.83267 28.8592C7.57573 28.8592 7.29738 28.8842 6.99762 28.9341C6.70499 28.9769 6.4302 29.0626 6.17326 29.1911C5.91632 29.3124 5.70934 29.4908 5.55232 29.7264C5.42385 29.9048 5.35962 30.1118 5.35962 30.3473C5.35962 30.6471 5.44883 30.9004 5.62726 31.1074C5.80569 31.3073 6.02695 31.4571 6.29103 31.5571C6.55511 31.657 6.81918 31.7069 7.08326 31.7069C7.19032 31.7069 7.29024 31.6855 7.38303 31.6427C7.47581 31.5927 7.55789 31.5321 7.62926 31.4607C7.65067 31.4678 7.66138 31.4821 7.66138 31.5035C7.66138 31.5107 7.65781 31.5214 7.65067 31.5356C7.65067 31.5428 7.65067 31.5535 7.65067 31.5678C7.55789 31.7034 7.43299 31.7962 7.27597 31.8461C7.11895 31.8889 6.96193 31.9104 6.80491 31.9104C6.50515 31.9104 6.21252 31.8533 5.92703 31.7391C5.64867 31.6249 5.41671 31.4536 5.23115 31.2252C5.05271 30.9968 4.9635 30.7149 4.9635 30.3794C4.9635 30.2367 4.98134 30.1011 5.01703 29.9726C5.05985 29.837 5.11695 29.7085 5.18832 29.5872C5.35962 29.3017 5.58801 29.0804 5.8735 28.9234C6.15899 28.7664 6.46589 28.6558 6.7942 28.5915C7.12252 28.5202 7.44013 28.4845 7.74703 28.4845C8.22522 28.4845 8.71769 28.538 9.22444 28.6451C9.73118 28.7521 10.2308 28.8913 10.7233 29.0626C11.2229 29.2267 11.6904 29.398 12.1257 29.5765C12.1971 29.5194 12.2863 29.4587 12.3934 29.3945C12.5004 29.3231 12.6004 29.2874 12.6931 29.2874C12.7931 29.2874 12.8716 29.3195 12.9287 29.3838C12.9858 29.4409 13.0143 29.5194 13.0143 29.6193C13.0143 29.6478 13.0108 29.68 13.0036 29.7156C12.9965 29.7442 12.9893 29.7763 12.9822 29.812C12.9608 29.9333 12.9322 30.0118 12.8966 30.0475C12.8609 30.0832 12.8216 30.1118 12.7788 30.1332C12.7431 30.1475 12.6967 30.201 12.6396 30.2938C12.5326 30.4722 12.4077 30.7363 12.2649 31.086C12.1293 31.4286 11.9901 31.814 11.8474 32.2422C11.7046 32.6633 11.5726 33.0916 11.4513 33.5269C11.3299 33.9552 11.23 34.3513 11.1515 34.7153C11.0801 35.0793 11.0444 35.3719 11.0444 35.5932C11.0444 35.686 11.0516 35.7859 11.0659 35.8929C11.0873 36 11.1265 36.0892 11.1836 36.1606C11.2479 36.2391 11.3406 36.2784 11.462 36.2784C11.5619 36.2784 11.6475 36.2498 11.7189 36.1927C11.7903 36.1427 11.8581 36.0821 11.9223 36.0107C11.9437 35.9964 11.9544 36.0071 11.9544 36.0428V36.0642C11.9544 36.1713 11.8902 36.2641 11.7617 36.3426C11.6404 36.4282 11.5012 36.4925 11.3442 36.5353C11.1943 36.5781 11.073 36.5995 10.9802 36.5995C10.7375 36.5995 10.5877 36.521 10.5306 36.364C10.4735 36.2141 10.4449 36.0357 10.4449 35.8287C10.4449 35.5646 10.4735 35.2756 10.5306 34.9615C10.5877 34.6475 10.659 34.337 10.7447 34.0301C10.8375 33.7161 10.9267 33.4306 11.0123 33.1736L10.5627 33.6019C10.4199 33.6162 10.2772 33.6269 10.1344 33.634C9.99169 33.634 9.84895 33.634 9.7062 33.634C9.59201 33.634 9.47781 33.634 9.36362 33.634C9.25656 33.634 9.14593 33.6304 9.03173 33.6233C8.67487 34.023 8.31087 34.4227 7.93973 34.8224C7.5686 35.222 7.16177 35.5753 6.71926 35.8822C6.38381 36.1178 6.01267 36.3462 5.60585 36.5674C5.20616 36.7887 4.7922 36.9707 4.36397 37.1134C3.93573 37.2562 3.5075 37.3275 3.07926 37.3275ZM10.2308 33.2593C10.3664 33.2593 10.4984 33.2557 10.6269 33.2486C10.7554 33.2343 10.8839 33.2093 11.0123 33.1736C11.2122 32.5884 11.4334 32.0138 11.6761 31.45C11.9259 30.8862 12.1436 30.3116 12.3291 29.7264L9.37432 33.2272C9.51707 33.2343 9.65981 33.2415 9.80256 33.2486C9.9453 33.2557 10.088 33.2593 10.2308 33.2593ZM10.9971 38.9762C10.9543 38.9762 10.8722 38.9584 10.7509 38.9227C10.6295 38.887 10.5189 38.8406 10.419 38.7835C10.3119 38.7264 10.2584 38.6693 10.2584 38.6122C10.2584 38.598 10.2727 38.5908 10.3012 38.5908C10.344 38.6051 10.3762 38.6122 10.3976 38.6122C10.4047 38.6122 10.4226 38.6051 10.4511 38.5908C10.4226 38.548 10.4083 38.5052 10.4083 38.4624C10.4083 38.4267 10.419 38.4053 10.4404 38.3981C10.4261 38.3553 10.4083 38.3125 10.3869 38.2696C10.3655 38.234 10.344 38.1947 10.3226 38.1519C10.3084 38.1233 10.2762 38.0769 10.2263 38.0127C10.1763 37.9556 10.1513 37.9128 10.1513 37.8842C10.1513 37.8628 10.1585 37.8307 10.1727 37.7879C10.3226 37.9949 10.4511 38.159 10.5582 38.2804C10.6652 38.4017 10.7937 38.4873 10.9436 38.5373C11.0935 38.5944 11.304 38.6229 11.5752 38.6229C11.8893 38.6229 12.1819 38.5087 12.4531 38.2804C12.7315 38.052 12.9813 37.7558 13.2025 37.3918C13.4309 37.0349 13.6307 36.6495 13.802 36.2355C13.9805 35.8216 14.1304 35.4255 14.2517 35.0472C14.3802 34.6618 14.4765 34.3442 14.5407 34.0944C14.4551 34.2085 14.3302 34.3727 14.166 34.5868C14.0019 34.8009 13.8199 35.0186 13.62 35.2399C13.4202 35.454 13.2204 35.6396 13.0205 35.7966C12.8278 35.9465 12.6565 36.0214 12.5066 36.0214C12.3924 36.0214 12.3175 35.9786 12.2818 35.8929C12.2533 35.8002 12.239 35.7074 12.239 35.6146C12.239 35.2863 12.3032 34.9294 12.4317 34.544C12.5602 34.1515 12.7279 33.7767 12.9349 33.4199C13.1418 33.063 13.3667 32.774 13.6093 32.5527C13.8806 32.3172 14.1839 32.1994 14.5193 32.1994C14.6621 32.1994 14.8013 32.2173 14.9369 32.2529C15.0796 32.2815 15.2188 32.3243 15.3544 32.3814C15.4757 32.2958 15.6078 32.2208 15.7505 32.1566C15.8933 32.0924 16.0396 32.0602 16.1895 32.0602C16.2251 32.0602 16.2537 32.0816 16.2751 32.1245V32.1566C16.268 32.178 16.2573 32.1887 16.243 32.1887C16.2287 32.1816 16.2144 32.178 16.2002 32.178C16.0646 32.178 15.9361 32.2529 15.8147 32.4028C15.7006 32.5527 15.5971 32.7383 15.5043 32.9595C15.4115 33.1736 15.333 33.3806 15.2687 33.5805C15.2045 33.7803 15.1581 33.9302 15.1296 34.0301C14.9726 34.594 14.7763 35.1685 14.5407 35.7538C14.3124 36.3319 14.0126 36.8565 13.6415 37.3275C13.5558 37.4346 13.4666 37.5381 13.3738 37.638C13.281 37.7451 13.1847 37.8485 13.0847 37.9485C12.8064 38.234 12.4924 38.4766 12.1426 38.6765C11.7929 38.8763 11.4111 38.9762 10.9971 38.9762ZM12.9777 35.5611C13.0562 35.5611 13.1526 35.5111 13.2667 35.4112C13.3881 35.3041 13.513 35.1792 13.6415 35.0365C13.7771 34.8866 13.8948 34.7438 13.9947 34.6082C14.1018 34.4726 14.1767 34.3727 14.2196 34.3085C14.3052 34.18 14.4016 34.0194 14.5086 33.8267C14.6228 33.634 14.7192 33.4342 14.7977 33.2272C14.8833 33.0202 14.9262 32.8453 14.9262 32.7026C14.9262 32.4813 14.8155 32.3707 14.5943 32.3707C14.4658 32.3707 14.3302 32.4278 14.1875 32.542C14.0447 32.6562 13.9305 32.7597 13.8449 32.8525C13.7521 32.9667 13.645 33.1308 13.5237 33.3449C13.4095 33.5591 13.3024 33.791 13.2025 34.0408C13.1026 34.2906 13.0169 34.5297 12.9456 34.7581C12.8813 34.9865 12.8492 35.1756 12.8492 35.3255C12.8492 35.3684 12.8564 35.4183 12.8706 35.4754C12.892 35.5325 12.9277 35.5611 12.9777 35.5611ZM16.0335 36.0535C15.8979 36.0535 15.8015 36.0178 15.7444 35.9465C15.6944 35.868 15.6695 35.7324 15.6695 35.5396C15.6695 35.2613 15.7052 34.9687 15.7765 34.6618C15.8479 34.3549 15.9442 34.0587 16.0656 33.7732C16.1869 33.4805 16.3225 33.2272 16.4724 33.0131C16.5866 32.856 16.7401 32.7097 16.9328 32.5741C17.1255 32.4385 17.3324 32.3279 17.5537 32.2422C17.775 32.1566 17.9819 32.1138 18.1746 32.1138C18.2389 32.1138 18.3174 32.1245 18.4102 32.1459C18.503 32.1602 18.5743 32.1887 18.6243 32.2315C18.66 32.2601 18.6814 32.2993 18.6885 32.3493C18.7028 32.3993 18.7099 32.4456 18.7099 32.4885C18.7099 32.674 18.6778 32.8917 18.6136 33.1415C18.5565 33.3842 18.478 33.634 18.3781 33.8909C18.2781 34.1479 18.1711 34.3905 18.0569 34.6189C17.9427 34.8402 17.8285 35.0258 17.7143 35.1756C17.6501 35.2613 17.5466 35.3576 17.4038 35.4647C17.2611 35.5646 17.1041 35.661 16.9328 35.7538C16.7686 35.8394 16.6044 35.9108 16.4403 35.9679C16.2761 36.025 16.1405 36.0535 16.0335 36.0535ZM16.3225 35.7538C16.658 35.6824 16.9292 35.5218 17.1362 35.272C17.3003 35.0793 17.4538 34.8259 17.5965 34.5119C17.7393 34.1978 17.8535 33.8731 17.9391 33.5376C18.0319 33.2022 18.0783 32.9096 18.0783 32.6598C18.0783 32.6384 18.0747 32.6027 18.0676 32.5527C18.0676 32.5027 18.0569 32.4742 18.0355 32.4671C17.9498 32.4242 17.8535 32.4028 17.7464 32.4028C17.675 32.4028 17.5822 32.4278 17.4681 32.4778C17.3539 32.5206 17.2682 32.5705 17.2111 32.6276C17.1754 32.6633 17.1397 32.7133 17.1041 32.7775C17.0755 32.8346 17.047 32.8846 17.0184 32.9274C16.8828 33.1415 16.7508 33.3913 16.6223 33.6768C16.501 33.9623 16.401 34.2549 16.3225 34.5547C16.244 34.8545 16.2048 35.1364 16.2048 35.4005C16.2048 35.4861 16.2119 35.5646 16.2262 35.636C16.2476 35.7002 16.2797 35.7395 16.3225 35.7538ZM18.3055 36.1392C18.2913 36.1392 18.2841 36.1356 18.2841 36.1285C18.2841 36.0999 18.2984 36.0714 18.3269 36.0428C18.3484 36.0214 18.3662 36 18.3805 35.9786C18.4447 35.8715 18.5161 35.6895 18.5946 35.4326C18.6802 35.1685 18.7623 34.8795 18.8408 34.5654C18.9265 34.2514 19.0014 33.9587 19.0657 33.6875C19.137 33.4092 19.187 33.1986 19.2155 33.0559C19.2298 32.9988 19.2441 32.9238 19.2584 32.8311C19.2798 32.7383 19.3048 32.6455 19.3333 32.5527C19.3619 32.4599 19.394 32.3993 19.4297 32.3707C19.4939 32.3136 19.5902 32.2636 19.7187 32.2208C19.8472 32.178 19.9757 32.1459 20.1041 32.1245C20.2397 32.0959 20.3504 32.0816 20.436 32.0816C20.4503 32.0816 20.4681 32.0888 20.4895 32.1031C20.5109 32.1173 20.5252 32.1316 20.5324 32.1459L20.5431 32.178C20.5359 32.1994 20.5252 32.2101 20.5109 32.2101C20.4967 32.203 20.4824 32.1994 20.4681 32.1994C20.3325 32.1994 20.2076 32.2779 20.0934 32.4349C19.9792 32.5848 19.8793 32.7704 19.7937 32.9916C19.708 33.2129 19.6331 33.427 19.5688 33.634C19.5117 33.8338 19.4725 33.9837 19.4511 34.0836C19.5224 33.9195 19.6152 33.7339 19.7294 33.5269C19.8508 33.3128 19.9899 33.1094 20.1469 32.9167C20.304 32.7169 20.4753 32.5527 20.6608 32.4242C20.8464 32.2886 21.0427 32.2208 21.2497 32.2208C21.2782 32.2208 21.3246 32.228 21.3888 32.2422C21.4602 32.2494 21.5244 32.2672 21.5815 32.2958C21.6458 32.3172 21.6779 32.3457 21.6779 32.3814L21.6672 32.3921H21.6565L21.5922 32.3707C21.6137 32.4207 21.6279 32.4706 21.6351 32.5206C21.6422 32.5705 21.6458 32.6205 21.6458 32.6705C21.6458 32.7133 21.6315 32.8061 21.603 32.9488C21.5815 33.0916 21.5494 33.2272 21.5066 33.3556C21.4709 33.477 21.4317 33.5376 21.3888 33.5376C21.3603 33.5376 21.346 33.5269 21.346 33.5055C21.346 33.4698 21.3567 33.4127 21.3781 33.3342C21.4067 33.2486 21.4209 33.1701 21.4209 33.0987C21.4209 32.9702 21.3888 32.8667 21.3246 32.7882C21.2604 32.7097 21.164 32.6705 21.0355 32.6705C20.8214 32.6705 20.6144 32.7633 20.4146 32.9488C20.2148 33.1273 20.0328 33.3521 19.8686 33.6233C19.7044 33.8874 19.5653 34.155 19.4511 34.4262C19.3369 34.6975 19.2584 34.9187 19.2155 35.09C19.187 35.1828 19.162 35.3041 19.1406 35.454C19.1192 35.5967 19.0657 35.6967 18.98 35.7538C18.9586 35.7609 18.8908 35.7966 18.7766 35.8608C18.6695 35.9251 18.566 35.9857 18.4661 36.0428C18.3591 36.1071 18.3055 36.1392 18.3055 36.1392ZM21.7001 36.0535C21.5644 36.0535 21.4681 36.0178 21.411 35.9465C21.361 35.868 21.3361 35.7324 21.3361 35.5396C21.3361 35.2613 21.3717 34.9687 21.4431 34.6618C21.5145 34.3549 21.6108 34.0587 21.7322 33.7732C21.8535 33.4805 21.9891 33.2272 22.139 33.0131C22.2532 32.856 22.4066 32.7097 22.5993 32.5741C22.7921 32.4385 22.999 32.3279 23.2203 32.2422C23.4415 32.1566 23.6485 32.1138 23.8412 32.1138C23.9055 32.1138 23.984 32.1245 24.0768 32.1459C24.1695 32.1602 24.2409 32.1887 24.2909 32.2315C24.3266 32.2601 24.348 32.2993 24.3551 32.3493C24.3694 32.3993 24.3765 32.4456 24.3765 32.4885C24.3765 32.674 24.3444 32.8917 24.2802 33.1415C24.2231 33.3842 24.1446 33.634 24.0446 33.8909C23.9447 34.1479 23.8377 34.3905 23.7235 34.6189C23.6093 34.8402 23.4951 35.0258 23.3809 35.1756C23.3166 35.2613 23.2132 35.3576 23.0704 35.4647C22.9277 35.5646 22.7706 35.661 22.5993 35.7538C22.4352 35.8394 22.271 35.9108 22.1069 35.9679C21.9427 36.025 21.8071 36.0535 21.7001 36.0535ZM21.9891 35.7538C22.3246 35.6824 22.5958 35.5218 22.8028 35.272C22.9669 35.0793 23.1204 34.8259 23.2631 34.5119C23.4059 34.1978 23.5201 33.8731 23.6057 33.5376C23.6985 33.2022 23.7449 32.9096 23.7449 32.6598C23.7449 32.6384 23.7413 32.6027 23.7342 32.5527C23.7342 32.5027 23.7235 32.4742 23.7021 32.4671C23.6164 32.4242 23.5201 32.4028 23.413 32.4028C23.3416 32.4028 23.2488 32.4278 23.1346 32.4778C23.0204 32.5206 22.9348 32.5705 22.8777 32.6276C22.842 32.6633 22.8063 32.7133 22.7706 32.7775C22.7421 32.8346 22.7135 32.8846 22.685 32.9274C22.5494 33.1415 22.4173 33.3913 22.2889 33.6768C22.1675 33.9623 22.0676 34.2549 21.9891 34.5547C21.9106 34.8545 21.8713 35.1364 21.8713 35.4005C21.8713 35.4861 21.8785 35.5646 21.8928 35.636C21.9142 35.7002 21.9463 35.7395 21.9891 35.7538ZM23.9614 36.1392C23.9543 36.1392 23.9507 36.1356 23.9507 36.1285C23.9507 36.0999 23.965 36.0714 23.9935 36.0428C24.015 36.0143 24.0292 35.9929 24.0364 35.9786C24.0863 35.9001 24.147 35.768 24.2184 35.5825C24.2826 35.3898 24.3468 35.1756 24.4111 34.9401C24.4824 34.6975 24.5467 34.4548 24.6038 34.2121C24.668 33.9623 24.7251 33.7339 24.7751 33.5269C24.825 33.32 24.8607 33.1629 24.8821 33.0559C24.8964 32.9988 24.9107 32.9238 24.925 32.8311C24.9392 32.7383 24.9606 32.6455 24.9892 32.5527C25.0177 32.4599 25.0499 32.3993 25.0855 32.3707C25.1498 32.3136 25.2461 32.2636 25.3746 32.2208C25.5031 32.178 25.6351 32.1459 25.7707 32.1245C25.9063 32.0959 26.0134 32.0816 26.0919 32.0816C26.1347 32.0816 26.1668 32.1031 26.1882 32.1459L26.199 32.178C26.1918 32.1994 26.1811 32.2101 26.1668 32.2101C26.1526 32.203 26.1383 32.1994 26.124 32.1994C25.967 32.1994 25.8278 32.2886 25.7065 32.4671C25.5923 32.6384 25.4888 32.8525 25.396 33.1094C25.3104 33.3592 25.239 33.6019 25.1819 33.8374C25.1319 34.0729 25.0927 34.2514 25.0641 34.3727C25.2925 33.9873 25.553 33.6126 25.8457 33.2486C26.1454 32.8846 26.4916 32.592 26.8841 32.3707C26.9412 32.3422 26.9983 32.3136 27.0554 32.2851C27.1197 32.2494 27.1803 32.2315 27.2374 32.2315C27.3302 32.2315 27.3873 32.2744 27.4087 32.36C27.4301 32.4385 27.4408 32.5135 27.4408 32.5848C27.4408 32.6776 27.4123 32.8096 27.3552 32.9809C27.3052 33.1451 27.2446 33.3093 27.1732 33.4734C27.109 33.6376 27.0554 33.766 27.0126 33.8588C27.2339 33.5662 27.4801 33.2914 27.7513 33.0345C28.0225 32.7704 28.3223 32.5491 28.6506 32.3707C28.7006 32.3422 28.7577 32.3136 28.8219 32.2851C28.8861 32.2494 28.9468 32.2315 29.0039 32.2315C29.0967 32.2315 29.1502 32.2744 29.1645 32.36C29.1859 32.4385 29.1966 32.5135 29.1966 32.5848C29.1966 32.6919 29.1645 32.8275 29.1002 32.9916C29.0431 33.1487 28.9753 33.3093 28.8968 33.4734C28.8255 33.6304 28.7684 33.7625 28.7255 33.8695C28.6756 33.9837 28.6256 34.1015 28.5757 34.2228C28.5328 34.3442 28.4936 34.4655 28.4579 34.5868C28.4293 34.701 28.3972 34.8295 28.3615 34.9722C28.3259 35.1078 28.308 35.2363 28.308 35.3576C28.308 35.4076 28.3151 35.4647 28.3294 35.5289C28.3508 35.5932 28.3937 35.6253 28.4579 35.6253C28.4936 35.6253 28.5221 35.6182 28.5435 35.6039C28.5721 35.5896 28.6006 35.5753 28.6292 35.5611C28.7933 35.4683 28.9504 35.3434 29.1002 35.1864C29.2573 35.0222 29.4 34.8473 29.5285 34.6618C29.657 34.4691 29.764 34.2942 29.8497 34.1372C29.8568 34.1443 29.8604 34.1586 29.8604 34.18C29.8604 34.2228 29.8354 34.2871 29.7854 34.3727C29.7355 34.4512 29.6784 34.5369 29.6141 34.6296C29.5499 34.7224 29.4892 34.8045 29.4321 34.8759C29.3822 34.9473 29.3572 34.9901 29.3572 35.0044C29.35 35.0543 29.3393 35.0971 29.3251 35.1328C29.3108 35.1614 29.2894 35.2006 29.2608 35.2506C29.1752 35.3362 29.0503 35.4433 28.8861 35.5718C28.7291 35.6931 28.565 35.8037 28.3937 35.9036C28.2224 35.9964 28.0725 36.0428 27.944 36.0428C27.837 36.0428 27.7656 36.0071 27.7299 35.9358C27.6942 35.8573 27.6764 35.7716 27.6764 35.6788C27.6764 35.4933 27.7192 35.2649 27.8048 34.9936C27.8905 34.7153 27.9868 34.4369 28.0939 34.1586C28.201 33.8802 28.2866 33.6518 28.3508 33.4734C28.3722 33.4163 28.4044 33.3235 28.4472 33.1951C28.4971 33.0666 28.5221 32.9774 28.5221 32.9274C28.5221 32.8846 28.515 32.8418 28.5007 32.7989C28.4864 32.7561 28.4508 32.7347 28.3937 32.7347C28.2795 32.7347 28.1403 32.8096 27.9761 32.9595C27.8191 33.1094 27.6585 33.2914 27.4944 33.5055C27.3302 33.7125 27.1839 33.9159 27.0554 34.1158C26.9341 34.3085 26.8484 34.4512 26.7985 34.544C26.7271 34.6867 26.6593 34.8366 26.5951 34.9936C26.5308 35.1435 26.4844 35.297 26.4559 35.454C26.3917 35.454 26.306 35.4968 26.199 35.5825C26.099 35.6681 26.0027 35.7538 25.9099 35.8394C25.8242 35.9179 25.7707 35.9572 25.7493 35.9572C25.735 35.9572 25.7315 35.95 25.7386 35.9358C25.7457 35.9144 25.7493 35.8965 25.7493 35.8822L25.76 35.8073C25.7743 35.7002 25.7957 35.5967 25.8242 35.4968C25.8599 35.3898 25.892 35.2898 25.9206 35.1971C25.9563 35.0757 25.9955 34.9544 26.0384 34.8331C26.0883 34.7046 26.1383 34.5833 26.1882 34.4691C26.2097 34.412 26.2489 34.312 26.306 34.1693C26.3702 34.0194 26.438 33.8553 26.5094 33.6768C26.5808 33.4984 26.6415 33.3414 26.6914 33.2058C26.7414 33.063 26.7664 32.9702 26.7664 32.9274C26.7664 32.8917 26.7592 32.8525 26.745 32.8096C26.7378 32.7668 26.7057 32.7454 26.6486 32.7454C26.5772 32.7454 26.4844 32.7918 26.3702 32.8846C26.2632 32.9774 26.1811 33.0523 26.124 33.1094C25.8171 33.4449 25.5495 33.8267 25.3211 34.2549C25.0998 34.676 24.9178 35.1043 24.7751 35.5396C24.7537 35.5967 24.7394 35.636 24.7322 35.6574C24.7322 35.6788 24.7037 35.7109 24.6466 35.7538C24.6252 35.7609 24.5574 35.7966 24.4432 35.8608C24.3361 35.9251 24.2326 35.9857 24.1327 36.0428C24.0257 36.1071 23.9686 36.1392 23.9614 36.1392ZM29.6418 36.0214C29.5276 36.0214 29.4527 35.9786 29.417 35.8929C29.3884 35.8002 29.3742 35.7074 29.3742 35.6146C29.3742 35.2791 29.4384 34.9187 29.5669 34.5333C29.6953 34.1479 29.8631 33.7803 30.07 33.4306C30.277 33.0737 30.5019 32.7811 30.7445 32.5527C31.0015 32.3172 31.3048 32.1994 31.6545 32.1994C31.7973 32.1994 31.9364 32.2173 32.072 32.2529C32.2148 32.2815 32.354 32.3243 32.4896 32.3814C32.6109 32.2958 32.743 32.2208 32.8857 32.1566C33.0284 32.0924 33.1748 32.0602 33.3246 32.0602C33.3603 32.0602 33.3889 32.0816 33.4103 32.1245V32.1566C33.4103 32.178 33.3996 32.1887 33.3782 32.1887C33.3639 32.1816 33.3496 32.178 33.3353 32.178C33.2211 32.178 33.0962 32.2672 32.9606 32.4456C32.825 32.6169 32.6894 32.8382 32.5538 33.1094C32.4182 33.3806 32.2933 33.6661 32.1791 33.9659C32.072 34.2656 31.9828 34.5404 31.9115 34.7902C31.8472 35.04 31.8151 35.2292 31.8151 35.3576C31.8151 35.4076 31.8222 35.4647 31.8365 35.5289C31.8579 35.5932 31.9008 35.6253 31.965 35.6253C32.0007 35.6253 32.0292 35.6182 32.0506 35.6039C32.0792 35.5896 32.1077 35.5753 32.1363 35.5611C32.2933 35.4683 32.4468 35.3434 32.5966 35.1864C32.7537 35.0222 32.8964 34.8473 33.0249 34.6618C33.1605 34.4691 33.2711 34.2942 33.3568 34.1372C33.3639 34.1443 33.3675 34.1586 33.3675 34.18C33.3675 34.2228 33.3425 34.2871 33.2925 34.3727C33.2426 34.4512 33.1855 34.5369 33.1212 34.6296C33.057 34.7224 32.9963 34.8045 32.9392 34.8759C32.8893 34.9473 32.8643 34.9901 32.8643 35.0044C32.8571 35.0543 32.8464 35.0971 32.8322 35.1328C32.8179 35.1614 32.7965 35.2006 32.7679 35.2506C32.6751 35.3434 32.5574 35.4504 32.4146 35.5718C32.2719 35.6931 32.122 35.8002 31.965 35.8929C31.8151 35.9786 31.6688 36.0214 31.526 36.0214C31.3048 36.0214 31.1942 35.9036 31.1942 35.6681C31.1942 35.5254 31.2227 35.3612 31.2798 35.1756C31.344 34.9829 31.4154 34.7938 31.4939 34.6082C31.5796 34.4155 31.6545 34.2549 31.7188 34.1265C31.7188 34.1193 31.7188 34.1086 31.7188 34.0944C31.7188 34.0801 31.7152 34.0729 31.708 34.0729C31.7009 34.0729 31.6902 34.0801 31.6759 34.0944C31.5903 34.2085 31.4654 34.3727 31.3012 34.5868C31.1371 34.8009 30.9551 35.0186 30.7552 35.2399C30.5625 35.454 30.3662 35.6396 30.1664 35.7966C29.9666 35.9465 29.7917 36.0214 29.6418 36.0214ZM30.1129 35.5611C30.1914 35.5611 30.2877 35.5111 30.4019 35.4112C30.5233 35.3041 30.6482 35.1792 30.7766 35.0365C30.9122 34.8866 31.03 34.7438 31.1299 34.6082C31.237 34.4726 31.3119 34.3727 31.3548 34.3085C31.4404 34.18 31.5368 34.0194 31.6438 33.8267C31.758 33.634 31.8544 33.4342 31.9329 33.2272C32.0185 33.0202 32.0613 32.8453 32.0613 32.7026C32.0613 32.4813 31.9507 32.3707 31.7295 32.3707C31.601 32.3707 31.4654 32.4278 31.3226 32.542C31.1799 32.6562 31.0657 32.7597 30.98 32.8525C30.8873 32.9667 30.7802 33.1308 30.6589 33.3449C30.5447 33.5591 30.4376 33.791 30.3377 34.0408C30.2378 34.2906 30.1521 34.5297 30.0808 34.7581C30.0165 34.9865 29.9844 35.1756 29.9844 35.3255C29.9844 35.3684 29.9915 35.4183 30.0058 35.4754C30.0201 35.5325 30.0558 35.5611 30.1129 35.5611ZM33.2182 36.0856C33.0826 36.0856 32.9327 36.0607 32.7685 36.0107C32.6044 35.9607 32.483 35.868 32.4045 35.7324V35.7109C32.4045 35.6753 32.4509 35.6217 32.5437 35.5504C32.6293 35.4718 32.7221 35.3969 32.822 35.3255C32.922 35.247 32.9862 35.1899 33.0148 35.1542L33.0897 35.1328L33.1111 35.1756C33.0611 35.2185 33.0362 35.2649 33.0362 35.3148C33.0362 35.4219 33.0754 35.5111 33.1539 35.5825C33.2396 35.6538 33.3359 35.7074 33.443 35.7431C33.5572 35.7787 33.6571 35.7966 33.7428 35.7966C33.8427 35.7966 33.9676 35.768 34.1175 35.7109C34.2745 35.6538 34.4137 35.5753 34.535 35.4754C34.6563 35.3755 34.717 35.2649 34.717 35.1435C34.717 34.958 34.6599 34.7974 34.5457 34.6618C34.4315 34.5262 34.2995 34.3977 34.1496 34.2764C33.9997 34.155 33.8677 34.0265 33.7535 33.8909C33.6393 33.7553 33.5822 33.5983 33.5822 33.4199C33.5822 33.2129 33.6428 33.0273 33.7642 32.8632C33.8926 32.6919 34.0532 32.5491 34.2459 32.4349C34.4458 32.3136 34.6528 32.2244 34.8669 32.1673C35.081 32.1031 35.2773 32.0709 35.4557 32.0709C35.4842 32.0709 35.5485 32.0781 35.6484 32.0924C35.7483 32.0995 35.8411 32.1173 35.9268 32.1459C36.0195 32.1673 36.0659 32.1994 36.0659 32.2422C36.0659 32.2565 36.0624 32.2636 36.0552 32.2636H36.0338L35.9482 32.2422C35.9696 32.2922 35.9803 32.3529 35.9803 32.4242C35.9803 32.4885 35.966 32.5705 35.9375 32.6705C35.9089 32.7704 35.8768 32.8489 35.8411 32.906C35.834 32.9203 35.7983 32.9667 35.734 33.0452C35.6698 33.1237 35.6056 33.1986 35.5413 33.27C35.4771 33.3414 35.4379 33.3771 35.4236 33.3771L35.4129 33.3556C35.4271 33.32 35.4735 33.2593 35.552 33.1736C35.6306 33.0809 35.6698 32.9631 35.6698 32.8204C35.6698 32.6705 35.602 32.5491 35.4664 32.4564C35.3308 32.3564 35.1916 32.3065 35.0489 32.3065C34.9133 32.3065 34.7705 32.3493 34.6206 32.4349C34.4779 32.5206 34.3566 32.6312 34.2566 32.7668C34.1639 32.9024 34.1175 33.0416 34.1175 33.1844C34.1175 33.3128 34.1781 33.4484 34.2995 33.5912C34.4279 33.7268 34.5707 33.866 34.7277 34.0087C34.8919 34.1443 35.0346 34.2799 35.1559 34.4155C35.2844 34.5511 35.3486 34.6796 35.3486 34.8009V34.8331C35.3486 35.0115 35.2701 35.1792 35.1131 35.3362C34.9561 35.4861 34.7598 35.6182 34.5243 35.7324C34.2888 35.8465 34.0497 35.9358 33.807 36C33.5715 36.0571 33.3752 36.0856 33.2182 36.0856Z" fill="#C1ACBD"/>
<path d="M40.6932 36.5032C40.3577 36.5032 40.0294 36.4818 39.7083 36.4389C39.694 36.4389 39.6868 36.4318 39.6868 36.4175C39.6868 36.3818 39.719 36.3247 39.7832 36.2462C39.8546 36.1677 39.9295 36.0928 40.008 36.0214C40.0937 35.9572 40.1543 35.9251 40.19 35.9251C40.2471 35.9251 40.3078 35.9322 40.372 35.9465C40.4434 35.9536 40.5112 35.9607 40.5754 35.9679C40.7182 35.9822 40.8645 35.9929 41.0144 36C41.1643 36.0143 41.3141 36.0214 41.464 36.0214C41.7138 36.0214 41.9708 36 42.2348 35.9572C42.5061 35.9072 42.7416 35.8037 42.9414 35.6467C43.1127 35.504 43.284 35.3291 43.4553 35.1221C43.6337 34.9151 43.723 34.6939 43.723 34.4584C43.723 34.2157 43.6337 34.0123 43.4553 33.8481C43.284 33.684 43.0663 33.5555 42.8023 33.4627C42.5382 33.3628 42.2741 33.295 42.01 33.2593C41.7459 33.2165 41.5211 33.1951 41.3355 33.1951C41.2213 33.1951 41.1107 33.2022 41.0037 33.2165C40.8966 33.2307 40.786 33.245 40.6718 33.2593H40.6504C40.6218 33.2593 40.6075 33.245 40.6075 33.2165C40.6075 33.1808 40.629 33.1308 40.6718 33.0666C40.7217 32.9952 40.7753 32.931 40.8324 32.8739C40.8966 32.8168 40.943 32.7882 40.9715 32.7882C41.2428 32.7882 41.5283 32.7561 41.828 32.6919C42.1349 32.6276 42.4347 32.5384 42.7273 32.4242C43.0199 32.31 43.2769 32.1816 43.4981 32.0388C43.6694 31.9318 43.8657 31.7926 44.087 31.6213C44.3153 31.45 44.5116 31.2609 44.6758 31.0539C44.8399 30.8398 44.922 30.6185 44.922 30.3901C44.922 30.1546 44.8328 29.9547 44.6544 29.7906C44.4831 29.6193 44.269 29.4765 44.012 29.3624C43.7551 29.2482 43.4946 29.1589 43.2305 29.0947C42.9735 29.0233 42.7559 28.9734 42.5774 28.9448C42.3348 28.9091 42.0921 28.8842 41.8494 28.8699C41.6139 28.8485 41.3712 28.8378 41.1214 28.8378C40.8288 28.8378 40.5005 28.8592 40.1365 28.902C39.7725 28.9377 39.4013 29.0019 39.0231 29.0947C38.6519 29.1804 38.2986 29.3017 37.9632 29.4587C37.6277 29.6157 37.3387 29.8156 37.096 30.0582C36.8533 30.2938 36.6892 30.5793 36.6035 30.9147C36.5821 31.0075 36.5714 31.1038 36.5714 31.2038C36.5714 31.3822 36.6071 31.5499 36.6785 31.7069C36.7499 31.8568 36.8748 31.9639 37.0532 32.0281H37.0853C37.1424 32.0281 37.1959 32.0245 37.2459 32.0174C37.303 32.0031 37.3565 31.996 37.4065 31.996C37.4136 31.996 37.4279 31.9996 37.4493 32.0067C37.4707 32.0067 37.4814 32.0138 37.4814 32.0281C37.4814 32.0781 37.4422 32.1173 37.3637 32.1459C37.2852 32.1673 37.2281 32.178 37.1924 32.178C37.071 32.178 36.9675 32.1495 36.8819 32.0924C36.7963 32.0353 36.7284 32.0067 36.6785 32.0067C36.6713 32.0067 36.6642 32.0103 36.6571 32.0174C36.6499 32.0174 36.6464 32.0174 36.6464 32.0174C36.6321 32.0317 36.6214 32.0495 36.6143 32.0709C36.6071 32.0924 36.5893 32.1031 36.5607 32.1031C36.5179 32.1031 36.4786 32.0674 36.443 31.996C36.4073 31.9175 36.3787 31.8318 36.3573 31.7391C36.3359 31.6463 36.3252 31.582 36.3252 31.5464C36.3252 31.3965 36.343 31.2395 36.3787 31.0753C36.4715 30.6685 36.6464 30.3152 36.9033 30.0154C37.1674 29.7085 37.485 29.448 37.8561 29.2339C38.2273 29.0198 38.6234 28.8485 39.0445 28.72C39.4656 28.5915 39.8867 28.4987 40.3078 28.4416C40.736 28.3774 41.1321 28.3453 41.4961 28.3453C42.0172 28.3453 42.5275 28.3988 43.0271 28.5059C43.2412 28.5487 43.4803 28.6165 43.7444 28.7093C44.0084 28.8021 44.2618 28.9198 44.5045 29.0626C44.7472 29.2053 44.947 29.3802 45.104 29.5872C45.2682 29.787 45.3503 30.019 45.3503 30.2831C45.3503 30.5614 45.261 30.8219 45.0826 31.0646C44.9042 31.3001 44.6901 31.5107 44.4403 31.6962C44.1976 31.8818 43.9692 32.0388 43.7551 32.1673C43.6837 32.2101 43.5802 32.2708 43.4446 32.3493C43.3161 32.4207 43.1734 32.4992 43.0164 32.5848C42.8593 32.6633 42.713 32.7311 42.5774 32.7882C42.449 32.8382 42.349 32.8632 42.2777 32.8632C42.4846 32.8703 42.7023 32.8989 42.9307 32.9488C43.1663 32.9988 43.3839 33.0773 43.5838 33.1844C43.7908 33.2914 43.9585 33.4342 44.087 33.6126C44.2154 33.7839 44.2797 33.998 44.2797 34.2549C44.2797 34.4905 44.2154 34.7082 44.087 34.908C43.9656 35.1007 43.8122 35.2684 43.6266 35.4112C43.1627 35.7609 42.7059 36.0285 42.2563 36.2141C41.8066 36.4068 41.2856 36.5032 40.6932 36.5032ZM36.3573 37.4239C36.2788 37.4239 36.186 37.4203 36.079 37.4132C35.9719 37.406 35.8863 37.3846 35.822 37.3489C35.7935 37.3275 35.7399 37.2918 35.6614 37.2419C35.5829 37.1991 35.5437 37.1562 35.5437 37.1134C35.5437 37.0635 35.5651 37.0385 35.6079 37.0385C35.6436 37.0456 35.6614 37.0206 35.6614 36.9635C35.6614 36.9064 35.6507 36.8493 35.6293 36.7922C35.6079 36.7351 35.5972 36.678 35.5972 36.6209C35.5972 36.5567 35.615 36.4675 35.6507 36.3533C35.6864 36.2462 35.7435 36.1927 35.822 36.1927C35.8434 36.1927 35.8541 36.2034 35.8541 36.2248C35.8541 36.2962 35.8363 36.364 35.8006 36.4282C35.7578 36.4925 35.7364 36.5567 35.7364 36.6209C35.7364 36.7209 35.7792 36.8172 35.8648 36.91C35.9433 37.0028 36.0433 37.0777 36.1646 37.1348C36.2788 37.1991 36.3823 37.2312 36.4751 37.2312C36.5108 37.2312 36.55 37.2312 36.5928 37.2312C36.6357 37.2312 36.6749 37.2276 36.7106 37.2205C37.0746 37.1705 37.4172 36.9921 37.7384 36.6852C38.0595 36.3854 38.3557 36.0036 38.627 35.5396C38.9053 35.0686 39.1587 34.5618 39.3871 34.0194C39.6226 33.4698 39.8332 32.9238 40.0187 32.3814C40.2114 31.839 40.3792 31.3358 40.5219 30.8719C40.6646 30.408 40.7824 30.0333 40.8752 29.7478C40.9109 29.6336 40.9501 29.5444 40.993 29.4801C41.0358 29.4087 41.1036 29.3374 41.1964 29.266C41.3248 29.1661 41.4747 29.0947 41.646 29.0519C41.8173 29.0019 41.9815 28.9769 42.1385 28.9769C42.1528 28.9769 42.1742 28.9805 42.2027 28.9876C42.2384 28.9948 42.2563 29.0091 42.2563 29.0305C42.2563 29.059 42.2313 29.0804 42.1813 29.0947C42.1313 29.1018 42.0992 29.1054 42.085 29.1054C41.985 29.1054 41.878 29.1875 41.7638 29.3516C41.6496 29.5158 41.5354 29.7228 41.4212 29.9726C41.307 30.2224 41.1999 30.4829 41.1 30.7541C41.0001 31.0182 40.9144 31.2573 40.8431 31.4714C40.7717 31.6855 40.7217 31.8318 40.6932 31.9104C40.6004 32.1744 40.5076 32.4385 40.4148 32.7026C40.3221 32.9595 40.2257 33.2165 40.1258 33.4734C40.0187 33.7732 39.9045 34.0729 39.7832 34.3727C39.6619 34.6653 39.5227 34.9508 39.3657 35.2292C39.1444 35.6289 38.9089 35.9929 38.6591 36.3212C38.4164 36.6566 38.1238 36.9207 37.7812 37.1134C37.4457 37.3133 37.0211 37.4167 36.5072 37.4239H36.3573ZM46.6934 36.0321C46.565 36.0321 46.4793 35.9964 46.4365 35.9251C46.3937 35.8465 46.3722 35.7502 46.3722 35.636C46.3722 35.4504 46.4008 35.2435 46.4579 35.0151C46.5221 34.7795 46.5792 34.5725 46.6292 34.3941C46.4436 34.6796 46.2295 34.9615 45.9868 35.2399C45.7442 35.5182 45.4658 35.7395 45.1518 35.9036C45.1018 35.9322 45.0447 35.9607 44.9805 35.9893C44.9162 36.0107 44.8556 36.0214 44.7985 36.0214C44.6986 36.0214 44.6308 35.9857 44.5951 35.9144C44.5665 35.843 44.5522 35.768 44.5522 35.6895V35.6467C44.5522 35.5325 44.5737 35.4183 44.6165 35.3041C44.6593 35.1828 44.6986 35.0686 44.7342 34.9615C44.7913 34.7974 44.8591 34.594 44.9377 34.3513C45.0233 34.1015 45.0982 33.8517 45.1625 33.6019C45.2339 33.3521 45.2695 33.1487 45.2695 32.9916C45.2695 32.9274 45.2588 32.8667 45.2374 32.8096C45.2231 32.7525 45.1768 32.7204 45.0982 32.7133C45.0982 32.7133 45.0911 32.7133 45.0768 32.7133C45.0697 32.7133 45.0661 32.7097 45.0661 32.7026C45.0661 32.6812 45.1018 32.6598 45.1732 32.6384C45.2517 32.6098 45.3445 32.5813 45.4515 32.5527C45.5586 32.5242 45.6585 32.5027 45.7513 32.4885C45.8441 32.4671 45.9048 32.4564 45.9333 32.4564C45.9476 32.4564 45.9726 32.4599 46.0082 32.4671C46.0511 32.4742 46.0725 32.4956 46.0725 32.5313C46.0725 32.5456 46.0689 32.5563 46.0618 32.5634C45.9904 32.7347 45.9083 32.9381 45.8155 33.1736C45.7228 33.4092 45.63 33.659 45.5372 33.9231C45.4515 34.18 45.3802 34.4334 45.3231 34.6832C45.266 34.9258 45.2374 35.1435 45.2374 35.3362C45.2374 35.3719 45.2446 35.4076 45.2588 35.4433C45.2731 35.479 45.3017 35.4968 45.3445 35.4968C45.423 35.4968 45.5193 35.4504 45.6335 35.3576C45.7549 35.2649 45.8405 35.1935 45.8905 35.1435C46.1546 34.8652 46.3937 34.5262 46.6078 34.1265C46.8219 33.7268 46.986 33.3449 47.1002 32.9809C47.1359 32.8739 47.1716 32.7989 47.2073 32.7561C47.243 32.7062 47.3072 32.6455 47.4 32.5741C47.5142 32.4956 47.6391 32.4242 47.7747 32.36C47.9175 32.2958 48.0602 32.2636 48.203 32.2636C48.2172 32.2636 48.2351 32.2744 48.2565 32.2958C48.2779 32.31 48.2886 32.3279 48.2886 32.3493C48.2886 32.3636 48.2779 32.3743 48.2565 32.3814C48.2422 32.3814 48.2279 32.3814 48.2137 32.3814C48.1209 32.3814 48.0245 32.4385 47.9246 32.5527C47.8247 32.6669 47.7283 32.8132 47.6355 32.9916C47.5428 33.1701 47.4571 33.3556 47.3786 33.5484C47.3072 33.7411 47.243 33.9195 47.1859 34.0836C47.1359 34.2407 47.1002 34.3584 47.0788 34.4369C47.0503 34.5725 47.0182 34.7082 46.9825 34.8438C46.9539 34.9794 46.9397 35.1185 46.9397 35.2613C46.9397 35.3184 46.9468 35.3933 46.9611 35.4861C46.9825 35.5718 47.036 35.6146 47.1217 35.6146C47.1716 35.6146 47.2216 35.5967 47.2715 35.5611C47.4286 35.4683 47.5784 35.3434 47.7212 35.1864C47.8639 35.0222 47.996 34.8473 48.1173 34.6618C48.2386 34.4691 48.335 34.2942 48.4064 34.1372C48.4206 34.1443 48.4278 34.1586 48.4278 34.18C48.4278 34.2371 48.3885 34.3299 48.31 34.4584C48.2386 34.5797 48.1637 34.6975 48.0852 34.8116C48.0138 34.9187 47.9746 34.9829 47.9674 35.0044C47.9603 35.0543 47.9496 35.0971 47.9353 35.1328C47.9282 35.1614 47.9139 35.2006 47.8925 35.2506C47.8068 35.3434 47.6926 35.4504 47.5499 35.5718C47.4143 35.6931 47.2715 35.8002 47.1217 35.8929C46.9718 35.9857 46.829 36.0321 46.6934 36.0321ZM48.2922 36.0856C48.1566 36.0856 48.0067 36.0607 47.8425 36.0107C47.6784 35.9607 47.5571 35.868 47.4785 35.7324V35.7109C47.4785 35.6753 47.5249 35.6217 47.6177 35.5504C47.7034 35.4718 47.7962 35.3969 47.8961 35.3255C47.996 35.247 48.0602 35.1899 48.0888 35.1542L48.1637 35.1328L48.1851 35.1756C48.1352 35.2185 48.1102 35.2649 48.1102 35.3148C48.1102 35.4219 48.1495 35.5111 48.228 35.5825C48.3136 35.6538 48.41 35.7074 48.517 35.7431C48.6312 35.7787 48.7311 35.7966 48.8168 35.7966C48.9167 35.7966 49.0416 35.768 49.1915 35.7109C49.3485 35.6538 49.4877 35.5753 49.609 35.4754C49.7304 35.3755 49.791 35.2649 49.791 35.1435C49.791 34.958 49.7339 34.7974 49.6197 34.6618C49.5055 34.5262 49.3735 34.3977 49.2236 34.2764C49.0737 34.155 48.9417 34.0265 48.8275 33.8909C48.7133 33.7553 48.6562 33.5983 48.6562 33.4199C48.6562 33.2129 48.7169 33.0273 48.8382 32.8632C48.9667 32.6919 49.1273 32.5491 49.32 32.4349C49.5198 32.3136 49.7268 32.2244 49.9409 32.1673C50.155 32.1031 50.3513 32.0709 50.5297 32.0709C50.5583 32.0709 50.6225 32.0781 50.7224 32.0924C50.8224 32.0995 50.9151 32.1173 51.0008 32.1459C51.0936 32.1673 51.14 32.1994 51.14 32.2422C51.14 32.2565 51.1364 32.2636 51.1293 32.2636H51.1078L51.0222 32.2422C51.0436 32.2922 51.0543 32.3529 51.0543 32.4242C51.0543 32.4885 51.04 32.5705 51.0115 32.6705C50.9829 32.7704 50.9508 32.8489 50.9151 32.906C50.908 32.9203 50.8723 32.9667 50.8081 33.0452C50.7438 33.1237 50.6796 33.1986 50.6154 33.27C50.5511 33.3414 50.5119 33.3771 50.4976 33.3771L50.4869 33.3556C50.5012 33.32 50.5476 33.2593 50.6261 33.1736C50.7046 33.0809 50.7438 32.9631 50.7438 32.8204C50.7438 32.6705 50.676 32.5491 50.5404 32.4564C50.4048 32.3564 50.2656 32.3065 50.1229 32.3065C49.9873 32.3065 49.8445 32.3493 49.6947 32.4349C49.5519 32.5206 49.4306 32.6312 49.3307 32.7668C49.2379 32.9024 49.1915 33.0416 49.1915 33.1844C49.1915 33.3128 49.2522 33.4484 49.3735 33.5912C49.502 33.7268 49.6447 33.866 49.8017 34.0087C49.9659 34.1443 50.1086 34.2799 50.23 34.4155C50.3584 34.5511 50.4227 34.6796 50.4227 34.8009V34.8331C50.4227 35.0115 50.3442 35.1792 50.1871 35.3362C50.0301 35.4861 49.8338 35.6182 49.5983 35.7324C49.3628 35.8465 49.1237 35.9358 48.881 36C48.6455 36.0571 48.4492 36.0856 48.2922 36.0856ZM52.9024 31.3965C52.8453 31.3965 52.7561 31.3751 52.6348 31.3322C52.5206 31.2823 52.4635 31.2216 52.4635 31.1502C52.4635 31.1431 52.4635 31.1395 52.4635 31.1395C52.4706 31.1324 52.4742 31.1253 52.4742 31.1181C52.5099 31.0467 52.5884 31.0039 52.7097 30.9896C52.8382 30.9754 52.9345 30.954 52.9988 30.9254C53.1415 30.8683 53.2807 30.8219 53.4163 30.7862C53.5519 30.7505 53.6804 30.6863 53.8017 30.5935C53.8303 30.6078 53.8445 30.6221 53.8445 30.6364C53.8445 30.6649 53.8124 30.7042 53.7482 30.7541C53.6911 30.8041 53.6518 30.8469 53.6304 30.8826C53.6019 30.9254 53.5376 30.9896 53.4377 31.0753C53.3449 31.1538 53.245 31.2287 53.1379 31.3001C53.0309 31.3644 52.9524 31.3965 52.9024 31.3965ZM51.0931 36.0321C50.9789 36.0321 50.9004 36.0036 50.8576 35.9465C50.8148 35.8894 50.7934 35.8073 50.7934 35.7002C50.7934 35.4647 50.8397 35.1792 50.9325 34.8438C51.0325 34.5083 51.1431 34.1693 51.2644 33.8267C51.3857 33.477 51.4821 33.1665 51.5535 32.8953C51.582 32.7954 51.6498 32.7276 51.7569 32.6919C51.8711 32.6491 51.9674 32.5991 52.0459 32.542C52.1601 32.4635 52.2815 32.3993 52.4099 32.3493C52.5384 32.2922 52.674 32.2636 52.8168 32.2636C52.8525 32.2636 52.8739 32.2708 52.881 32.2851C52.8953 32.2993 52.9024 32.31 52.9024 32.3172C52.9024 32.36 52.8774 32.3814 52.8275 32.3814C52.7276 32.3814 52.6241 32.4421 52.517 32.5634C52.4099 32.6776 52.3029 32.8275 52.1958 33.0131C52.0888 33.1986 51.9924 33.3913 51.9068 33.5912C51.8211 33.791 51.7462 33.9766 51.6819 34.1479C51.6177 34.312 51.5749 34.4334 51.5535 34.5119C51.5178 34.6261 51.4821 34.7617 51.4464 34.9187C51.4107 35.0686 51.3929 35.2078 51.3929 35.3362C51.3929 35.3862 51.4 35.4469 51.4143 35.5182C51.4286 35.5825 51.4714 35.6146 51.5428 35.6146C51.5927 35.6146 51.6463 35.5967 51.7034 35.5611C51.8604 35.4683 52.0138 35.3434 52.1637 35.1864C52.3207 35.0222 52.4635 34.8473 52.5919 34.6618C52.7276 34.4691 52.8346 34.2942 52.9131 34.1372C52.9274 34.1443 52.9345 34.1586 52.9345 34.18C52.9345 34.2228 52.9096 34.2871 52.8596 34.3727C52.8096 34.4512 52.7525 34.5369 52.6883 34.6296C52.6241 34.7224 52.5634 34.8045 52.5063 34.8759C52.4563 34.9473 52.4314 34.9901 52.4314 35.0044C52.4242 35.0615 52.4135 35.1043 52.3992 35.1328C52.385 35.1542 52.3636 35.1935 52.335 35.2506C52.2494 35.3362 52.1352 35.4433 51.9924 35.5718C51.8497 35.6931 51.6998 35.8002 51.5428 35.8929C51.3857 35.9857 51.2359 36.0321 51.0931 36.0321ZM52.1355 36.1392C52.1284 36.1392 52.1248 36.1356 52.1248 36.1285C52.1248 36.0999 52.1391 36.0714 52.1676 36.0428C52.1891 36.0143 52.2033 35.9929 52.2105 35.9786C52.2604 35.9001 52.3211 35.768 52.3925 35.5825C52.4567 35.3898 52.5209 35.1756 52.5852 34.9401C52.6565 34.6975 52.7208 34.4548 52.7779 34.2121C52.8421 33.9623 52.8992 33.7339 52.9492 33.5269C52.9991 33.32 53.0348 33.1629 53.0562 33.0559C53.0705 32.9988 53.0848 32.9238 53.0991 32.8311C53.1133 32.7383 53.1347 32.6455 53.1633 32.5527C53.1918 32.4599 53.224 32.3993 53.2596 32.3707C53.331 32.3136 53.4274 32.2636 53.5487 32.2208C53.6772 32.178 53.8092 32.1459 53.9448 32.1245C54.0804 32.0959 54.1911 32.0816 54.2767 32.0816C54.291 32.0816 54.3088 32.0888 54.3302 32.1031C54.3516 32.1173 54.3659 32.1316 54.3731 32.1459V32.178C54.3731 32.1994 54.3659 32.2101 54.3516 32.2101C54.3374 32.203 54.3231 32.1994 54.3088 32.1994C54.1518 32.1994 54.0126 32.2886 53.8913 32.4671C53.77 32.6384 53.6665 32.8525 53.5808 33.1094C53.4952 33.3592 53.4238 33.6019 53.3667 33.8374C53.3096 34.0729 53.2668 34.2514 53.2382 34.3727C53.4666 33.9802 53.7271 33.6055 54.0198 33.2486C54.3195 32.8846 54.6692 32.592 55.0689 32.3707C55.1189 32.3422 55.176 32.3136 55.2402 32.2851C55.3045 32.2494 55.3616 32.2315 55.4115 32.2315C55.5043 32.2315 55.5614 32.2744 55.5828 32.36C55.6042 32.4385 55.6149 32.5135 55.6149 32.5848C55.6149 32.6776 55.5828 32.8132 55.5186 32.9916C55.4543 33.1701 55.3794 33.3485 55.2938 33.5269C55.2152 33.6982 55.1546 33.8338 55.1118 33.9338C55.0689 34.048 55.019 34.1943 54.9619 34.3727C54.9048 34.5511 54.8548 34.7296 54.812 34.908C54.7692 35.0864 54.7478 35.2363 54.7478 35.3576C54.7478 35.4076 54.7549 35.4647 54.7692 35.5289C54.7834 35.5932 54.8227 35.6253 54.8869 35.6253C54.9226 35.6253 54.9512 35.6182 54.9726 35.6039C55.0011 35.5896 55.0297 35.5753 55.0582 35.5611C55.2224 35.4683 55.3794 35.3434 55.5293 35.1864C55.6863 35.0222 55.8291 34.8473 55.9575 34.6618C56.086 34.4691 56.1931 34.2942 56.2787 34.1372C56.2858 34.1443 56.2894 34.1586 56.2894 34.18C56.2894 34.2228 56.2644 34.2871 56.2145 34.3727C56.1645 34.4512 56.1074 34.5369 56.0432 34.6296C55.9789 34.7224 55.9183 34.8045 55.8612 34.8759C55.8112 34.9473 55.7862 34.9901 55.7862 35.0044C55.7791 35.0543 55.7684 35.0971 55.7541 35.1328C55.7398 35.1614 55.722 35.2006 55.7006 35.2506C55.6149 35.3362 55.49 35.4433 55.3259 35.5718C55.1689 35.6931 55.0047 35.8037 54.8334 35.9036C54.6692 35.9964 54.5229 36.0428 54.3945 36.0428C54.2803 36.0428 54.2018 36 54.1589 35.9144C54.1232 35.8216 54.1054 35.7252 54.1054 35.6253C54.1054 35.4326 54.1447 35.2042 54.2232 34.9401C54.3017 34.6689 54.3945 34.4013 54.5015 34.1372C54.6086 33.866 54.6978 33.6376 54.7692 33.452C54.7906 33.3949 54.8227 33.3057 54.8655 33.1844C54.9155 33.063 54.9405 32.9774 54.9405 32.9274C54.9405 32.8917 54.9333 32.8525 54.9191 32.8096C54.9119 32.7668 54.8798 32.7454 54.8227 32.7454C54.7513 32.7454 54.6585 32.7918 54.5443 32.8846C54.4373 32.9774 54.3552 33.0523 54.2981 33.1094C53.9912 33.452 53.7271 33.8338 53.5059 34.2549C53.2846 34.6689 53.0991 35.0971 52.9492 35.5396C52.9278 35.5967 52.9135 35.6396 52.9063 35.6681C52.9063 35.6895 52.8778 35.7181 52.8207 35.7538C52.7993 35.768 52.7315 35.8073 52.6173 35.8715C52.5102 35.9358 52.4067 35.9964 52.3068 36.0535C52.1998 36.1106 52.1427 36.1392 52.1355 36.1392ZM56.4337 36.0428C56.0197 36.0428 55.8127 35.8323 55.8127 35.4112C55.8127 35.0971 55.877 34.7617 56.0054 34.4048C56.1339 34.0408 56.3016 33.6947 56.5086 33.3664C56.7156 33.0309 56.9333 32.7597 57.1617 32.5527C57.4329 32.3172 57.7505 32.1994 58.1145 32.1994C58.2002 32.1994 58.3036 32.2101 58.425 32.2315C58.5534 32.2529 58.6641 32.2958 58.7569 32.36C58.8496 32.4171 58.896 32.5027 58.896 32.6169C58.896 32.7811 58.8354 32.9702 58.714 33.1844C58.5927 33.3913 58.4821 33.5591 58.3822 33.6875C58.4178 33.6947 58.4607 33.7054 58.5106 33.7196C58.5677 33.7339 58.5963 33.7625 58.5963 33.8053C58.5963 33.8267 58.5784 33.8374 58.5427 33.8374C58.4785 33.8374 58.4143 33.8303 58.35 33.816C58.2858 33.8017 58.2216 33.7946 58.1573 33.7946C57.9147 33.7946 57.6649 33.8303 57.4079 33.9016C57.1581 33.973 56.919 34.048 56.6906 34.1265C56.6193 34.2978 56.555 34.4869 56.4979 34.6939C56.448 34.9009 56.423 35.0971 56.423 35.2827C56.423 35.4183 56.448 35.5396 56.4979 35.6467C56.555 35.7538 56.6621 35.8073 56.8191 35.8073C57.0118 35.8073 57.2081 35.7538 57.4079 35.6467C57.6149 35.5325 57.8112 35.3898 57.9967 35.2185C58.1895 35.04 58.3607 34.8545 58.5106 34.6618C58.6605 34.4691 58.7783 34.2942 58.8639 34.1372C58.8711 34.1443 58.8746 34.1586 58.8746 34.18C58.8746 34.2442 58.8354 34.3335 58.7569 34.4476C58.6784 34.5547 58.5963 34.6618 58.5106 34.7688C58.4321 34.8759 58.3857 34.9544 58.3715 35.0044C58.3643 35.0543 58.35 35.0971 58.3286 35.1328C58.3144 35.1685 58.2965 35.2078 58.2751 35.2506C58.1538 35.3719 57.9789 35.4968 57.7505 35.6253C57.5293 35.7466 57.2973 35.8465 57.0546 35.9251C56.8191 36.0036 56.6121 36.0428 56.4337 36.0428ZM56.8405 33.7839C57.0261 33.7482 57.2081 33.7196 57.3865 33.6982C57.5721 33.6768 57.7576 33.6661 57.9432 33.6661C58.0003 33.6661 58.0574 33.6661 58.1145 33.6661C58.1716 33.6661 58.2287 33.6697 58.2858 33.6768C58.3429 33.5555 58.3893 33.4235 58.425 33.2807C58.4678 33.138 58.4892 32.9988 58.4892 32.8632C58.4892 32.7561 58.4678 32.6491 58.425 32.542C58.3822 32.4278 58.2894 32.3707 58.1466 32.3707C58.011 32.3707 57.8718 32.4278 57.7291 32.542C57.5935 32.6562 57.4829 32.7597 57.3972 32.8525C57.283 32.9881 57.1795 33.138 57.0867 33.3021C57.0011 33.4591 56.919 33.6197 56.8405 33.7839ZM58.7472 36.0856C58.6116 36.0856 58.4617 36.0607 58.2975 36.0107C58.1334 35.9607 58.012 35.868 57.9335 35.7324V35.7109C57.9335 35.6753 57.9799 35.6217 58.0727 35.5504C58.1583 35.4718 58.2511 35.3969 58.351 35.3255C58.451 35.247 58.5152 35.1899 58.5437 35.1542L58.6187 35.1328L58.6401 35.1756C58.5901 35.2185 58.5652 35.2649 58.5652 35.3148C58.5652 35.4219 58.6044 35.5111 58.6829 35.5825C58.7686 35.6538 58.8649 35.7074 58.972 35.7431C59.0862 35.7787 59.1861 35.7966 59.2717 35.7966C59.3717 35.7966 59.4966 35.768 59.6465 35.7109C59.8035 35.6538 59.9427 35.5753 60.064 35.4754C60.1853 35.3755 60.246 35.2649 60.246 35.1435C60.246 34.958 60.1889 34.7974 60.0747 34.6618C59.9605 34.5262 59.8285 34.3977 59.6786 34.2764C59.5287 34.155 59.3967 34.0265 59.2825 33.8909C59.1683 33.7553 59.1112 33.5983 59.1112 33.4199C59.1112 33.2129 59.1718 33.0273 59.2932 32.8632C59.4216 32.6919 59.5822 32.5491 59.7749 32.4349C59.9748 32.3136 60.1817 32.2244 60.3959 32.1673C60.61 32.1031 60.8063 32.0709 60.9847 32.0709C61.0132 32.0709 61.0775 32.0781 61.1774 32.0924C61.2773 32.0995 61.3701 32.1173 61.4557 32.1459C61.5485 32.1673 61.5949 32.1994 61.5949 32.2422C61.5949 32.2565 61.5914 32.2636 61.5842 32.2636H61.5628L61.4772 32.2422C61.4986 32.2922 61.5093 32.3529 61.5093 32.4242C61.5093 32.4885 61.495 32.5705 61.4665 32.6705C61.4379 32.7704 61.4058 32.8489 61.3701 32.906C61.363 32.9203 61.3273 32.9667 61.263 33.0452C61.1988 33.1237 61.1346 33.1986 61.0703 33.27C61.0061 33.3414 60.9668 33.3771 60.9526 33.3771L60.9419 33.3556C60.9561 33.32 61.0025 33.2593 61.081 33.1736C61.1596 33.0809 61.1988 32.9631 61.1988 32.8204C61.1988 32.6705 61.131 32.5491 60.9954 32.4564C60.8598 32.3564 60.7206 32.3065 60.5779 32.3065C60.4423 32.3065 60.2995 32.3493 60.1496 32.4349C60.0069 32.5206 59.8856 32.6312 59.7856 32.7668C59.6928 32.9024 59.6465 33.0416 59.6465 33.1844C59.6465 33.3128 59.7071 33.4484 59.8285 33.5912C59.9569 33.7268 60.0997 33.866 60.2567 34.0087C60.4208 34.1443 60.5636 34.2799 60.6849 34.4155C60.8134 34.5511 60.8776 34.6796 60.8776 34.8009V34.8331C60.8776 35.0115 60.7991 35.1792 60.6421 35.3362C60.4851 35.4861 60.2888 35.6182 60.0533 35.7324C59.8177 35.8465 59.5787 35.9358 59.336 36C59.1005 36.0571 58.9042 36.0856 58.7472 36.0856ZM61.5909 36.0856C61.4553 36.0856 61.3054 36.0607 61.1413 36.0107C60.9771 35.9607 60.8558 35.868 60.7773 35.7324V35.7109C60.7773 35.6753 60.8237 35.6217 60.9164 35.5504C61.0021 35.4718 61.0949 35.3969 61.1948 35.3255C61.2947 35.247 61.3589 35.1899 61.3875 35.1542L61.4624 35.1328L61.4839 35.1756C61.4339 35.2185 61.4089 35.2649 61.4089 35.3148C61.4089 35.4219 61.4482 35.5111 61.5267 35.5825C61.6123 35.6538 61.7087 35.7074 61.8157 35.7431C61.9299 35.7787 62.0299 35.7966 62.1155 35.7966C62.2154 35.7966 62.3403 35.768 62.4902 35.7109C62.6472 35.6538 62.7864 35.5753 62.9077 35.4754C63.0291 35.3755 63.0897 35.2649 63.0897 35.1435C63.0897 34.958 63.0326 34.7974 62.9184 34.6618C62.8042 34.5262 62.6722 34.3977 62.5223 34.2764C62.3724 34.155 62.2404 34.0265 62.1262 33.8909C62.012 33.7553 61.9549 33.5983 61.9549 33.4199C61.9549 33.2129 62.0156 33.0273 62.1369 32.8632C62.2654 32.6919 62.426 32.5491 62.6187 32.4349C62.8185 32.3136 63.0255 32.2244 63.2396 32.1673C63.4537 32.1031 63.65 32.0709 63.8284 32.0709C63.857 32.0709 63.9212 32.0781 64.0211 32.0924C64.1211 32.0995 64.2139 32.1173 64.2995 32.1459C64.3923 32.1673 64.4387 32.1994 64.4387 32.2422C64.4387 32.2565 64.4351 32.2636 64.428 32.2636H64.4066L64.3209 32.2422C64.3423 32.2922 64.353 32.3529 64.353 32.4242C64.353 32.4885 64.3388 32.5705 64.3102 32.6705C64.2817 32.7704 64.2495 32.8489 64.2139 32.906C64.2067 32.9203 64.171 32.9667 64.1068 33.0452C64.0426 33.1237 63.9783 33.1986 63.9141 33.27C63.8499 33.3414 63.8106 33.3771 63.7963 33.3771L63.7856 33.3556C63.7999 33.32 63.8463 33.2593 63.9248 33.1736C64.0033 33.0809 64.0426 32.9631 64.0426 32.8204C64.0426 32.6705 63.9748 32.5491 63.8391 32.4564C63.7035 32.3564 63.5644 32.3065 63.4216 32.3065C63.286 32.3065 63.1433 32.3493 62.9934 32.4349C62.8506 32.5206 62.7293 32.6312 62.6294 32.7668C62.5366 32.9024 62.4902 33.0416 62.4902 33.1844C62.4902 33.3128 62.5509 33.4484 62.6722 33.5912C62.8007 33.7268 62.9434 33.866 63.1004 34.0087C63.2646 34.1443 63.4073 34.2799 63.5287 34.4155C63.6571 34.5511 63.7214 34.6796 63.7214 34.8009V34.8331C63.7214 35.0115 63.6429 35.1792 63.4859 35.3362C63.3288 35.4861 63.1326 35.6182 62.897 35.7324C62.6615 35.8465 62.4224 35.9358 62.1797 36C61.9442 36.0571 61.7479 36.0856 61.5909 36.0856Z" fill="#C1ACBD"/>
<path d="M69.3836 36.5674C68.5985 36.5674 67.9668 36.3711 67.4886 35.9786C67.0176 35.586 66.782 34.9794 66.782 34.1586C66.782 33.5305 66.907 32.9345 67.1568 32.3707C67.4066 31.7997 67.7384 31.2787 68.1524 30.8076C68.5735 30.3366 69.0374 29.9333 69.5442 29.5979C69.2658 29.5622 68.9839 29.5265 68.6984 29.4908C68.4129 29.4551 68.131 29.4373 67.8526 29.4373C67.5315 29.4373 67.2424 29.4801 66.9855 29.5658C66.7357 29.6514 66.5001 29.8156 66.2789 30.0582C66.2146 30.1296 66.1647 30.1938 66.129 30.2509C66.0933 30.308 66.0755 30.3865 66.0755 30.4865C66.0755 30.6506 66.104 30.7684 66.1611 30.8398C66.2182 30.9111 66.286 30.9575 66.3645 30.9789C66.443 31.0004 66.518 31.0146 66.5893 31.0218C66.6607 31.0289 66.7071 31.0503 66.7285 31.086C66.7214 31.1074 66.6964 31.1253 66.6536 31.1395C66.6108 31.1467 66.5751 31.1502 66.5465 31.1502C66.4395 31.1502 66.3467 31.1253 66.2682 31.0753C66.1968 31.0253 66.1326 30.9789 66.0755 30.9361C66.0255 30.8862 65.9791 30.8612 65.9363 30.8612C65.922 30.8612 65.9077 30.8683 65.8935 30.8826C65.8863 30.8969 65.872 30.904 65.8506 30.904C65.7935 30.904 65.7614 30.8647 65.7543 30.7862C65.7471 30.7006 65.7436 30.6435 65.7436 30.6149C65.7436 30.5364 65.7757 30.4472 65.8399 30.3473C65.9042 30.2474 65.9613 30.1689 66.0112 30.1118C66.3181 29.7406 66.6464 29.4801 66.9962 29.3302C67.353 29.1804 67.767 29.1054 68.238 29.1054C68.545 29.1054 68.8483 29.1268 69.148 29.1696C69.4478 29.2053 69.7476 29.2482 70.0473 29.2981C70.3971 29.1054 70.7682 28.9627 71.1608 28.8699C71.5533 28.77 71.9459 28.72 72.3384 28.72C72.5668 28.72 72.8059 28.745 73.0557 28.7949C73.3055 28.8378 73.5375 28.9127 73.7516 29.0198C73.9728 29.1268 74.1513 29.2731 74.2869 29.4587C74.4225 29.6443 74.4903 29.8762 74.4903 30.1546C74.4903 30.3758 74.451 30.5935 74.3725 30.8076C74.3725 30.8362 74.3654 30.8612 74.3511 30.8826C74.344 30.8969 74.3333 30.9147 74.319 30.9361C74.269 31.0289 74.2191 31.1145 74.1691 31.1931C74.1263 31.2644 74.0406 31.3001 73.9122 31.3001C73.8194 31.3001 73.773 31.2502 73.773 31.1502C73.773 31.1145 73.773 31.0789 73.773 31.0432C73.7801 31.0004 73.7873 30.9647 73.7944 30.9361C73.2234 30.6221 72.6025 30.3616 71.9316 30.1546C71.2678 29.9405 70.6148 29.7763 69.9724 29.6621C69.6441 29.9048 69.3265 30.1938 69.0196 30.5293C68.7127 30.8647 68.4343 31.2323 68.1845 31.632C67.9419 32.0245 67.7491 32.4349 67.6064 32.8632C67.4637 33.2914 67.3923 33.7161 67.3923 34.1372C67.3923 34.6154 67.4993 35.0151 67.7135 35.3362C67.9276 35.6574 68.2166 35.8965 68.5806 36.0535C68.9446 36.2105 69.355 36.2891 69.8118 36.2891C70.2044 36.2891 70.6005 36.2284 71.0002 36.1071C71.407 35.9929 71.7924 35.8323 72.1564 35.6253C72.5204 35.4112 72.838 35.1649 73.1092 34.8866C73.3019 34.6867 73.4982 34.4512 73.698 34.18C73.905 33.9088 74.062 33.6411 74.1691 33.3771C74.1691 33.3699 74.1762 33.3485 74.1905 33.3128C74.2119 33.2771 74.2262 33.2593 74.2333 33.2593C74.2476 33.2593 74.2548 33.2807 74.2548 33.3235C74.2619 33.3664 74.2655 33.3913 74.2655 33.3985C74.2655 33.4342 74.2619 33.5162 74.2548 33.6447C74.2548 33.766 74.2476 33.8445 74.2333 33.8802C74.1334 34.1943 73.9407 34.494 73.6552 34.7795C73.3769 35.0579 73.0521 35.3113 72.681 35.5396C72.317 35.768 71.9423 35.9607 71.5569 36.1178C71.1786 36.2748 70.836 36.3854 70.5291 36.4496C70.3435 36.4853 70.1544 36.5139 69.9617 36.5353C69.769 36.5567 69.5763 36.5674 69.3836 36.5674ZM73.88 30.4651C73.8872 30.4222 73.8908 30.3794 73.8908 30.3366C73.8979 30.2938 73.9015 30.2474 73.9015 30.1974C73.9015 29.8762 73.8122 29.6264 73.6338 29.448C73.4554 29.2624 73.2341 29.134 72.97 29.0626C72.706 28.9841 72.4383 28.9448 72.1671 28.9448C71.8816 28.9448 71.5854 28.9805 71.2785 29.0519C70.9716 29.1161 70.6897 29.2196 70.4328 29.3624C71.0251 29.4765 71.6104 29.6264 72.1885 29.812C72.7666 29.9976 73.3305 30.2153 73.88 30.4651ZM74.5355 36.0535C74.3999 36.0535 74.3036 36.0178 74.2465 35.9465C74.1965 35.868 74.1715 35.7324 74.1715 35.5396C74.1715 35.2613 74.2072 34.9687 74.2786 34.6618C74.35 34.3549 74.4463 34.0587 74.5677 33.7732C74.689 33.4805 74.8246 33.2272 74.9745 33.0131C75.0887 32.856 75.2421 32.7097 75.4348 32.5741C75.6275 32.4385 75.8345 32.3279 76.0558 32.2422C76.277 32.1566 76.484 32.1138 76.6767 32.1138C76.7409 32.1138 76.8195 32.1245 76.9122 32.1459C77.005 32.1602 77.0764 32.1887 77.1264 32.2315C77.162 32.2601 77.1835 32.2993 77.1906 32.3493C77.2049 32.3993 77.212 32.4456 77.212 32.4885C77.212 32.674 77.1799 32.8917 77.1157 33.1415C77.0586 33.3842 76.98 33.634 76.8801 33.8909C76.7802 34.1479 76.6731 34.3905 76.5589 34.6189C76.4447 34.8402 76.3306 35.0258 76.2164 35.1756C76.1521 35.2613 76.0486 35.3576 75.9059 35.4647C75.7631 35.5646 75.6061 35.661 75.4348 35.7538C75.2707 35.8394 75.1065 35.9108 74.9424 35.9679C74.7782 36.025 74.6426 36.0535 74.5355 36.0535ZM74.8246 35.7538C75.16 35.6824 75.4313 35.5218 75.6382 35.272C75.8024 35.0793 75.9558 34.8259 76.0986 34.5119C76.2413 34.1978 76.3555 33.8731 76.4412 33.5376C76.534 33.2022 76.5804 32.9096 76.5804 32.6598C76.5804 32.6384 76.5768 32.6027 76.5697 32.5527C76.5697 32.5027 76.5589 32.4742 76.5375 32.4671C76.4519 32.4242 76.3555 32.4028 76.2485 32.4028C76.1771 32.4028 76.0843 32.4278 75.9701 32.4778C75.8559 32.5206 75.7703 32.5705 75.7132 32.6276C75.6775 32.6633 75.6418 32.7133 75.6061 32.7775C75.5776 32.8346 75.549 32.8846 75.5205 32.9274C75.3849 33.1415 75.2528 33.3913 75.1244 33.6768C75.003 33.9623 74.9031 34.2549 74.8246 34.5547C74.7461 34.8545 74.7068 35.1364 74.7068 35.4005C74.7068 35.4861 74.714 35.5646 74.7282 35.636C74.7497 35.7002 74.7818 35.7395 74.8246 35.7538ZM77.557 36.0535C77.4214 36.0535 77.3251 36.0178 77.268 35.9465C77.218 35.868 77.193 35.7324 77.193 35.5396C77.193 35.2613 77.2287 34.9687 77.3001 34.6618C77.3714 34.3549 77.4678 34.0587 77.5891 33.7732C77.7105 33.4805 77.8461 33.2272 77.996 33.0131C78.1102 32.856 78.2636 32.7097 78.4563 32.5741C78.649 32.4385 78.856 32.3279 79.0773 32.2422C79.2985 32.1566 79.5055 32.1138 79.6982 32.1138C79.7624 32.1138 79.8409 32.1245 79.9337 32.1459C80.0265 32.1602 80.0979 32.1887 80.1478 32.2315C80.1835 32.2601 80.2049 32.2993 80.2121 32.3493C80.2264 32.3993 80.2335 32.4456 80.2335 32.4885C80.2335 32.674 80.2014 32.8917 80.1371 33.1415C80.08 33.3842 80.0015 33.634 79.9016 33.8909C79.8017 34.1479 79.6946 34.3905 79.5804 34.6189C79.4662 34.8402 79.352 35.0258 79.2378 35.1756C79.1736 35.2613 79.0701 35.3576 78.9274 35.4647C78.7846 35.5646 78.6276 35.661 78.4563 35.7538C78.2922 35.8394 78.128 35.9108 77.9638 35.9679C77.7997 36.025 77.6641 36.0535 77.557 36.0535ZM77.8461 35.7538C78.1815 35.6824 78.4527 35.5218 78.6597 35.272C78.8239 35.0793 78.9773 34.8259 79.1201 34.5119C79.2628 34.1978 79.377 33.8731 79.4627 33.5376C79.5554 33.2022 79.6018 32.9096 79.6018 32.6598C79.6018 32.6384 79.5983 32.6027 79.5911 32.5527C79.5911 32.5027 79.5804 32.4742 79.559 32.4671C79.4734 32.4242 79.377 32.4028 79.27 32.4028C79.1986 32.4028 79.1058 32.4278 78.9916 32.4778C78.8774 32.5206 78.7918 32.5705 78.7347 32.6276C78.699 32.6633 78.6633 32.7133 78.6276 32.7775C78.5991 32.8346 78.5705 32.8846 78.542 32.9274C78.4064 33.1415 78.2743 33.3913 78.1458 33.6768C78.0245 33.9623 77.9246 34.2549 77.8461 34.5547C77.7676 34.8545 77.7283 35.1364 77.7283 35.4005C77.7283 35.4861 77.7354 35.5646 77.7497 35.636C77.7711 35.7002 77.8033 35.7395 77.8461 35.7538ZM79.8291 36.1392C79.8148 36.1392 79.8077 36.1356 79.8077 36.1285C79.8077 36.0999 79.822 36.0714 79.8505 36.0428C79.8719 36.0214 79.8898 36 79.904 35.9786C79.9683 35.8715 80.0396 35.6895 80.1181 35.4326C80.2038 35.1685 80.2859 34.8795 80.3644 34.5654C80.45 34.2514 80.525 33.9587 80.5892 33.6875C80.6606 33.4092 80.7105 33.1986 80.7391 33.0559C80.7534 32.9988 80.7676 32.9238 80.7819 32.8311C80.8033 32.7383 80.8283 32.6455 80.8569 32.5527C80.8854 32.4599 80.9175 32.3993 80.9532 32.3707C81.0174 32.3136 81.1138 32.2636 81.2423 32.2208C81.3707 32.178 81.4992 32.1459 81.6277 32.1245C81.7633 32.0959 81.8739 32.0816 81.9596 32.0816C81.9738 32.0816 81.9917 32.0888 82.0131 32.1031C82.0345 32.1173 82.0488 32.1316 82.0559 32.1459L82.0666 32.178C82.0595 32.1994 82.0488 32.2101 82.0345 32.2101C82.0202 32.203 82.006 32.1994 81.9917 32.1994C81.8561 32.1994 81.7312 32.2779 81.617 32.4349C81.5028 32.5848 81.4029 32.7704 81.3172 32.9916C81.2316 33.2129 81.1566 33.427 81.0924 33.634C81.0353 33.8338 80.996 33.9837 80.9746 34.0836C81.046 33.9195 81.1388 33.7339 81.253 33.5269C81.3743 33.3128 81.5135 33.1094 81.6705 32.9167C81.8275 32.7169 81.9988 32.5527 82.1844 32.4242C82.37 32.2886 82.5662 32.2208 82.7732 32.2208C82.8018 32.2208 82.8481 32.228 82.9124 32.2422C82.9838 32.2494 83.048 32.2672 83.1051 32.2958C83.1693 32.3172 83.2014 32.3457 83.2014 32.3814L83.1907 32.3921H83.18L83.1158 32.3707C83.1372 32.4207 83.1515 32.4706 83.1586 32.5206C83.1658 32.5705 83.1693 32.6205 83.1693 32.6705C83.1693 32.7133 83.1551 32.8061 83.1265 32.9488C83.1051 33.0916 83.073 33.2272 83.0301 33.3556C82.9945 33.477 82.9552 33.5376 82.9124 33.5376C82.8838 33.5376 82.8696 33.5269 82.8696 33.5055C82.8696 33.4698 82.8803 33.4127 82.9017 33.3342C82.9302 33.2486 82.9445 33.1701 82.9445 33.0987C82.9445 32.9702 82.9124 32.8667 82.8481 32.7882C82.7839 32.7097 82.6876 32.6705 82.5591 32.6705C82.345 32.6705 82.138 32.7633 81.9381 32.9488C81.7383 33.1273 81.5563 33.3521 81.3921 33.6233C81.228 33.8874 81.0888 34.155 80.9746 34.4262C80.8604 34.6975 80.7819 34.9187 80.7391 35.09C80.7105 35.1828 80.6856 35.3041 80.6641 35.454C80.6427 35.5967 80.5892 35.6967 80.5036 35.7538C80.4821 35.7609 80.4143 35.7966 80.3001 35.8608C80.1931 35.9251 80.0896 35.9857 79.9897 36.0428C79.8826 36.1071 79.8291 36.1392 79.8291 36.1392ZM83.0523 36.0214C82.9381 36.0214 82.8632 35.9786 82.8275 35.8929C82.7989 35.8002 82.7847 35.7074 82.7847 35.6146C82.7847 35.2791 82.8489 34.9187 82.9774 34.5333C83.1058 34.1479 83.2736 33.7803 83.4805 33.4306C83.6875 33.0737 83.9124 32.7811 84.155 32.5527C84.2978 32.4242 84.4369 32.3315 84.5725 32.2744C84.7082 32.2101 84.8759 32.178 85.0757 32.178C85.1899 32.178 85.3041 32.1851 85.4183 32.1994C85.5325 32.2137 85.6467 32.2315 85.7609 32.2529C86.1178 31.4607 86.4496 30.6578 86.7565 29.8441C86.8208 29.68 86.9278 29.5444 87.0777 29.4373C87.1991 29.3588 87.3489 29.2945 87.5274 29.2446C87.7058 29.1946 87.8628 29.1696 87.9984 29.1696C88.0127 29.1696 88.0305 29.1768 88.052 29.1911C88.0734 29.2053 88.0876 29.2196 88.0948 29.2339V29.266C88.0876 29.2874 88.0769 29.2981 88.0627 29.2981C88.0484 29.291 88.0341 29.2874 88.0198 29.2874C87.9199 29.2874 87.8022 29.3624 87.6665 29.5122C87.5381 29.6621 87.3989 29.8584 87.249 30.1011C87.1063 30.3437 86.9635 30.6114 86.8208 30.904C86.678 31.1895 86.5424 31.4714 86.414 31.7498C86.2926 32.021 86.1856 32.2672 86.0928 32.4885C86.0071 32.7026 85.9429 32.8596 85.9001 32.9595C85.8501 33.0951 85.7823 33.27 85.6967 33.4841C85.611 33.6982 85.5289 33.9266 85.4504 34.1693C85.3719 34.412 85.3041 34.6404 85.247 34.8545C85.1899 35.0686 85.1614 35.247 85.1614 35.3898C85.1614 35.4326 85.1685 35.4825 85.1828 35.5396C85.1971 35.5967 85.2327 35.6253 85.2898 35.6253C85.3255 35.6253 85.3541 35.6182 85.3755 35.6039C85.404 35.5896 85.4326 35.5753 85.4611 35.5611C85.6253 35.4683 85.7823 35.3434 85.9322 35.1864C86.0892 35.0222 86.232 34.8473 86.3604 34.6618C86.4889 34.4691 86.5924 34.2942 86.6709 34.1372C86.6852 34.1443 86.6923 34.1586 86.6923 34.18C86.6923 34.23 86.6495 34.3192 86.5638 34.4476C86.4853 34.569 86.4033 34.6867 86.3176 34.8009C86.2391 34.908 86.1963 34.9758 86.1891 35.0044C86.182 35.0543 86.1713 35.0971 86.157 35.1328C86.1427 35.1614 86.1213 35.2006 86.0928 35.2506C86 35.3434 85.8822 35.4504 85.7395 35.5718C85.5967 35.6931 85.4469 35.8002 85.2898 35.8929C85.14 35.9786 84.9936 36.0214 84.8509 36.0214C84.6296 36.0214 84.519 35.9036 84.519 35.6681C84.519 35.5254 84.5476 35.3612 84.6047 35.1756C84.6689 34.9901 84.7403 34.8045 84.8188 34.6189C84.9044 34.4334 84.9794 34.2764 85.0436 34.1479C84.9651 34.2621 84.8438 34.4227 84.6796 34.6296C84.5226 34.8366 84.3442 35.0472 84.1443 35.2613C83.9516 35.4754 83.7589 35.6574 83.5662 35.8073C83.3735 35.95 83.2022 36.0214 83.0523 36.0214ZM83.5234 35.5611C83.6019 35.5611 83.6982 35.5111 83.8124 35.4112C83.9338 35.3113 84.0587 35.1899 84.1871 35.0472C84.3227 34.8973 84.4405 34.7581 84.5404 34.6296C84.6475 34.494 84.7224 34.3941 84.7653 34.3299C84.8509 34.2014 84.9473 34.0373 85.0543 33.8374C85.1614 33.6376 85.2542 33.4342 85.3327 33.2272C85.4183 33.0202 85.4611 32.8453 85.4611 32.7026C85.4611 32.4813 85.3541 32.3707 85.14 32.3707C85.0044 32.3707 84.8652 32.4278 84.7224 32.542C84.5868 32.6562 84.4762 32.7597 84.3905 32.8525C84.2978 32.9667 84.1907 33.1308 84.0694 33.3449C83.9552 33.5591 83.8481 33.791 83.7482 34.0408C83.6483 34.2906 83.5626 34.5297 83.4913 34.7581C83.427 34.9865 83.3949 35.1756 83.3949 35.3255C83.3949 35.3684 83.402 35.4183 83.4163 35.4754C83.4306 35.5325 83.4663 35.5611 83.5234 35.5611ZM88.3219 31.3965C88.2649 31.3965 88.1756 31.3751 88.0543 31.3322C87.9401 31.2823 87.883 31.2216 87.883 31.1502C87.883 31.1431 87.883 31.1395 87.883 31.1395C87.8901 31.1324 87.8937 31.1253 87.8937 31.1181C87.9294 31.0467 88.0079 31.0039 88.1292 30.9896C88.2577 30.9754 88.3541 30.954 88.4183 30.9254C88.561 30.8683 88.7002 30.8219 88.8358 30.7862C88.9714 30.7505 89.0999 30.6863 89.2212 30.5935C89.2498 30.6078 89.2641 30.6221 89.2641 30.6364C89.2641 30.6649 89.2319 30.7042 89.1677 30.7541C89.1106 30.8041 89.0714 30.8469 89.0499 30.8826C89.0214 30.9254 88.9572 30.9896 88.8572 31.0753C88.7645 31.1538 88.6645 31.2287 88.5575 31.3001C88.4504 31.3644 88.3719 31.3965 88.3219 31.3965ZM86.5127 36.0321C86.3985 36.0321 86.3199 36.0036 86.2771 35.9465C86.2343 35.8894 86.2129 35.8073 86.2129 35.7002C86.2129 35.4647 86.2593 35.1792 86.3521 34.8438C86.452 34.5083 86.5626 34.1693 86.6839 33.8267C86.8053 33.477 86.9016 33.1665 86.973 32.8953C87.0016 32.7954 87.0694 32.7276 87.1764 32.6919C87.2906 32.6491 87.387 32.5991 87.4655 32.542C87.5797 32.4635 87.701 32.3993 87.8295 32.3493C87.9579 32.2922 88.0936 32.2636 88.2363 32.2636C88.272 32.2636 88.2934 32.2708 88.3005 32.2851C88.3148 32.2993 88.3219 32.31 88.3219 32.3172C88.3219 32.36 88.297 32.3814 88.247 32.3814C88.1471 32.3814 88.0436 32.4421 87.9365 32.5634C87.8295 32.6776 87.7224 32.8275 87.6154 33.0131C87.5083 33.1986 87.4119 33.3913 87.3263 33.5912C87.2407 33.791 87.1657 33.9766 87.1015 34.1479C87.0372 34.312 86.9944 34.4334 86.973 34.5119C86.9373 34.6261 86.9016 34.7617 86.8659 34.9187C86.8303 35.0686 86.8124 35.2078 86.8124 35.3362C86.8124 35.3862 86.8196 35.4469 86.8338 35.5182C86.8481 35.5825 86.8909 35.6146 86.9623 35.6146C87.0123 35.6146 87.0658 35.5967 87.1229 35.5611C87.2799 35.4683 87.4334 35.3434 87.5832 35.1864C87.7403 35.0222 87.883 34.8473 88.0115 34.6618C88.1471 34.4691 88.2541 34.2942 88.3327 34.1372C88.3469 34.1443 88.3541 34.1586 88.3541 34.18C88.3541 34.2228 88.3291 34.2871 88.2791 34.3727C88.2292 34.4512 88.1721 34.5369 88.1078 34.6296C88.0436 34.7224 87.9829 34.8045 87.9258 34.8759C87.8759 34.9473 87.8509 34.9901 87.8509 35.0044C87.8438 35.0615 87.833 35.1043 87.8188 35.1328C87.8045 35.1542 87.7831 35.1935 87.7545 35.2506C87.6689 35.3362 87.5547 35.4433 87.4119 35.5718C87.2692 35.6931 87.1193 35.8002 86.9623 35.8929C86.8053 35.9857 86.6554 36.0321 86.5127 36.0321ZM87.5551 36.1392C87.5479 36.1392 87.5444 36.1356 87.5444 36.1285C87.5444 36.0999 87.5586 36.0714 87.5872 36.0428C87.6086 36.0143 87.6229 35.9929 87.63 35.9786C87.68 35.9001 87.7406 35.768 87.812 35.5825C87.8762 35.3898 87.9405 35.1756 88.0047 34.9401C88.0761 34.6975 88.1403 34.4548 88.1974 34.2121C88.2616 33.9623 88.3187 33.7339 88.3687 33.5269C88.4187 33.32 88.4544 33.1629 88.4758 33.0559C88.49 32.9988 88.5043 32.9238 88.5186 32.8311C88.5329 32.7383 88.5543 32.6455 88.5828 32.5527C88.6114 32.4599 88.6435 32.3993 88.6792 32.3707C88.7505 32.3136 88.8469 32.2636 88.9682 32.2208C89.0967 32.178 89.2287 32.1459 89.3644 32.1245C89.5 32.0959 89.6106 32.0816 89.6962 32.0816C89.7105 32.0816 89.7284 32.0888 89.7498 32.1031C89.7712 32.1173 89.7854 32.1316 89.7926 32.1459V32.178C89.7926 32.1994 89.7854 32.2101 89.7712 32.2101C89.7569 32.203 89.7426 32.1994 89.7284 32.1994C89.5713 32.1994 89.4322 32.2886 89.3108 32.4671C89.1895 32.6384 89.086 32.8525 89.0004 33.1094C88.9147 33.3592 88.8433 33.6019 88.7862 33.8374C88.7291 34.0729 88.6863 34.2514 88.6578 34.3727C88.8862 33.9802 89.1467 33.6055 89.4393 33.2486C89.7391 32.8846 90.0888 32.592 90.4885 32.3707C90.5384 32.3422 90.5955 32.3136 90.6598 32.2851C90.724 32.2494 90.7811 32.2315 90.8311 32.2315C90.9238 32.2315 90.9809 32.2744 91.0024 32.36C91.0238 32.4385 91.0345 32.5135 91.0345 32.5848C91.0345 32.6776 91.0024 32.8132 90.9381 32.9916C90.8739 33.1701 90.7989 33.3485 90.7133 33.5269C90.6348 33.6982 90.5741 33.8338 90.5313 33.9338C90.4885 34.048 90.4385 34.1943 90.3814 34.3727C90.3243 34.5511 90.2744 34.7296 90.2315 34.908C90.1887 35.0864 90.1673 35.2363 90.1673 35.3576C90.1673 35.4076 90.1744 35.4647 90.1887 35.5289C90.203 35.5932 90.2422 35.6253 90.3065 35.6253C90.3422 35.6253 90.3707 35.6182 90.3921 35.6039C90.4207 35.5896 90.4492 35.5753 90.4778 35.5611C90.6419 35.4683 90.7989 35.3434 90.9488 35.1864C91.1058 35.0222 91.2486 34.8473 91.3771 34.6618C91.5055 34.4691 91.6126 34.2942 91.6982 34.1372C91.7054 34.1443 91.7089 34.1586 91.7089 34.18C91.7089 34.2228 91.684 34.2871 91.634 34.3727C91.584 34.4512 91.5269 34.5369 91.4627 34.6296C91.3985 34.7224 91.3378 34.8045 91.2807 34.8759C91.2307 34.9473 91.2058 34.9901 91.2058 35.0044C91.1986 35.0543 91.1879 35.0971 91.1736 35.1328C91.1594 35.1614 91.1415 35.2006 91.1201 35.2506C91.0345 35.3362 90.9096 35.4433 90.7454 35.5718C90.5884 35.6931 90.4242 35.8037 90.2529 35.9036C90.0888 35.9964 89.9425 36.0428 89.814 36.0428C89.6998 36.0428 89.6213 36 89.5785 35.9144C89.5428 35.8216 89.5249 35.7252 89.5249 35.6253C89.5249 35.4326 89.5642 35.2042 89.6427 34.9401C89.7212 34.6689 89.814 34.4013 89.9211 34.1372C90.0281 33.866 90.1173 33.6376 90.1887 33.452C90.2101 33.3949 90.2422 33.3057 90.2851 33.1844C90.335 33.063 90.36 32.9774 90.36 32.9274C90.36 32.8917 90.3529 32.8525 90.3386 32.8096C90.3314 32.7668 90.2993 32.7454 90.2422 32.7454C90.1709 32.7454 90.0781 32.7918 89.9639 32.8846C89.8568 32.9774 89.7747 33.0523 89.7176 33.1094C89.4107 33.452 89.1467 33.8338 88.9254 34.2549C88.7042 34.6689 88.5186 35.0971 88.3687 35.5396C88.3473 35.5967 88.333 35.6396 88.3259 35.6681C88.3259 35.6895 88.2973 35.7181 88.2402 35.7538C88.2188 35.768 88.151 35.8073 88.0368 35.8715C87.9298 35.9358 87.8263 35.9964 87.7264 36.0535C87.6193 36.1106 87.5622 36.1392 87.5551 36.1392ZM91.4999 36.0214C91.3857 36.0214 91.3108 35.9786 91.2751 35.8929C91.2466 35.8002 91.2323 35.7074 91.2323 35.6146C91.2323 35.2791 91.2965 34.9187 91.425 34.5333C91.5535 34.1479 91.7212 33.7803 91.9282 33.4306C92.1351 33.0737 92.36 32.7811 92.6026 32.5527C92.8596 32.3172 93.1629 32.1994 93.5126 32.1994C93.6554 32.1994 93.7946 32.2173 93.9302 32.2529C94.0729 32.2815 94.2121 32.3243 94.3477 32.3814C94.469 32.2958 94.6011 32.2208 94.7438 32.1566C94.8866 32.0924 95.0329 32.0602 95.1827 32.0602C95.2184 32.0602 95.247 32.0816 95.2684 32.1245V32.1566C95.2684 32.178 95.2577 32.1887 95.2363 32.1887C95.222 32.1816 95.2077 32.178 95.1935 32.178C95.0793 32.178 94.9544 32.2672 94.8187 32.4456C94.6831 32.6169 94.5475 32.8382 94.4119 33.1094C94.2763 33.3806 94.1514 33.6661 94.0372 33.9659C93.9302 34.2656 93.8409 34.5404 93.7696 34.7902C93.7053 35.04 93.6732 35.2292 93.6732 35.3576C93.6732 35.4076 93.6804 35.4647 93.6946 35.5289C93.716 35.5932 93.7589 35.6253 93.8231 35.6253C93.8588 35.6253 93.8873 35.6182 93.9087 35.6039C93.9373 35.5896 93.9658 35.5753 93.9944 35.5611C94.1514 35.4683 94.3049 35.3434 94.4547 35.1864C94.6118 35.0222 94.7545 34.8473 94.883 34.6618C95.0186 34.4691 95.1292 34.2942 95.2149 34.1372C95.222 34.1443 95.2256 34.1586 95.2256 34.18C95.2256 34.2228 95.2006 34.2871 95.1506 34.3727C95.1007 34.4512 95.0436 34.5369 94.9793 34.6296C94.9151 34.7224 94.8544 34.8045 94.7973 34.8759C94.7474 34.9473 94.7224 34.9901 94.7224 35.0044C94.7153 35.0543 94.7046 35.0971 94.6903 35.1328C94.676 35.1614 94.6546 35.2006 94.626 35.2506C94.5333 35.3434 94.4155 35.4504 94.2727 35.5718C94.13 35.6931 93.9801 35.8002 93.8231 35.8929C93.6732 35.9786 93.5269 36.0214 93.3842 36.0214C93.1629 36.0214 93.0523 35.9036 93.0523 35.6681C93.0523 35.5254 93.0808 35.3612 93.1379 35.1756C93.2022 34.9829 93.2735 34.7938 93.352 34.6082C93.4377 34.4155 93.5126 34.2549 93.5769 34.1265C93.5769 34.1193 93.5769 34.1086 93.5769 34.0944C93.5769 34.0801 93.5733 34.0729 93.5662 34.0729C93.559 34.0729 93.5483 34.0801 93.534 34.0944C93.4484 34.2085 93.3235 34.3727 93.1593 34.5868C92.9952 34.8009 92.8132 35.0186 92.6133 35.2399C92.4206 35.454 92.2244 35.6396 92.0245 35.7966C91.8247 35.9465 91.6498 36.0214 91.4999 36.0214ZM91.971 35.5611C92.0495 35.5611 92.1458 35.5111 92.26 35.4112C92.3814 35.3041 92.5063 35.1792 92.6347 35.0365C92.7704 34.8866 92.8881 34.7438 92.988 34.6082C93.0951 34.4726 93.17 34.3727 93.2129 34.3085C93.2985 34.18 93.3949 34.0194 93.5019 33.8267C93.6161 33.634 93.7125 33.4342 93.791 33.2272C93.8766 33.0202 93.9195 32.8453 93.9195 32.7026C93.9195 32.4813 93.8088 32.3707 93.5876 32.3707C93.4591 32.3707 93.3235 32.4278 93.1807 32.542C93.038 32.6562 92.9238 32.7597 92.8382 32.8525C92.7454 32.9667 92.6383 33.1308 92.517 33.3449C92.4028 33.5591 92.2957 33.791 92.1958 34.0408C92.0959 34.2906 92.0102 34.5297 91.9389 34.7581C91.8746 34.9865 91.8425 35.1756 91.8425 35.3255C91.8425 35.3684 91.8497 35.4183 91.8639 35.4754C91.8782 35.5325 91.9139 35.5611 91.971 35.5611ZM95.0977 36.0321C94.9835 36.0321 94.905 36.0036 94.8622 35.9465C94.8193 35.8894 94.7979 35.8073 94.7979 35.7002C94.7979 35.5147 94.8407 35.2827 94.9264 35.0044C95.012 34.7189 95.1191 34.4191 95.2476 34.1051C95.376 33.7839 95.5009 33.4805 95.6223 33.1951C95.7507 32.9024 95.8542 32.6633 95.9327 32.4778C95.84 32.4849 95.7472 32.4885 95.6544 32.4885C95.5616 32.4885 95.4653 32.492 95.3653 32.4992C95.3511 32.4849 95.3439 32.4706 95.3439 32.4564C95.3439 32.4135 95.3725 32.3636 95.4296 32.3065C95.4867 32.2494 95.5509 32.203 95.6223 32.1673C95.7008 32.1245 95.7579 32.1031 95.7936 32.1031H96.0933C96.1647 31.9318 96.2361 31.7605 96.3075 31.5892C96.386 31.4179 96.4573 31.2466 96.5216 31.0753C96.5573 30.9825 96.5965 30.9076 96.6393 30.8505C96.6893 30.7862 96.7571 30.7256 96.8427 30.6685C96.9641 30.59 97.114 30.5257 97.2924 30.4758C97.4708 30.4258 97.6278 30.4008 97.7635 30.4008C97.7777 30.4008 97.792 30.408 97.8063 30.4222C97.8277 30.4365 97.842 30.4472 97.8491 30.4544V30.4972C97.8491 30.5186 97.8384 30.5257 97.817 30.5186C97.8027 30.5115 97.7884 30.5079 97.7742 30.5079C97.6885 30.5079 97.5886 30.5793 97.4744 30.722C97.3602 30.8576 97.2424 31.0218 97.1211 31.2145C96.9998 31.4072 96.8927 31.5927 96.7999 31.7712C96.7143 31.9425 96.6536 32.0602 96.6179 32.1245H97.0462C97.1604 32.1245 97.2745 32.1245 97.3887 32.1245C97.5029 32.1173 97.6171 32.1066 97.7313 32.0924L97.742 32.1138C97.7349 32.1138 97.7313 32.1173 97.7313 32.1245C97.7313 32.1316 97.7278 32.1352 97.7206 32.1352C97.6992 32.1566 97.6457 32.1923 97.56 32.2422C97.4744 32.2851 97.3887 32.3243 97.3031 32.36C97.2175 32.3957 97.1568 32.4171 97.1211 32.4242C97.0069 32.4385 96.8927 32.4492 96.7785 32.4564C96.6715 32.4635 96.5608 32.4671 96.4466 32.4671C96.3753 32.6241 96.2825 32.8311 96.1683 33.088C96.0541 33.3449 95.9399 33.6197 95.8257 33.9124C95.7115 34.1978 95.6151 34.4726 95.5366 34.7367C95.4653 34.9936 95.4296 35.2078 95.4296 35.3791C95.4296 35.4219 95.4367 35.4718 95.451 35.5289C95.4653 35.586 95.5009 35.6146 95.558 35.6146C95.608 35.6146 95.658 35.5967 95.7079 35.5611C95.8649 35.4683 96.0184 35.3434 96.1683 35.1864C96.3253 35.0222 96.468 34.8473 96.5965 34.6618C96.7321 34.4691 96.8392 34.2942 96.9177 34.1372C96.932 34.1443 96.9391 34.1586 96.9391 34.18C96.9391 34.2228 96.9141 34.2871 96.8642 34.3727C96.8142 34.4512 96.7571 34.5369 96.6929 34.6296C96.6286 34.7224 96.568 34.8045 96.5109 34.8759C96.4609 34.9473 96.4359 34.9901 96.4359 35.0044C96.4288 35.0615 96.4145 35.1043 96.3931 35.1328C96.3788 35.1542 96.361 35.1935 96.3396 35.2506C96.2468 35.3362 96.129 35.4433 95.9863 35.5718C95.8435 35.6931 95.6936 35.8002 95.5366 35.8929C95.3796 35.9857 95.2333 36.0321 95.0977 36.0321ZM98.9024 31.3965C98.8453 31.3965 98.7561 31.3751 98.6347 31.3322C98.5205 31.2823 98.4634 31.2216 98.4634 31.1502C98.4634 31.1431 98.4634 31.1395 98.4634 31.1395C98.4706 31.1324 98.4741 31.1253 98.4741 31.1181C98.5098 31.0467 98.5883 31.0039 98.7097 30.9896C98.8381 30.9754 98.9345 30.954 98.9987 30.9254C99.1415 30.8683 99.2806 30.8219 99.4163 30.7862C99.5519 30.7505 99.6803 30.6863 99.8017 30.5935C99.8302 30.6078 99.8445 30.6221 99.8445 30.6364C99.8445 30.6649 99.8124 30.7042 99.7481 30.7541C99.691 30.8041 99.6518 30.8469 99.6304 30.8826C99.6018 30.9254 99.5376 30.9896 99.4377 31.0753C99.3449 31.1538 99.245 31.2287 99.1379 31.3001C99.0308 31.3644 98.9523 31.3965 98.9024 31.3965ZM97.0931 36.0321C96.9789 36.0321 96.9004 36.0036 96.8575 35.9465C96.8147 35.8894 96.7933 35.8073 96.7933 35.7002C96.7933 35.4647 96.8397 35.1792 96.9325 34.8438C97.0324 34.5083 97.143 34.1693 97.2644 33.8267C97.3857 33.477 97.4821 33.1665 97.5534 32.8953C97.582 32.7954 97.6498 32.7276 97.7568 32.6919C97.871 32.6491 97.9674 32.5991 98.0459 32.542C98.1601 32.4635 98.2814 32.3993 98.4099 32.3493C98.5384 32.2922 98.674 32.2636 98.8167 32.2636C98.8524 32.2636 98.8738 32.2708 98.881 32.2851C98.8952 32.2993 98.9024 32.31 98.9024 32.3172C98.9024 32.36 98.8774 32.3814 98.8274 32.3814C98.7275 32.3814 98.624 32.4421 98.517 32.5634C98.4099 32.6776 98.3028 32.8275 98.1958 33.0131C98.0887 33.1986 97.9924 33.3913 97.9067 33.5912C97.8211 33.791 97.7461 33.9766 97.6819 34.1479C97.6177 34.312 97.5748 34.4334 97.5534 34.5119C97.5177 34.6261 97.4821 34.7617 97.4464 34.9187C97.4107 35.0686 97.3928 35.2078 97.3928 35.3362C97.3928 35.3862 97.4 35.4469 97.4143 35.5182C97.4285 35.5825 97.4714 35.6146 97.5427 35.6146C97.5927 35.6146 97.6462 35.5967 97.7033 35.5611C97.8603 35.4683 98.0138 35.3434 98.1637 35.1864C98.3207 35.0222 98.4634 34.8473 98.5919 34.6618C98.7275 34.4691 98.8346 34.2942 98.9131 34.1372C98.9274 34.1443 98.9345 34.1586 98.9345 34.18C98.9345 34.2228 98.9095 34.2871 98.8595 34.3727C98.8096 34.4512 98.7525 34.5369 98.6883 34.6296C98.624 34.7224 98.5634 34.8045 98.5063 34.8759C98.4563 34.9473 98.4313 34.9901 98.4313 35.0044C98.4242 35.0615 98.4135 35.1043 98.3992 35.1328C98.3849 35.1542 98.3635 35.1935 98.335 35.2506C98.2493 35.3362 98.1351 35.4433 97.9924 35.5718C97.8496 35.6931 97.6997 35.8002 97.5427 35.8929C97.3857 35.9857 97.2358 36.0321 97.0931 36.0321ZM98.8956 36.0535C98.76 36.0535 98.6636 36.0178 98.6065 35.9465C98.5566 35.868 98.5316 35.7324 98.5316 35.5396C98.5316 35.2613 98.5673 34.9687 98.6387 34.6618C98.71 34.3549 98.8064 34.0587 98.9277 33.7732C99.049 33.4805 99.1847 33.2272 99.3345 33.0131C99.4487 32.856 99.6022 32.7097 99.7949 32.5741C99.9876 32.4385 100.195 32.3279 100.416 32.2422C100.637 32.1566 100.844 32.1138 101.037 32.1138C101.101 32.1138 101.18 32.1245 101.272 32.1459C101.365 32.1602 101.436 32.1887 101.486 32.2315C101.522 32.2601 101.544 32.2993 101.551 32.3493C101.565 32.3993 101.572 32.4456 101.572 32.4885C101.572 32.674 101.54 32.8917 101.476 33.1415C101.419 33.3842 101.34 33.634 101.24 33.8909C101.14 34.1479 101.033 34.3905 100.919 34.6189C100.805 34.8402 100.691 35.0258 100.576 35.1756C100.512 35.2613 100.409 35.3576 100.266 35.4647C100.123 35.5646 99.9662 35.661 99.7949 35.7538C99.6307 35.8394 99.4666 35.9108 99.3024 35.9679C99.1383 36.025 99.0027 36.0535 98.8956 36.0535ZM99.1847 35.7538C99.5201 35.6824 99.7913 35.5218 99.9983 35.272C100.162 35.0793 100.316 34.8259 100.459 34.5119C100.601 34.1978 100.716 33.8731 100.801 33.5376C100.894 33.2022 100.94 32.9096 100.94 32.6598C100.94 32.6384 100.937 32.6027 100.93 32.5527C100.93 32.5027 100.919 32.4742 100.898 32.4671C100.812 32.4242 100.716 32.4028 100.609 32.4028C100.537 32.4028 100.444 32.4278 100.33 32.4778C100.216 32.5206 100.13 32.5705 100.073 32.6276C100.038 32.6633 100.002 32.7133 99.9662 32.7775C99.9376 32.8346 99.9091 32.8846 99.8805 32.9274C99.7449 33.1415 99.6129 33.3913 99.4844 33.6768C99.3631 33.9623 99.2632 34.2549 99.1847 34.5547C99.1061 34.8545 99.0669 35.1364 99.0669 35.4005C99.0669 35.4861 99.074 35.5646 99.0883 35.636C99.1097 35.7002 99.1418 35.7395 99.1847 35.7538ZM101.157 36.1392C101.15 36.1392 101.146 36.1356 101.146 36.1285C101.146 36.0999 101.161 36.0714 101.189 36.0428C101.21 36.0143 101.225 35.9929 101.232 35.9786C101.282 35.9001 101.343 35.768 101.414 35.5825C101.478 35.3898 101.542 35.1756 101.607 34.9401C101.678 34.6975 101.742 34.4548 101.799 34.2121C101.864 33.9623 101.921 33.7339 101.971 33.5269C102.021 33.32 102.056 33.1629 102.078 33.0559C102.092 32.9988 102.106 32.9238 102.12 32.8311C102.135 32.7383 102.156 32.6455 102.185 32.5527C102.213 32.4599 102.245 32.3993 102.281 32.3707C102.352 32.3136 102.449 32.2636 102.57 32.2208C102.699 32.178 102.831 32.1459 102.966 32.1245C103.102 32.0959 103.212 32.0816 103.298 32.0816C103.312 32.0816 103.33 32.0888 103.352 32.1031C103.373 32.1173 103.387 32.1316 103.394 32.1459V32.178C103.394 32.1994 103.387 32.2101 103.373 32.2101C103.359 32.203 103.345 32.1994 103.33 32.1994C103.173 32.1994 103.034 32.2886 102.913 32.4671C102.791 32.6384 102.688 32.8525 102.602 33.1094C102.517 33.3592 102.445 33.6019 102.388 33.8374C102.331 34.0729 102.288 34.2514 102.26 34.3727C102.488 33.9802 102.749 33.6055 103.041 33.2486C103.341 32.8846 103.691 32.592 104.09 32.3707C104.14 32.3422 104.197 32.3136 104.262 32.2851C104.326 32.2494 104.383 32.2315 104.433 32.2315C104.526 32.2315 104.583 32.2744 104.604 32.36C104.626 32.4385 104.636 32.5135 104.636 32.5848C104.636 32.6776 104.604 32.8132 104.54 32.9916C104.476 33.1701 104.401 33.3485 104.315 33.5269C104.237 33.6982 104.176 33.8338 104.133 33.9338C104.09 34.048 104.04 34.1943 103.983 34.3727C103.926 34.5511 103.876 34.7296 103.833 34.908C103.791 35.0864 103.769 35.2363 103.769 35.3576C103.769 35.4076 103.776 35.4647 103.791 35.5289C103.805 35.5932 103.844 35.6253 103.908 35.6253C103.944 35.6253 103.973 35.6182 103.994 35.6039C104.023 35.5896 104.051 35.5753 104.08 35.5611C104.244 35.4683 104.401 35.3434 104.551 35.1864C104.708 35.0222 104.85 34.8473 104.979 34.6618C105.107 34.4691 105.214 34.2942 105.3 34.1372C105.307 34.1443 105.311 34.1586 105.311 34.18C105.311 34.2228 105.286 34.2871 105.236 34.3727C105.186 34.4512 105.129 34.5369 105.065 34.6296C105 34.7224 104.94 34.8045 104.883 34.8759C104.833 34.9473 104.808 34.9901 104.808 35.0044C104.801 35.0543 104.79 35.0971 104.776 35.1328C104.761 35.1614 104.743 35.2006 104.722 35.2506C104.636 35.3362 104.511 35.4433 104.347 35.5718C104.19 35.6931 104.026 35.8037 103.855 35.9036C103.691 35.9964 103.544 36.0428 103.416 36.0428C103.302 36.0428 103.223 36 103.18 35.9144C103.145 35.8216 103.127 35.7252 103.127 35.6253C103.127 35.4326 103.166 35.2042 103.245 34.9401C103.323 34.6689 103.416 34.4013 103.523 34.1372C103.63 33.866 103.719 33.6376 103.791 33.452C103.812 33.3949 103.844 33.3057 103.887 33.1844C103.937 33.063 103.962 32.9774 103.962 32.9274C103.962 32.8917 103.955 32.8525 103.94 32.8096C103.933 32.7668 103.901 32.7454 103.844 32.7454C103.773 32.7454 103.68 32.7918 103.566 32.8846C103.459 32.9774 103.377 33.0523 103.32 33.1094C103.013 33.452 102.749 33.8338 102.527 34.2549C102.306 34.6689 102.12 35.0971 101.971 35.5396C101.949 35.5967 101.935 35.6396 101.928 35.6681C101.928 35.6895 101.899 35.7181 101.842 35.7538C101.821 35.768 101.753 35.8073 101.639 35.8715C101.532 35.9358 101.428 35.9964 101.328 36.0535C101.221 36.1106 101.164 36.1392 101.157 36.1392Z" fill="#C1ACBD"/>
<path d="M21.9345 26.0344C21.3799 26.0344 20.8252 25.9691 20.2705 25.8386C19.7322 25.7081 19.2265 25.496 18.7534 25.2024C18.1661 24.8435 17.7011 24.354 17.3585 23.7341C17.016 23.1305 16.8447 22.4943 16.8447 21.8254C16.8447 21.7112 16.8691 21.646 16.9181 21.6296C16.967 21.6623 17.0078 21.7357 17.0404 21.8499C17.0731 21.9478 17.122 21.9967 17.1873 21.9967C17.2688 21.9967 17.3341 21.9396 17.383 21.8254C17.432 21.6949 17.4646 21.6133 17.4809 21.5807C17.5625 21.4013 17.6277 21.2626 17.6767 21.1647C17.7256 21.0668 17.8398 20.9608 18.0193 20.8466C18.0845 20.814 18.1905 20.765 18.3374 20.6998C18.5005 20.6345 18.6555 20.5774 18.8023 20.5285C18.9654 20.4632 19.0715 20.4306 19.1204 20.4306C19.1367 20.4306 19.1449 20.4387 19.1449 20.4551C19.1449 20.4877 19.047 20.5448 18.8513 20.6264C18.6718 20.7079 18.4842 20.8384 18.2884 21.0179C18.109 21.181 18.0193 21.4176 18.0193 21.7275C18.0193 21.7765 18.0356 21.8662 18.0682 21.9967C18.3618 23.1387 18.9328 23.9625 19.7811 24.4682C20.6294 24.9903 21.6083 25.2513 22.7176 25.2513C23.7291 25.2513 24.7323 25.08 25.7275 24.7374C26.7226 24.3948 27.6688 23.938 28.5661 23.3671C29.4633 22.8124 30.2627 22.1925 30.9642 21.5073C31.6331 20.8711 32.2856 20.2267 32.9218 19.5741C33.5744 18.9053 34.2025 18.2282 34.8061 17.5431L30.4258 17.3228C30.328 17.3228 30.2301 17.3228 30.1322 17.3228C30.0343 17.3065 29.9364 17.2984 29.8385 17.2984C29.4633 17.2984 29.0229 17.3473 28.5171 17.4452C28.0114 17.5267 27.6362 17.7307 27.3915 18.0569C27.2773 18.2201 27.1876 18.4077 27.1223 18.6198C27.0571 18.8318 26.9918 19.0358 26.9265 19.2315C26.8287 19.1989 26.7389 19.1418 26.6574 19.0602C26.5758 18.9624 26.535 18.8563 26.535 18.7421C26.535 18.5627 26.6247 18.3832 26.8042 18.2038C27 18.0243 27.212 17.8693 27.4404 17.7388C27.6688 17.592 27.8564 17.4778 28.0033 17.3962C28.5253 17.1189 29.0636 16.8905 29.6183 16.7111C30.173 16.5316 30.7521 16.4419 31.3557 16.4419C32.0735 16.4419 32.7832 16.4664 33.4847 16.5153C34.2025 16.5479 34.9121 16.5805 35.6136 16.6132C36.7229 15.3081 37.7833 13.9785 38.7948 12.6245C39.8225 11.2704 40.9319 9.98165 42.1228 8.75812C41.2255 8.3829 40.2385 8.04031 39.1618 7.73035C38.1014 7.40408 37.0166 7.15121 35.9073 6.97176C34.8142 6.776 33.7783 6.67812 32.7995 6.67812C32.2122 6.67812 31.576 6.73521 30.8908 6.84941C30.2219 6.94729 29.5938 7.14306 29.0065 7.4367C28.4193 7.71404 27.9462 8.12188 27.5873 8.66023C27.2936 9.06808 27.1468 9.54118 27.1468 10.0795C27.1468 10.7647 27.3507 11.3438 27.7585 11.8169C28.1664 12.2737 28.6721 12.6163 29.2757 12.8447C29.8793 13.0731 30.4829 13.1873 31.0865 13.1873C31.3313 13.1873 31.5596 13.1384 31.7717 13.0405C31.9838 12.9263 32.1714 12.7876 32.3345 12.6245C32.3835 12.6408 32.408 12.6734 32.408 12.7224C32.408 12.7387 32.3998 12.7631 32.3835 12.7958C32.3835 12.8121 32.3835 12.8365 32.3835 12.8692C32.1714 13.1791 31.8859 13.3912 31.527 13.5054C31.1681 13.6033 30.8092 13.6522 30.4503 13.6522C29.7651 13.6522 29.0963 13.5217 28.4437 13.2607C27.8075 12.9997 27.2773 12.6082 26.8531 12.0861C26.4453 11.5641 26.2414 10.9197 26.2414 10.1529C26.2414 9.82667 26.2822 9.51671 26.3637 9.22306C26.4616 8.9131 26.5921 8.61945 26.7553 8.34212C27.1468 7.68957 27.6688 7.18384 28.3214 6.82494C28.9739 6.46604 29.6754 6.21318 30.4258 6.06635C31.1763 5.90321 31.9022 5.82165 32.6037 5.82165C33.6967 5.82165 34.8224 5.944 35.9807 6.1887C37.1389 6.43341 38.2809 6.75153 39.4065 7.14306C40.5485 7.51827 41.6171 7.9098 42.6122 8.31765C42.7753 8.18714 42.9793 8.04847 43.224 7.90165C43.4687 7.73851 43.6971 7.65694 43.9091 7.65694C44.1375 7.65694 44.317 7.73035 44.4475 7.87718C44.578 8.00769 44.6433 8.18714 44.6433 8.41553C44.6433 8.48078 44.6351 8.5542 44.6188 8.63576C44.6025 8.70102 44.5862 8.77443 44.5698 8.856C44.5209 9.13333 44.4556 9.31278 44.3741 9.39435C44.2925 9.47592 44.2028 9.54118 44.1049 9.59012C44.0233 9.62274 43.9173 9.7451 43.7868 9.95717C43.5421 10.365 43.2566 10.9686 42.9303 11.768C42.6204 12.5511 42.3022 13.432 41.976 14.4108C41.6497 15.3733 41.3479 16.3522 41.0705 17.3473C40.7932 18.3261 40.5648 19.2315 40.3854 20.0635C40.2222 20.8955 40.1407 21.5644 40.1407 22.0701C40.1407 22.2822 40.157 22.5106 40.1896 22.7553C40.2385 23 40.3283 23.2039 40.4588 23.3671C40.6056 23.5465 40.8177 23.6362 41.095 23.6362C41.3234 23.6362 41.5192 23.571 41.6823 23.4405C41.8454 23.3263 42.0004 23.1876 42.1473 23.0245C42.1962 22.9918 42.2207 23.0163 42.2207 23.0979V23.1468C42.2207 23.3915 42.0738 23.6036 41.7802 23.7831C41.5029 23.9788 41.1847 24.1256 40.8258 24.2235C40.4833 24.3214 40.2059 24.3704 39.9938 24.3704C39.4392 24.3704 39.0966 24.1909 38.9661 23.832C38.8356 23.4894 38.7703 23.0816 38.7703 22.6085C38.7703 22.0049 38.8356 21.3442 38.9661 20.6264C39.0966 19.9085 39.2597 19.1989 39.4555 18.4974C39.6676 17.7796 39.8715 17.1271 40.0673 16.5398L39.0395 17.5186C38.7132 17.5512 38.3869 17.5757 38.0607 17.592C37.7344 17.592 37.4081 17.592 37.0818 17.592C36.8208 17.592 36.5598 17.592 36.2988 17.592C36.0541 17.592 35.8012 17.5838 35.5402 17.5675C34.7245 18.4811 33.8925 19.3947 33.0442 20.3082C32.1959 21.2218 31.266 22.0293 30.2545 22.7308C29.4878 23.2692 28.6395 23.7912 27.7096 24.2969C26.796 24.8027 25.8498 25.2187 24.871 25.5449C23.8922 25.8712 22.9134 26.0344 21.9345 26.0344ZM38.2809 16.7355C38.5909 16.7355 38.8927 16.7274 39.1863 16.7111C39.48 16.6784 39.7736 16.6213 40.0673 16.5398C40.524 15.202 41.0298 13.8888 41.5844 12.6C42.1554 11.3112 42.653 9.99796 43.0771 8.66023L36.3233 16.6621C36.6495 16.6784 36.9758 16.6947 37.3021 16.7111C37.6284 16.7274 37.9546 16.7355 38.2809 16.7355Z" fill="#C1ACBD"/>
<path d="M75.2315 24.2969C73.437 24.2969 71.9932 23.8483 70.9002 22.9511C69.8235 22.0538 69.2851 20.6671 69.2851 18.7911C69.2851 17.3555 69.5706 15.9933 70.1416 14.7045C70.7126 13.3994 71.4712 12.2085 72.4174 11.1318C73.3799 10.0551 74.4403 9.13333 75.5985 8.36659C74.9623 8.28502 74.3179 8.20345 73.6654 8.12188C73.0128 8.04031 72.3684 7.99953 71.7322 7.99953C70.9981 7.99953 70.3374 8.09741 69.7501 8.29318C69.1791 8.48894 68.6407 8.86416 68.135 9.41882C67.9882 9.58196 67.874 9.72878 67.7924 9.85929C67.7108 9.9898 67.6701 10.1693 67.6701 10.3976C67.6701 10.7729 67.7353 11.042 67.8658 11.2052C67.9963 11.3683 68.1513 11.4744 68.3308 11.5233C68.5102 11.5722 68.6815 11.6049 68.8446 11.6212C69.0078 11.6375 69.1138 11.6864 69.1628 11.768C69.1465 11.8169 69.0894 11.8577 68.9915 11.8904C68.8936 11.9067 68.812 11.9148 68.7468 11.9148C68.5021 11.9148 68.29 11.8577 68.1105 11.7435C67.9474 11.6293 67.8006 11.5233 67.6701 11.4254C67.5559 11.3112 67.4498 11.2541 67.3519 11.2541C67.3193 11.2541 67.2867 11.2704 67.2541 11.3031C67.2377 11.3357 67.2051 11.352 67.1562 11.352C67.0257 11.352 66.9523 11.2623 66.9359 11.0828C66.9196 10.8871 66.9115 10.7565 66.9115 10.6913C66.9115 10.5118 66.9849 10.3079 67.1317 10.0795C67.2785 9.85114 67.409 9.67169 67.5232 9.54118C68.2247 8.69286 68.9752 8.09741 69.7745 7.75482C70.5902 7.41223 71.5364 7.24094 72.6131 7.24094C73.3146 7.24094 74.0079 7.28988 74.6931 7.38776C75.3783 7.46933 76.0635 7.56721 76.7486 7.68141C77.548 7.24094 78.3963 6.91467 79.2936 6.70259C80.1908 6.4742 81.0881 6.36 81.9854 6.36C82.5074 6.36 83.0539 6.4171 83.6249 6.53129C84.1959 6.62917 84.7261 6.80047 85.2155 7.04518C85.7212 7.28988 86.129 7.62431 86.439 8.04847C86.749 8.47263 86.9039 9.00282 86.9039 9.63906C86.9039 10.1448 86.8142 10.6424 86.6348 11.1318C86.6348 11.197 86.6185 11.2541 86.5858 11.3031C86.5695 11.3357 86.545 11.3765 86.5124 11.4254C86.3982 11.6375 86.284 11.8333 86.1698 12.0127C86.0719 12.1758 85.8762 12.2574 85.5825 12.2574C85.3705 12.2574 85.2644 12.1432 85.2644 11.9148C85.2644 11.8333 85.2644 11.7517 85.2644 11.6701C85.2807 11.5722 85.297 11.4907 85.3134 11.4254C84.0083 10.7076 82.589 10.1122 81.0555 9.63906C79.5383 9.14965 78.0456 8.77443 76.5774 8.51341C75.8269 9.06808 75.101 9.72878 74.3995 10.4955C73.698 11.2623 73.0617 12.1024 72.4908 13.016C71.9361 13.9133 71.4956 14.8513 71.1694 15.8301C70.8431 16.8089 70.6799 17.7796 70.6799 18.7421C70.6799 19.8351 70.9246 20.7487 71.4141 21.4828C71.9035 22.2169 72.5642 22.7635 73.3962 23.1224C74.2282 23.4813 75.1662 23.6607 76.2103 23.6607C77.1076 23.6607 78.013 23.522 78.9265 23.2447C79.8564 22.9837 80.7374 22.6166 81.5694 22.1435C82.4014 21.6541 83.1273 21.0913 83.7472 20.4551C84.1877 19.9983 84.6363 19.4599 85.0931 18.84C85.5662 18.2201 85.9251 17.6083 86.1698 17.0047C86.1698 16.9884 86.1861 16.9395 86.2188 16.8579C86.2677 16.7763 86.3003 16.7355 86.3166 16.7355C86.3493 16.7355 86.3656 16.7845 86.3656 16.8824C86.3819 16.9802 86.3901 17.0373 86.3901 17.0536C86.3901 17.1352 86.3819 17.3228 86.3656 17.6165C86.3656 17.8938 86.3493 18.0733 86.3166 18.1548C86.0883 18.8726 85.6478 19.5578 84.9952 20.2104C84.359 20.8466 83.6167 21.4257 82.7684 21.9478C81.9364 22.4698 81.0799 22.9103 80.199 23.2692C79.3344 23.6281 78.5513 23.8809 77.8498 24.0278C77.4257 24.1093 76.9934 24.1746 76.5529 24.2235C76.1124 24.2725 75.6719 24.2969 75.2315 24.2969ZM85.5091 10.3487C85.5254 10.2508 85.5336 10.1529 85.5336 10.0551C85.5499 9.95718 85.5581 9.85114 85.5581 9.73694C85.5581 9.00282 85.3541 8.43184 84.9463 8.024C84.5385 7.59984 84.0327 7.3062 83.4291 7.14306C82.8255 6.96361 82.2137 6.87388 81.5938 6.87388C80.9413 6.87388 80.2643 6.95545 79.5628 7.11859C78.8613 7.26541 78.2169 7.50196 77.6296 7.82823C78.9836 8.08925 80.3214 8.43184 81.6428 8.856C82.9642 9.28016 84.253 9.77772 85.5091 10.3487Z" fill="#C1ACBD"/>
<path d="M55.4837 24.1501C54.717 24.1501 53.9666 24.1012 53.2324 24.0033C53.1998 24.0033 53.1835 23.987 53.1835 23.9544C53.1835 23.8728 53.2569 23.7423 53.4037 23.5628C53.5669 23.3834 53.7382 23.2121 53.9176 23.0489C54.1134 22.9021 54.252 22.8287 54.3336 22.8287C54.4641 22.8287 54.6028 22.845 54.7496 22.8776C54.9127 22.894 55.0677 22.9103 55.2146 22.9266C55.5408 22.9592 55.8753 22.9837 56.2178 23C56.5604 23.0326 56.903 23.0489 57.2456 23.0489C57.8166 23.0489 58.4039 23 59.0075 22.9021C59.6274 22.7879 60.1658 22.5514 60.6226 22.1925C61.0141 21.8662 61.4056 21.4665 61.7971 20.9934C62.205 20.5203 62.4089 20.0146 62.4089 19.4762C62.4089 18.9216 62.205 18.4566 61.7971 18.0814C61.4056 17.7062 60.908 17.4125 60.3044 17.2005C59.7008 16.9721 59.0972 16.8171 58.4936 16.7355C57.89 16.6376 57.3761 16.5887 56.952 16.5887C56.6909 16.5887 56.4381 16.605 56.1934 16.6376C55.9487 16.6703 55.6958 16.7029 55.4348 16.7355H55.3858C55.3206 16.7355 55.288 16.7029 55.288 16.6376C55.288 16.5561 55.3369 16.4419 55.4348 16.2951C55.549 16.1319 55.6713 15.9851 55.8018 15.8546C55.9487 15.7241 56.0547 15.6588 56.12 15.6588C56.7399 15.6588 57.3924 15.5854 58.0776 15.4386C58.7791 15.2918 59.4643 15.0878 60.1331 14.8268C60.802 14.5658 61.3893 14.2722 61.895 13.9459C62.2866 13.7012 62.7352 13.3831 63.2409 12.9915C63.7629 12.6 64.2116 12.1677 64.5868 11.6946C64.962 11.2052 65.1496 10.6995 65.1496 10.1774C65.1496 9.63906 64.9457 9.18227 64.5378 8.80706C64.1463 8.41553 63.6569 8.08925 63.0696 7.82823C62.4823 7.56721 61.8869 7.36329 61.2833 7.21647C60.696 7.05333 60.1984 6.93914 59.7906 6.87388C59.2359 6.79231 58.6812 6.73521 58.1266 6.70259C57.5882 6.65365 57.0335 6.62918 56.4626 6.62918C55.7937 6.62918 55.0433 6.67812 54.2113 6.776C53.3793 6.85757 52.5309 7.00439 51.6663 7.21647C50.818 7.41223 50.0105 7.68957 49.2437 8.04847C48.477 8.40737 47.8163 8.86416 47.2616 9.41882C46.7069 9.95718 46.3317 10.6097 46.136 11.3765C46.087 11.5885 46.0626 11.8088 46.0626 12.0372C46.0626 12.445 46.1441 12.8284 46.3073 13.1873C46.4704 13.5299 46.7559 13.7746 47.1637 13.9214H47.2371C47.3677 13.9214 47.49 13.9133 47.6042 13.8969C47.7347 13.8643 47.8571 13.848 47.9713 13.848C47.9876 13.848 48.0202 13.8562 48.0691 13.8725C48.1181 13.8725 48.1426 13.8888 48.1426 13.9214C48.1426 14.0356 48.0528 14.1253 47.8734 14.1906C47.6939 14.2395 47.5634 14.264 47.4818 14.264C47.2045 14.264 46.968 14.1987 46.7722 14.0682C46.5764 13.9377 46.4215 13.8725 46.3073 13.8725C46.2909 13.8725 46.2746 13.8806 46.2583 13.8969C46.242 13.8969 46.2338 13.8969 46.2338 13.8969C46.2012 13.9296 46.1767 13.9704 46.1604 14.0193C46.1441 14.0682 46.1033 14.0927 46.0381 14.0927C45.9402 14.0927 45.8505 14.0111 45.7689 13.848C45.6873 13.6685 45.6221 13.4728 45.5731 13.2607C45.5242 13.0486 45.4997 12.9018 45.4997 12.8202C45.4997 12.4776 45.5405 12.1187 45.6221 11.7435C45.8342 10.8136 46.2338 10.0061 46.8211 9.32094C47.4247 8.61945 48.1507 8.024 48.999 7.53459C49.8473 7.04517 50.7527 6.65365 51.7153 6.36C52.6778 6.06635 53.6403 5.85427 54.6028 5.72376C55.5816 5.57694 56.487 5.50353 57.319 5.50353C58.5099 5.50353 59.6764 5.62588 60.8183 5.87059C61.3077 5.96847 61.8542 6.12345 62.4578 6.33553C63.0615 6.54761 63.6406 6.81678 64.1953 7.14306C64.7499 7.46933 65.2067 7.86902 65.5656 8.34212C65.9408 8.7989 66.1284 9.3291 66.1284 9.9327C66.1284 10.5689 65.9245 11.1644 65.5167 11.7191C65.1088 12.2574 64.6194 12.7387 64.0484 13.1628C63.4938 13.587 62.9717 13.9459 62.4823 14.2395C62.3192 14.3374 62.0826 14.4761 61.7727 14.6555C61.479 14.8187 61.1527 14.9981 60.7938 15.1939C60.4349 15.3733 60.1005 15.5283 59.7906 15.6588C59.4969 15.773 59.2685 15.8301 59.1054 15.8301C59.5785 15.8464 60.076 15.9117 60.5981 16.0259C61.1364 16.1401 61.634 16.3195 62.0908 16.5642C62.5639 16.8089 62.9473 17.1352 63.2409 17.5431C63.5346 17.9346 63.6814 18.424 63.6814 19.0113C63.6814 19.5496 63.5346 20.0472 63.2409 20.504C62.9636 20.9445 62.6128 21.3278 62.1887 21.6541C61.1283 22.4535 60.0842 23.0653 59.0564 23.4894C58.0287 23.9299 56.8378 24.1501 55.4837 24.1501ZM45.5731 26.2546C45.3937 26.2546 45.1816 26.2464 44.9369 26.2301C44.6922 26.2138 44.4964 26.1649 44.3496 26.0833C44.2844 26.0344 44.162 25.9528 43.9826 25.8386C43.8031 25.7407 43.7134 25.6428 43.7134 25.5449C43.7134 25.4307 43.7623 25.3736 43.8602 25.3736C43.9418 25.39 43.9826 25.3329 43.9826 25.2024C43.9826 25.0718 43.9581 24.9413 43.9091 24.8108C43.8602 24.6803 43.8357 24.5498 43.8357 24.4193C43.8357 24.2725 43.8765 24.0685 43.9581 23.8075C44.0397 23.5628 44.1702 23.4405 44.3496 23.4405C44.3986 23.4405 44.423 23.4649 44.423 23.5139C44.423 23.677 44.3822 23.832 44.3007 23.9788C44.2028 24.1256 44.1538 24.2725 44.1538 24.4193C44.1538 24.6477 44.2517 24.8679 44.4475 25.08C44.6269 25.2921 44.8553 25.4634 45.1327 25.5939C45.3937 25.7407 45.6302 25.8141 45.8423 25.8141C45.9239 25.8141 46.0136 25.8141 46.1115 25.8141C46.2094 25.8141 46.2991 25.806 46.3807 25.7896C47.2127 25.6755 47.9957 25.2676 48.7298 24.5661C49.464 23.8809 50.141 23.0082 50.7609 21.9478C51.3971 20.8711 51.9763 19.7128 52.4983 18.4729C53.0367 17.2168 53.5179 15.9688 53.9421 14.7289C54.3826 13.4891 54.7659 12.339 55.0922 11.2786C55.4185 10.2182 55.6877 9.36172 55.8997 8.70917C55.9813 8.44816 56.071 8.24423 56.1689 8.09741C56.2668 7.93427 56.4218 7.77114 56.6338 7.608C56.9275 7.37961 57.2701 7.21647 57.6616 7.11859C58.0531 7.00439 58.4284 6.94729 58.7873 6.94729C58.8199 6.94729 58.8688 6.95545 58.9341 6.97176C59.0157 6.98808 59.0564 7.0207 59.0564 7.06965C59.0564 7.1349 58.9993 7.18384 58.8851 7.21647C58.7709 7.23278 58.6975 7.24094 58.6649 7.24094C58.4365 7.24094 58.1918 7.42855 57.9308 7.80376C57.6698 8.17898 57.4087 8.65208 57.1477 9.22306C56.8867 9.79404 56.642 10.3895 56.4136 11.0094C56.1852 11.613 55.9895 12.1595 55.8263 12.6489C55.6632 13.1384 55.549 13.4728 55.4837 13.6522C55.2717 14.2558 55.0596 14.8595 54.8475 15.4631C54.6354 16.0504 54.4152 16.6376 54.1868 17.2249C53.9421 17.9101 53.6811 18.5953 53.4037 19.2805C53.1264 19.9493 52.8083 20.6019 52.4494 21.2381C51.9437 22.1517 51.4053 22.9837 50.8343 23.7341C50.2797 24.5009 49.6108 25.1045 48.8277 25.5449C48.061 26.0017 47.0903 26.2383 45.9157 26.2546H45.5731Z" fill="#C1ACBD"/>
</svg>
