<svg width="70" height="26" viewBox="0 0 70 26" fill="none" xmlns="http://www.w3.org/2000/svg">
<path d="M2.41721 23.868C2.25854 23.868 2.09988 23.8493 1.94121 23.812C1.78721 23.7747 1.64254 23.714 1.50721 23.63C1.33921 23.5273 1.20621 23.3873 1.10821 23.21C1.01021 23.0373 0.961211 22.8553 0.961211 22.664C0.961211 22.6313 0.968211 22.6127 0.982211 22.608C0.996211 22.6173 1.00788 22.6383 1.01721 22.671C1.02654 22.699 1.04054 22.713 1.05921 22.713C1.08254 22.713 1.10121 22.6967 1.11521 22.664C1.12921 22.6267 1.13854 22.6033 1.14321 22.594C1.16654 22.5427 1.18521 22.503 1.19921 22.475C1.21321 22.447 1.24588 22.4167 1.29721 22.384C1.31588 22.3747 1.34621 22.3607 1.38821 22.342C1.43488 22.3233 1.47921 22.307 1.52121 22.293C1.56788 22.2743 1.59821 22.265 1.61221 22.265C1.61688 22.265 1.61921 22.2673 1.61921 22.272C1.61921 22.2813 1.59121 22.2977 1.53521 22.321C1.48388 22.3443 1.43021 22.3817 1.37421 22.433C1.32288 22.4797 1.29721 22.5473 1.29721 22.636C1.29721 22.65 1.30188 22.6757 1.31121 22.713C1.39521 23.0397 1.55854 23.2753 1.80121 23.42C2.04388 23.5693 2.32388 23.644 2.64121 23.644C2.93054 23.644 3.21754 23.595 3.50221 23.497C3.78688 23.399 4.05754 23.2683 4.31421 23.105C4.57088 22.9463 4.79954 22.769 5.00021 22.573C5.19154 22.391 5.37821 22.2067 5.56021 22.02C5.74688 21.8287 5.92654 21.635 6.09921 21.439L4.84621 21.376C4.81821 21.376 4.79021 21.376 4.76221 21.376C4.73421 21.3713 4.70621 21.369 4.67821 21.369C4.57088 21.369 4.44488 21.383 4.30021 21.411C4.15554 21.4343 4.04821 21.4927 3.97821 21.586C3.94554 21.6327 3.91988 21.6863 3.90121 21.747C3.88254 21.8077 3.86388 21.866 3.84521 21.922C3.81721 21.9127 3.79154 21.8963 3.76821 21.873C3.74488 21.845 3.73321 21.8147 3.73321 21.782C3.73321 21.7307 3.75888 21.6793 3.81021 21.628C3.86621 21.5767 3.92688 21.5323 3.99221 21.495C4.05754 21.453 4.11121 21.4203 4.15321 21.397C4.30254 21.3177 4.45654 21.2523 4.61521 21.201C4.77388 21.1497 4.93954 21.124 5.11221 21.124C5.31754 21.124 5.52054 21.131 5.72121 21.145C5.92654 21.1543 6.12954 21.1637 6.33021 21.173C6.64754 20.7997 6.95088 20.4193 7.24021 20.032C7.53421 19.6447 7.85154 19.276 8.19221 18.926C7.93554 18.8187 7.65321 18.7207 7.34521 18.632C7.04188 18.5387 6.73154 18.4663 6.41421 18.415C6.10154 18.359 5.80521 18.331 5.52521 18.331C5.35721 18.331 5.17521 18.3473 4.97921 18.38C4.78788 18.408 4.60821 18.464 4.44021 18.548C4.27221 18.6273 4.13688 18.744 4.03421 18.898C3.95021 19.0147 3.90821 19.15 3.90821 19.304C3.90821 19.5 3.96654 19.6657 4.08321 19.801C4.19988 19.9317 4.34454 20.0297 4.51721 20.095C4.68988 20.1603 4.86254 20.193 5.03521 20.193C5.10521 20.193 5.17054 20.179 5.23121 20.151C5.29188 20.1183 5.34554 20.0787 5.39221 20.032C5.40621 20.0367 5.41321 20.046 5.41321 20.06C5.41321 20.0647 5.41088 20.0717 5.40621 20.081C5.40621 20.0857 5.40621 20.0927 5.40621 20.102C5.34554 20.1907 5.26388 20.2513 5.16121 20.284C5.05854 20.312 4.95588 20.326 4.85321 20.326C4.65721 20.326 4.46588 20.2887 4.27921 20.214C4.09721 20.1393 3.94554 20.0273 3.82421 19.878C3.70754 19.7287 3.64921 19.5443 3.64921 19.325C3.64921 19.2317 3.66088 19.143 3.68421 19.059C3.71221 18.9703 3.74954 18.8863 3.79621 18.807C3.90821 18.6203 4.05754 18.4757 4.24421 18.373C4.43088 18.2703 4.63154 18.198 4.84621 18.156C5.06088 18.1093 5.26854 18.086 5.46921 18.086C5.78188 18.086 6.10388 18.121 6.43521 18.191C6.76654 18.261 7.09321 18.352 7.41521 18.464C7.74188 18.5713 8.04754 18.6833 8.33221 18.8C8.37888 18.7627 8.43721 18.723 8.50721 18.681C8.57721 18.6343 8.64254 18.611 8.70321 18.611C8.76854 18.611 8.81988 18.632 8.85721 18.674C8.89454 18.7113 8.91321 18.7627 8.91321 18.828C8.91321 18.8467 8.91088 18.8677 8.90621 18.891C8.90154 18.9097 8.89688 18.9307 8.89221 18.954C8.87821 19.0333 8.85954 19.0847 8.83621 19.108C8.81288 19.1313 8.78721 19.15 8.75921 19.164C8.73588 19.1733 8.70554 19.2083 8.66821 19.269C8.59821 19.3857 8.51654 19.5583 8.42321 19.787C8.33454 20.011 8.24354 20.263 8.15021 20.543C8.05688 20.8183 7.97054 21.0983 7.89121 21.383C7.81188 21.663 7.74654 21.922 7.69521 22.16C7.64854 22.398 7.62521 22.5893 7.62521 22.734C7.62521 22.7947 7.62988 22.86 7.63921 22.93C7.65321 23 7.67888 23.0583 7.71621 23.105C7.75821 23.1563 7.81888 23.182 7.89821 23.182C7.96354 23.182 8.01954 23.1633 8.06621 23.126C8.11288 23.0933 8.15721 23.0537 8.19921 23.007C8.21321 22.9977 8.22021 23.0047 8.22021 23.028V23.042C8.22021 23.112 8.17821 23.1727 8.09421 23.224C8.01488 23.28 7.92388 23.322 7.82121 23.35C7.72321 23.378 7.64388 23.392 7.58321 23.392C7.42454 23.392 7.32654 23.3407 7.28921 23.238C7.25188 23.14 7.23321 23.0233 7.23321 22.888C7.23321 22.7153 7.25188 22.5263 7.28921 22.321C7.32654 22.1157 7.37321 21.9127 7.42921 21.712C7.48988 21.5067 7.54821 21.32 7.60421 21.152L7.31021 21.432C7.21688 21.4413 7.12354 21.4483 7.03021 21.453C6.93688 21.453 6.84354 21.453 6.75021 21.453C6.67554 21.453 6.60088 21.453 6.52621 21.453C6.45621 21.453 6.38388 21.4507 6.30921 21.446C6.07588 21.7073 5.83788 21.9687 5.59521 22.23C5.35254 22.4913 5.08654 22.7223 4.79721 22.923C4.57788 23.077 4.33521 23.2263 4.06921 23.371C3.80788 23.5157 3.53721 23.6347 3.25721 23.728C2.97721 23.8213 2.69721 23.868 2.41721 23.868ZM7.09321 21.208C7.18188 21.208 7.26821 21.2057 7.35221 21.201C7.43621 21.1917 7.52021 21.1753 7.60421 21.152C7.73488 20.7693 7.87954 20.3937 8.03821 20.025C8.20154 19.6563 8.34388 19.2807 8.46521 18.898L6.53321 21.187C6.62654 21.1917 6.71988 21.1963 6.81321 21.201C6.90654 21.2057 6.99988 21.208 7.09321 21.208ZM7.59426 24.946C7.56626 24.946 7.51259 24.9343 7.43326 24.911C7.35392 24.8877 7.28159 24.8573 7.21626 24.82C7.14626 24.7827 7.11126 24.7453 7.11126 24.708C7.11126 24.6987 7.12059 24.694 7.13926 24.694C7.16726 24.7033 7.18826 24.708 7.20226 24.708C7.20692 24.708 7.21859 24.7033 7.23726 24.694C7.21859 24.666 7.20926 24.638 7.20926 24.61C7.20926 24.5867 7.21626 24.5727 7.23026 24.568C7.22092 24.54 7.20926 24.512 7.19526 24.484C7.18126 24.4607 7.16726 24.435 7.15326 24.407C7.14392 24.3883 7.12292 24.358 7.09026 24.316C7.05759 24.2787 7.04126 24.2507 7.04126 24.232C7.04126 24.218 7.04592 24.197 7.05526 24.169C7.15326 24.3043 7.23726 24.4117 7.30726 24.491C7.37726 24.5703 7.46126 24.6263 7.55926 24.659C7.65726 24.6963 7.79492 24.715 7.97226 24.715C8.17759 24.715 8.36892 24.6403 8.54626 24.491C8.72826 24.3417 8.89159 24.148 9.03626 23.91C9.18559 23.6767 9.31626 23.4247 9.42826 23.154C9.54492 22.8833 9.64292 22.6243 9.72226 22.377C9.80626 22.125 9.86926 21.9173 9.91126 21.754C9.85526 21.8287 9.77359 21.936 9.66626 22.076C9.55892 22.216 9.43992 22.3583 9.30926 22.503C9.17859 22.643 9.04792 22.7643 8.91726 22.867C8.79126 22.965 8.67926 23.014 8.58126 23.014C8.50659 23.014 8.45759 22.986 8.43426 22.93C8.41559 22.8693 8.40626 22.8087 8.40626 22.748C8.40626 22.5333 8.44826 22.3 8.53226 22.048C8.61626 21.7913 8.72592 21.5463 8.86126 21.313C8.99659 21.0797 9.14359 20.8907 9.30226 20.746C9.47959 20.592 9.67792 20.515 9.89726 20.515C9.99059 20.515 10.0816 20.5267 10.1703 20.55C10.2636 20.5687 10.3546 20.5967 10.4433 20.634C10.5226 20.578 10.6089 20.529 10.7023 20.487C10.7956 20.445 10.8913 20.424 10.9893 20.424C11.0126 20.424 11.0313 20.438 11.0453 20.466V20.487C11.0406 20.501 11.0336 20.508 11.0243 20.508C11.0149 20.5033 11.0056 20.501 10.9963 20.501C10.9076 20.501 10.8236 20.55 10.7443 20.648C10.6696 20.746 10.6019 20.8673 10.5413 21.012C10.4806 21.152 10.4293 21.2873 10.3873 21.418C10.3453 21.5487 10.3149 21.6467 10.2963 21.712C10.1936 22.0807 10.0653 22.4563 9.91126 22.839C9.76192 23.217 9.56592 23.56 9.32326 23.868C9.26726 23.938 9.20892 24.0057 9.14826 24.071C9.08759 24.141 9.02459 24.2087 8.95926 24.274C8.77726 24.4607 8.57192 24.6193 8.34326 24.75C8.11459 24.8807 7.86492 24.946 7.59426 24.946ZM8.88926 22.713C8.94059 22.713 9.00359 22.6803 9.07826 22.615C9.15759 22.545 9.23926 22.4633 9.32326 22.37C9.41192 22.272 9.48892 22.1787 9.55426 22.09C9.62426 22.0013 9.67326 21.936 9.70126 21.894C9.75726 21.81 9.82026 21.705 9.89026 21.579C9.96492 21.453 10.0279 21.3223 10.0793 21.187C10.1353 21.0517 10.1633 20.9373 10.1633 20.844C10.1633 20.6993 10.0909 20.627 9.94626 20.627C9.86226 20.627 9.77359 20.6643 9.68026 20.739C9.58692 20.8137 9.51226 20.8813 9.45626 20.942C9.39559 21.0167 9.32559 21.124 9.24626 21.264C9.17159 21.404 9.10159 21.5557 9.03626 21.719C8.97092 21.8823 8.91492 22.0387 8.86826 22.188C8.82626 22.3373 8.80526 22.461 8.80526 22.559C8.80526 22.587 8.80992 22.6197 8.81926 22.657C8.83326 22.6943 8.85659 22.713 8.88926 22.713ZM10.8873 23.035C10.7986 23.035 10.7356 23.0117 10.6983 22.965C10.6656 22.9137 10.6493 22.825 10.6493 22.699C10.6493 22.517 10.6726 22.3257 10.7193 22.125C10.7659 21.9243 10.8289 21.7307 10.9083 21.544C10.9876 21.3527 11.0763 21.187 11.1743 21.047C11.2489 20.9443 11.3493 20.8487 11.4753 20.76C11.6013 20.6713 11.7366 20.599 11.8813 20.543C12.0259 20.487 12.1613 20.459 12.2873 20.459C12.3293 20.459 12.3806 20.466 12.4413 20.48C12.5019 20.4893 12.5486 20.508 12.5813 20.536C12.6046 20.5547 12.6186 20.5803 12.6233 20.613C12.6326 20.6457 12.6373 20.676 12.6373 20.704C12.6373 20.8253 12.6163 20.9677 12.5743 21.131C12.5369 21.2897 12.4856 21.453 12.4203 21.621C12.3549 21.789 12.2849 21.9477 12.2103 22.097C12.1356 22.2417 12.0609 22.363 11.9863 22.461C11.9443 22.517 11.8766 22.58 11.7833 22.65C11.6899 22.7153 11.5873 22.7783 11.4753 22.839C11.3679 22.895 11.2606 22.9417 11.1533 22.979C11.0459 23.0163 10.9573 23.035 10.8873 23.035ZM11.0763 22.839C11.2956 22.7923 11.4729 22.6873 11.6083 22.524C11.7156 22.398 11.8159 22.2323 11.9093 22.027C12.0026 21.8217 12.0773 21.6093 12.1333 21.39C12.1939 21.1707 12.2243 20.9793 12.2243 20.816C12.2243 20.802 12.2219 20.7787 12.2173 20.746C12.2173 20.7133 12.2103 20.6947 12.1963 20.69C12.1403 20.662 12.0773 20.648 12.0073 20.648C11.9606 20.648 11.8999 20.6643 11.8253 20.697C11.7506 20.725 11.6946 20.7577 11.6573 20.795C11.6339 20.8183 11.6106 20.851 11.5873 20.893C11.5686 20.9303 11.5499 20.963 11.5313 20.991C11.4426 21.131 11.3563 21.2943 11.2723 21.481C11.1929 21.6677 11.1276 21.859 11.0763 22.055C11.0249 22.251 10.9993 22.4353 10.9993 22.608C10.9993 22.664 11.0039 22.7153 11.0133 22.762C11.0273 22.804 11.0483 22.8297 11.0763 22.839ZM12.3729 23.091C12.3635 23.091 12.3589 23.0887 12.3589 23.084C12.3589 23.0653 12.3682 23.0467 12.3869 23.028C12.4009 23.014 12.4125 23 12.4219 22.986C12.4639 22.916 12.5105 22.797 12.5619 22.629C12.6179 22.4563 12.6715 22.2673 12.7229 22.062C12.7789 21.8567 12.8279 21.6653 12.8699 21.488C12.9165 21.306 12.9492 21.1683 12.9679 21.075C12.9772 21.0377 12.9865 20.9887 12.9959 20.928C13.0099 20.8673 13.0262 20.8067 13.0449 20.746C13.0635 20.6853 13.0845 20.6457 13.1079 20.627C13.1499 20.5897 13.2129 20.557 13.2969 20.529C13.3809 20.501 13.4649 20.48 13.5489 20.466C13.6375 20.4473 13.7099 20.438 13.7659 20.438C13.7752 20.438 13.7869 20.4427 13.8009 20.452C13.8149 20.4613 13.8242 20.4707 13.8289 20.48L13.8359 20.501C13.8312 20.515 13.8242 20.522 13.8149 20.522C13.8055 20.5173 13.7962 20.515 13.7869 20.515C13.6982 20.515 13.6165 20.5663 13.5419 20.669C13.4672 20.767 13.4019 20.8883 13.3459 21.033C13.2899 21.1777 13.2409 21.3177 13.1989 21.453C13.1615 21.5837 13.1359 21.6817 13.1219 21.747C13.1685 21.6397 13.2292 21.5183 13.3039 21.383C13.3832 21.243 13.4742 21.11 13.5769 20.984C13.6795 20.8533 13.7915 20.746 13.9129 20.662C14.0342 20.5733 14.1625 20.529 14.2979 20.529C14.3165 20.529 14.3469 20.5337 14.3889 20.543C14.4355 20.5477 14.4775 20.5593 14.5149 20.578C14.5569 20.592 14.5779 20.6107 14.5779 20.634L14.5709 20.641H14.5639L14.5219 20.627C14.5359 20.6597 14.5452 20.6923 14.5499 20.725C14.5545 20.7577 14.5569 20.7903 14.5569 20.823C14.5569 20.851 14.5475 20.9117 14.5289 21.005C14.5149 21.0983 14.4939 21.187 14.4659 21.271C14.4425 21.3503 14.4169 21.39 14.3889 21.39C14.3702 21.39 14.3609 21.383 14.3609 21.369C14.3609 21.3457 14.3679 21.3083 14.3819 21.257C14.4005 21.201 14.4099 21.1497 14.4099 21.103C14.4099 21.019 14.3889 20.9513 14.3469 20.9C14.3049 20.8487 14.2419 20.823 14.1579 20.823C14.0179 20.823 13.8825 20.8837 13.7519 21.005C13.6212 21.1217 13.5022 21.2687 13.3949 21.446C13.2875 21.6187 13.1965 21.7937 13.1219 21.971C13.0472 22.1483 12.9959 22.293 12.9679 22.405C12.9492 22.4657 12.9329 22.545 12.9189 22.643C12.9049 22.7363 12.8699 22.8017 12.8139 22.839C12.7999 22.8437 12.7555 22.867 12.6809 22.909C12.6109 22.951 12.5432 22.9907 12.4779 23.028C12.4079 23.07 12.3729 23.091 12.3729 23.091ZM14.5923 23.035C14.5037 23.035 14.4407 23.0117 14.4033 22.965C14.3707 22.9137 14.3543 22.825 14.3543 22.699C14.3543 22.517 14.3777 22.3257 14.4243 22.125C14.471 21.9243 14.534 21.7307 14.6133 21.544C14.6927 21.3527 14.7813 21.187 14.8793 21.047C14.954 20.9443 15.0543 20.8487 15.1803 20.76C15.3063 20.6713 15.4417 20.599 15.5863 20.543C15.731 20.487 15.8663 20.459 15.9923 20.459C16.0343 20.459 16.0857 20.466 16.1463 20.48C16.207 20.4893 16.2537 20.508 16.2863 20.536C16.3097 20.5547 16.3237 20.5803 16.3283 20.613C16.3377 20.6457 16.3423 20.676 16.3423 20.704C16.3423 20.8253 16.3213 20.9677 16.2793 21.131C16.242 21.2897 16.1907 21.453 16.1253 21.621C16.06 21.789 15.99 21.9477 15.9153 22.097C15.8407 22.2417 15.766 22.363 15.6913 22.461C15.6493 22.517 15.5817 22.58 15.4883 22.65C15.395 22.7153 15.2923 22.7783 15.1803 22.839C15.073 22.895 14.9657 22.9417 14.8583 22.979C14.751 23.0163 14.6623 23.035 14.5923 23.035ZM14.7813 22.839C15.0007 22.7923 15.178 22.6873 15.3133 22.524C15.4207 22.398 15.521 22.2323 15.6143 22.027C15.7077 21.8217 15.7823 21.6093 15.8383 21.39C15.899 21.1707 15.9293 20.9793 15.9293 20.816C15.9293 20.802 15.927 20.7787 15.9223 20.746C15.9223 20.7133 15.9153 20.6947 15.9013 20.69C15.8453 20.662 15.7823 20.648 15.7123 20.648C15.6657 20.648 15.605 20.6643 15.5303 20.697C15.4557 20.725 15.3997 20.7577 15.3623 20.795C15.339 20.8183 15.3157 20.851 15.2923 20.893C15.2737 20.9303 15.255 20.963 15.2363 20.991C15.1477 21.131 15.0613 21.2943 14.9773 21.481C14.898 21.6677 14.8327 21.859 14.7813 22.055C14.73 22.251 14.7043 22.4353 14.7043 22.608C14.7043 22.664 14.709 22.7153 14.7183 22.762C14.7323 22.804 14.7533 22.8297 14.7813 22.839ZM16.0709 23.091C16.0663 23.091 16.0639 23.0887 16.0639 23.084C16.0639 23.0653 16.0733 23.0467 16.0919 23.028C16.1059 23.0093 16.1153 22.9953 16.1199 22.986C16.1526 22.9347 16.1923 22.8483 16.2389 22.727C16.2809 22.601 16.3229 22.461 16.3649 22.307C16.4116 22.1483 16.4536 21.9897 16.4909 21.831C16.5329 21.6677 16.5703 21.5183 16.6029 21.383C16.6356 21.2477 16.6589 21.145 16.6729 21.075C16.6823 21.0377 16.6916 20.9887 16.7009 20.928C16.7103 20.8673 16.7243 20.8067 16.7429 20.746C16.7616 20.6853 16.7826 20.6457 16.8059 20.627C16.8479 20.5897 16.9109 20.557 16.9949 20.529C17.0789 20.501 17.1653 20.48 17.2539 20.466C17.3426 20.4473 17.4126 20.438 17.4639 20.438C17.4919 20.438 17.5129 20.452 17.5269 20.48L17.5339 20.501C17.5293 20.515 17.5223 20.522 17.5129 20.522C17.5036 20.5173 17.4943 20.515 17.4849 20.515C17.3823 20.515 17.2913 20.5733 17.2119 20.69C17.1373 20.802 17.0696 20.942 17.0089 21.11C16.9529 21.2733 16.9063 21.432 16.8689 21.586C16.8363 21.74 16.8106 21.8567 16.7919 21.936C16.9413 21.684 17.1116 21.439 17.3029 21.201C17.4989 20.963 17.7253 20.7717 17.9819 20.627C18.0193 20.6083 18.0566 20.5897 18.0939 20.571C18.1359 20.5477 18.1756 20.536 18.2129 20.536C18.2736 20.536 18.3109 20.564 18.3249 20.62C18.3389 20.6713 18.3459 20.7203 18.3459 20.767C18.3459 20.8277 18.3273 20.914 18.2899 21.026C18.2573 21.1333 18.2176 21.2407 18.1709 21.348C18.1289 21.4553 18.0939 21.5393 18.0659 21.6C18.2106 21.4087 18.3716 21.229 18.5489 21.061C18.7263 20.8883 18.9223 20.7437 19.1369 20.627C19.1696 20.6083 19.2069 20.5897 19.2489 20.571C19.2909 20.5477 19.3306 20.536 19.3679 20.536C19.4286 20.536 19.4636 20.564 19.4729 20.62C19.4869 20.6713 19.4939 20.7203 19.4939 20.767C19.4939 20.837 19.4729 20.9257 19.4309 21.033C19.3936 21.1357 19.3493 21.2407 19.2979 21.348C19.2513 21.4507 19.2139 21.537 19.1859 21.607C19.1533 21.6817 19.1206 21.7587 19.0879 21.838C19.0599 21.9173 19.0343 21.9967 19.0109 22.076C18.9923 22.1507 18.9713 22.2347 18.9479 22.328C18.9246 22.4167 18.9129 22.5007 18.9129 22.58C18.9129 22.6127 18.9176 22.65 18.9269 22.692C18.9409 22.734 18.9689 22.755 19.0109 22.755C19.0343 22.755 19.0529 22.7503 19.0669 22.741C19.0856 22.7317 19.1043 22.7223 19.1229 22.713C19.2303 22.6523 19.3329 22.5707 19.4309 22.468C19.5336 22.3607 19.6269 22.2463 19.7109 22.125C19.7949 21.999 19.8649 21.8847 19.9209 21.782C19.9256 21.7867 19.9279 21.796 19.9279 21.81C19.9279 21.838 19.9116 21.88 19.8789 21.936C19.8463 21.9873 19.8089 22.0433 19.7669 22.104C19.7249 22.1647 19.6853 22.2183 19.6479 22.265C19.6153 22.3117 19.5989 22.3397 19.5989 22.349C19.5943 22.3817 19.5873 22.4097 19.5779 22.433C19.5686 22.4517 19.5546 22.4773 19.5359 22.51C19.4799 22.566 19.3983 22.636 19.2909 22.72C19.1883 22.7993 19.0809 22.8717 18.9689 22.937C18.8569 22.9977 18.7589 23.028 18.6749 23.028C18.6049 23.028 18.5583 23.0047 18.5349 22.958C18.5116 22.9067 18.4999 22.8507 18.4999 22.79C18.4999 22.6687 18.5279 22.5193 18.5839 22.342C18.6399 22.16 18.7029 21.978 18.7729 21.796C18.8429 21.614 18.8989 21.4647 18.9409 21.348C18.9549 21.3107 18.9759 21.25 19.0039 21.166C19.0366 21.082 19.0529 21.0237 19.0529 20.991C19.0529 20.963 19.0483 20.935 19.0389 20.907C19.0296 20.879 19.0063 20.865 18.9689 20.865C18.8943 20.865 18.8033 20.914 18.6959 21.012C18.5933 21.11 18.4883 21.229 18.3809 21.369C18.2736 21.5043 18.1779 21.6373 18.0939 21.768C18.0146 21.894 17.9586 21.9873 17.9259 22.048C17.8793 22.1413 17.8349 22.2393 17.7929 22.342C17.7509 22.44 17.7206 22.5403 17.7019 22.643C17.6599 22.643 17.6039 22.671 17.5339 22.727C17.4686 22.783 17.4056 22.839 17.3449 22.895C17.2889 22.9463 17.2539 22.972 17.2399 22.972C17.2306 22.972 17.2283 22.9673 17.2329 22.958C17.2376 22.944 17.2399 22.9323 17.2399 22.923L17.2469 22.874C17.2563 22.804 17.2703 22.7363 17.2889 22.671C17.3123 22.601 17.3333 22.5357 17.3519 22.475C17.3753 22.3957 17.4009 22.3163 17.4289 22.237C17.4616 22.153 17.4943 22.0737 17.5269 21.999C17.5409 21.9617 17.5666 21.8963 17.6039 21.803C17.6459 21.705 17.6903 21.5977 17.7369 21.481C17.7836 21.3643 17.8233 21.2617 17.8559 21.173C17.8886 21.0797 17.9049 21.019 17.9049 20.991C17.9049 20.9677 17.9003 20.942 17.8909 20.914C17.8863 20.886 17.8653 20.872 17.8279 20.872C17.7813 20.872 17.7206 20.9023 17.6459 20.963C17.5759 21.0237 17.5223 21.0727 17.4849 21.11C17.2843 21.3293 17.1093 21.579 16.9599 21.859C16.8153 22.1343 16.6963 22.4143 16.6029 22.699C16.5889 22.7363 16.5796 22.762 16.5749 22.776C16.5749 22.79 16.5563 22.811 16.5189 22.839C16.5049 22.8437 16.4606 22.867 16.3859 22.909C16.3159 22.951 16.2483 22.9907 16.1829 23.028C16.1129 23.07 16.0756 23.091 16.0709 23.091ZM19.785 23.014C19.7104 23.014 19.6614 22.986 19.638 22.93C19.6194 22.8693 19.61 22.8087 19.61 22.748C19.61 22.5287 19.652 22.293 19.736 22.041C19.82 21.789 19.9297 21.5487 20.065 21.32C20.2004 21.0867 20.3474 20.8953 20.506 20.746C20.674 20.592 20.8724 20.515 21.101 20.515C21.1944 20.515 21.2854 20.5267 21.374 20.55C21.4674 20.5687 21.5584 20.5967 21.647 20.634C21.7264 20.578 21.8127 20.529 21.906 20.487C21.9994 20.445 22.095 20.424 22.193 20.424C22.2164 20.424 22.235 20.438 22.249 20.466V20.487C22.249 20.501 22.242 20.508 22.228 20.508C22.2187 20.5033 22.2094 20.501 22.2 20.501C22.1254 20.501 22.0437 20.5593 21.955 20.676C21.8664 20.788 21.7777 20.9327 21.689 21.11C21.6004 21.2873 21.5187 21.474 21.444 21.67C21.374 21.866 21.3157 22.0457 21.269 22.209C21.227 22.3723 21.206 22.496 21.206 22.58C21.206 22.6127 21.2107 22.65 21.22 22.692C21.234 22.734 21.262 22.755 21.304 22.755C21.3274 22.755 21.346 22.7503 21.36 22.741C21.3787 22.7317 21.3974 22.7223 21.416 22.713C21.5187 22.6523 21.619 22.5707 21.717 22.468C21.8197 22.3607 21.913 22.2463 21.997 22.125C22.0857 21.999 22.158 21.8847 22.214 21.782C22.2187 21.7867 22.221 21.796 22.221 21.81C22.221 21.838 22.2047 21.88 22.172 21.936C22.1394 21.9873 22.102 22.0433 22.06 22.104C22.018 22.1647 21.9784 22.2183 21.941 22.265C21.9084 22.3117 21.892 22.3397 21.892 22.349C21.8874 22.3817 21.8804 22.4097 21.871 22.433C21.8617 22.4517 21.8477 22.4773 21.829 22.51C21.7684 22.5707 21.6914 22.6407 21.598 22.72C21.5047 22.7993 21.4067 22.8693 21.304 22.93C21.206 22.986 21.1104 23.014 21.017 23.014C20.8724 23.014 20.8 22.937 20.8 22.783C20.8 22.6897 20.8187 22.5823 20.856 22.461C20.898 22.335 20.9447 22.2113 20.996 22.09C21.052 21.964 21.101 21.859 21.143 21.775C21.143 21.7703 21.143 21.7633 21.143 21.754C21.143 21.7447 21.1407 21.74 21.136 21.74C21.1314 21.74 21.1244 21.7447 21.115 21.754C21.059 21.8287 20.9774 21.936 20.87 22.076C20.7627 22.216 20.6437 22.3583 20.513 22.503C20.387 22.643 20.2587 22.7643 20.128 22.867C19.9974 22.965 19.883 23.014 19.785 23.014ZM20.093 22.713C20.1444 22.713 20.2074 22.6803 20.282 22.615C20.3614 22.545 20.443 22.4633 20.527 22.37C20.6157 22.272 20.6927 22.1787 20.758 22.09C20.828 22.0013 20.877 21.936 20.905 21.894C20.961 21.81 21.024 21.705 21.094 21.579C21.1687 21.453 21.2317 21.3223 21.283 21.187C21.339 21.0517 21.367 20.9373 21.367 20.844C21.367 20.6993 21.2947 20.627 21.15 20.627C21.066 20.627 20.9774 20.6643 20.884 20.739C20.7907 20.8137 20.716 20.8813 20.66 20.942C20.5994 21.0167 20.5294 21.124 20.45 21.264C20.3754 21.404 20.3054 21.5557 20.24 21.719C20.1747 21.8823 20.1187 22.0387 20.072 22.188C20.03 22.3373 20.009 22.461 20.009 22.559C20.009 22.587 20.0137 22.6197 20.023 22.657C20.0324 22.6943 20.0557 22.713 20.093 22.713ZM22.1234 23.056C22.0347 23.056 21.9367 23.0397 21.8294 23.007C21.7221 22.9743 21.6427 22.9137 21.5914 22.825V22.811C21.5914 22.7877 21.6217 22.7527 21.6824 22.706C21.7384 22.6547 21.7991 22.6057 21.8644 22.559C21.9297 22.5077 21.9717 22.4703 21.9904 22.447L22.0394 22.433L22.0534 22.461C22.0207 22.489 22.0044 22.5193 22.0044 22.552C22.0044 22.622 22.0301 22.6803 22.0814 22.727C22.1374 22.7737 22.2004 22.8087 22.2704 22.832C22.3451 22.8553 22.4104 22.867 22.4664 22.867C22.5317 22.867 22.6134 22.8483 22.7114 22.811C22.8141 22.7737 22.9051 22.7223 22.9844 22.657C23.0637 22.5917 23.1034 22.5193 23.1034 22.44C23.1034 22.3187 23.0661 22.2137 22.9914 22.125C22.9167 22.0363 22.8304 21.9523 22.7324 21.873C22.6344 21.7937 22.5481 21.7097 22.4734 21.621C22.3987 21.5323 22.3614 21.4297 22.3614 21.313C22.3614 21.1777 22.4011 21.0563 22.4804 20.949C22.5644 20.837 22.6694 20.7437 22.7954 20.669C22.9261 20.5897 23.0614 20.5313 23.2014 20.494C23.3414 20.452 23.4697 20.431 23.5864 20.431C23.6051 20.431 23.6471 20.4357 23.7124 20.445C23.7777 20.4497 23.8384 20.4613 23.8944 20.48C23.9551 20.494 23.9854 20.515 23.9854 20.543C23.9854 20.5523 23.9831 20.557 23.9784 20.557H23.9644L23.9084 20.543C23.9224 20.5757 23.9294 20.6153 23.9294 20.662C23.9294 20.704 23.9201 20.7577 23.9014 20.823C23.8827 20.8883 23.8617 20.9397 23.8384 20.977C23.8337 20.9863 23.8104 21.0167 23.7684 21.068C23.7264 21.1193 23.6844 21.1683 23.6424 21.215C23.6004 21.2617 23.5747 21.285 23.5654 21.285L23.5584 21.271C23.5677 21.2477 23.5981 21.208 23.6494 21.152C23.7007 21.0913 23.7264 21.0143 23.7264 20.921C23.7264 20.823 23.6821 20.7437 23.5934 20.683C23.5047 20.6177 23.4137 20.585 23.3204 20.585C23.2317 20.585 23.1384 20.613 23.0404 20.669C22.9471 20.725 22.8677 20.7973 22.8024 20.886C22.7417 20.9747 22.7114 21.0657 22.7114 21.159C22.7114 21.243 22.7511 21.3317 22.8304 21.425C22.9144 21.5137 23.0077 21.6047 23.1104 21.698C23.2177 21.7867 23.3111 21.8753 23.3904 21.964C23.4744 22.0527 23.5164 22.1367 23.5164 22.216V22.237C23.5164 22.3537 23.4651 22.4633 23.3624 22.566C23.2597 22.664 23.1314 22.7503 22.9774 22.825C22.8234 22.8997 22.6671 22.958 22.5084 23C22.3544 23.0373 22.2261 23.056 22.1234 23.056Z" fill="#C1ACBD"/>
<path d="M27.2994 23.329C27.08 23.329 26.8654 23.315 26.6554 23.287C26.646 23.287 26.6414 23.2823 26.6414 23.273C26.6414 23.2497 26.6624 23.2123 26.7044 23.161C26.751 23.1097 26.8 23.0607 26.8514 23.014C26.9074 22.972 26.947 22.951 26.9704 22.951C27.0077 22.951 27.0474 22.9557 27.0894 22.965C27.136 22.9697 27.1804 22.9743 27.2224 22.979C27.3157 22.9883 27.4114 22.9953 27.5094 23C27.6074 23.0093 27.7054 23.014 27.8034 23.014C27.9667 23.014 28.1347 23 28.3074 22.972C28.4847 22.9393 28.6387 22.8717 28.7694 22.769C28.8814 22.6757 28.9934 22.5613 29.1054 22.426C29.222 22.2907 29.2804 22.146 29.2804 21.992C29.2804 21.8333 29.222 21.7003 29.1054 21.593C28.9934 21.4857 28.851 21.4017 28.6784 21.341C28.5057 21.2757 28.333 21.2313 28.1604 21.208C27.9877 21.18 27.8407 21.166 27.7194 21.166C27.6447 21.166 27.5724 21.1707 27.5024 21.18C27.4324 21.1893 27.36 21.1987 27.2854 21.208H27.2714C27.2527 21.208 27.2434 21.1987 27.2434 21.18C27.2434 21.1567 27.2574 21.124 27.2854 21.082C27.318 21.0353 27.353 20.9933 27.3904 20.956C27.4324 20.9187 27.4627 20.9 27.4814 20.9C27.6587 20.9 27.8454 20.879 28.0414 20.837C28.242 20.795 28.438 20.7367 28.6294 20.662C28.8207 20.5873 28.9887 20.5033 29.1334 20.41C29.2454 20.34 29.3737 20.249 29.5184 20.137C29.6677 20.025 29.796 19.9013 29.9034 19.766C30.0107 19.626 30.0644 19.4813 30.0644 19.332C30.0644 19.178 30.006 19.0473 29.8894 18.94C29.7774 18.828 29.6374 18.7347 29.4694 18.66C29.3014 18.5853 29.131 18.527 28.9584 18.485C28.7904 18.4383 28.648 18.4057 28.5314 18.387C28.3727 18.3637 28.214 18.3473 28.0554 18.338C27.9014 18.324 27.7427 18.317 27.5794 18.317C27.388 18.317 27.1734 18.331 26.9354 18.359C26.6974 18.3823 26.4547 18.4243 26.2074 18.485C25.9647 18.541 25.7337 18.6203 25.5144 18.723C25.295 18.8257 25.106 18.9563 24.9474 19.115C24.7887 19.269 24.6814 19.4557 24.6254 19.675C24.6114 19.7357 24.6044 19.7987 24.6044 19.864C24.6044 19.9807 24.6277 20.0903 24.6744 20.193C24.721 20.291 24.8027 20.361 24.9194 20.403H24.9404C24.9777 20.403 25.0127 20.4007 25.0454 20.396C25.0827 20.3867 25.1177 20.382 25.1504 20.382C25.155 20.382 25.1644 20.3843 25.1784 20.389C25.1924 20.389 25.1994 20.3937 25.1994 20.403C25.1994 20.4357 25.1737 20.4613 25.1224 20.48C25.071 20.494 25.0337 20.501 25.0104 20.501C24.931 20.501 24.8634 20.4823 24.8074 20.445C24.7514 20.4077 24.707 20.389 24.6744 20.389C24.6697 20.389 24.665 20.3913 24.6604 20.396C24.6557 20.396 24.6534 20.396 24.6534 20.396C24.644 20.4053 24.637 20.417 24.6324 20.431C24.6277 20.445 24.616 20.452 24.5974 20.452C24.5694 20.452 24.5437 20.4287 24.5204 20.382C24.497 20.3307 24.4784 20.2747 24.4644 20.214C24.4504 20.1533 24.4434 20.1113 24.4434 20.088C24.4434 19.99 24.455 19.8873 24.4784 19.78C24.539 19.514 24.6534 19.283 24.8214 19.087C24.994 18.8863 25.2017 18.716 25.4444 18.576C25.687 18.436 25.946 18.324 26.2214 18.24C26.4967 18.156 26.772 18.0953 27.0474 18.058C27.3274 18.016 27.5864 17.995 27.8244 17.995C28.165 17.995 28.4987 18.03 28.8254 18.1C28.9654 18.128 29.1217 18.1723 29.2944 18.233C29.467 18.2937 29.6327 18.3707 29.7914 18.464C29.95 18.5573 30.0807 18.6717 30.1834 18.807C30.2907 18.9377 30.3444 19.0893 30.3444 19.262C30.3444 19.444 30.286 19.6143 30.1694 19.773C30.0527 19.927 29.9127 20.0647 29.7494 20.186C29.5907 20.3073 29.4414 20.41 29.3014 20.494C29.2547 20.522 29.187 20.5617 29.0984 20.613C29.0144 20.6597 28.921 20.711 28.8184 20.767C28.7157 20.8183 28.62 20.8627 28.5314 20.9C28.4474 20.9327 28.382 20.949 28.3354 20.949C28.4707 20.9537 28.613 20.9723 28.7624 21.005C28.9164 21.0377 29.0587 21.089 29.1894 21.159C29.3247 21.229 29.4344 21.3223 29.5184 21.439C29.6024 21.551 29.6444 21.691 29.6444 21.859C29.6444 22.013 29.6024 22.1553 29.5184 22.286C29.439 22.412 29.3387 22.5217 29.2174 22.615C28.914 22.8437 28.6154 23.0187 28.3214 23.14C28.0274 23.266 27.6867 23.329 27.2994 23.329ZM24.4644 23.931C24.413 23.931 24.3524 23.9287 24.2824 23.924C24.2124 23.9193 24.1564 23.9053 24.1144 23.882C24.0957 23.868 24.0607 23.8447 24.0094 23.812C23.958 23.784 23.9324 23.756 23.9324 23.728C23.9324 23.6953 23.9464 23.679 23.9744 23.679C23.9977 23.6837 24.0094 23.6673 24.0094 23.63C24.0094 23.5927 24.0024 23.5553 23.9884 23.518C23.9744 23.4807 23.9674 23.4433 23.9674 23.406C23.9674 23.364 23.979 23.3057 24.0024 23.231C24.0257 23.161 24.063 23.126 24.1144 23.126C24.1284 23.126 24.1354 23.133 24.1354 23.147C24.1354 23.1937 24.1237 23.238 24.1004 23.28C24.0724 23.322 24.0584 23.364 24.0584 23.406C24.0584 23.4713 24.0864 23.5343 24.1424 23.595C24.1937 23.6557 24.259 23.7047 24.3384 23.742C24.413 23.784 24.4807 23.805 24.5414 23.805C24.5647 23.805 24.5904 23.805 24.6184 23.805C24.6464 23.805 24.672 23.8027 24.6954 23.798C24.9334 23.7653 25.1574 23.6487 25.3674 23.448C25.5774 23.252 25.771 23.0023 25.9484 22.699C26.1304 22.391 26.296 22.0597 26.4454 21.705C26.5994 21.3457 26.737 20.9887 26.8584 20.634C26.9844 20.2793 27.094 19.9503 27.1874 19.647C27.2807 19.3437 27.3577 19.0987 27.4184 18.912C27.4417 18.8373 27.4674 18.779 27.4954 18.737C27.5234 18.6903 27.5677 18.6437 27.6284 18.597C27.7124 18.5317 27.8104 18.485 27.9224 18.457C28.0344 18.4243 28.1417 18.408 28.2444 18.408C28.2537 18.408 28.2677 18.4103 28.2864 18.415C28.3097 18.4197 28.3214 18.429 28.3214 18.443C28.3214 18.4617 28.305 18.4757 28.2724 18.485C28.2397 18.4897 28.2187 18.492 28.2094 18.492C28.144 18.492 28.074 18.5457 27.9994 18.653C27.9247 18.7603 27.85 18.8957 27.7754 19.059C27.7007 19.2223 27.6307 19.3927 27.5654 19.57C27.5 19.7427 27.444 19.899 27.3974 20.039C27.3507 20.179 27.318 20.2747 27.2994 20.326C27.2387 20.4987 27.178 20.6713 27.1174 20.844C27.0567 21.012 26.9937 21.18 26.9284 21.348C26.8584 21.544 26.7837 21.74 26.7044 21.936C26.625 22.1273 26.534 22.314 26.4314 22.496C26.2867 22.7573 26.1327 22.9953 25.9694 23.21C25.8107 23.4293 25.6194 23.602 25.3954 23.728C25.176 23.8587 24.8984 23.9263 24.5624 23.931H24.4644ZM31.2226 23.021C31.1386 23.021 31.0826 22.9977 31.0546 22.951C31.0266 22.8997 31.0126 22.8367 31.0126 22.762C31.0126 22.6407 31.0313 22.5053 31.0686 22.356C31.1106 22.202 31.1479 22.0667 31.1806 21.95C31.0593 22.1367 30.9193 22.321 30.7606 22.503C30.6019 22.685 30.4199 22.8297 30.2146 22.937C30.1819 22.9557 30.1446 22.9743 30.1026 22.993C30.0606 23.007 30.0209 23.014 29.9836 23.014C29.9183 23.014 29.8739 22.9907 29.8506 22.944C29.8319 22.8973 29.8226 22.8483 29.8226 22.797V22.769C29.8226 22.6943 29.8366 22.6197 29.8646 22.545C29.8926 22.4657 29.9183 22.391 29.9416 22.321C29.9789 22.2137 30.0233 22.0807 30.0746 21.922C30.1306 21.7587 30.1796 21.5953 30.2216 21.432C30.2683 21.2687 30.2916 21.1357 30.2916 21.033C30.2916 20.991 30.2846 20.9513 30.2706 20.914C30.2613 20.8767 30.2309 20.8557 30.1796 20.851C30.1796 20.851 30.1749 20.851 30.1656 20.851C30.1609 20.851 30.1586 20.8487 30.1586 20.844C30.1586 20.83 30.1819 20.816 30.2286 20.802C30.2799 20.7833 30.3406 20.7647 30.4106 20.746C30.4806 20.7273 30.5459 20.7133 30.6066 20.704C30.6673 20.69 30.7069 20.683 30.7256 20.683C30.7349 20.683 30.7513 20.6853 30.7746 20.69C30.8026 20.6947 30.8166 20.7087 30.8166 20.732C30.8166 20.7413 30.8143 20.7483 30.8096 20.753C30.7629 20.865 30.7093 20.998 30.6486 21.152C30.5879 21.306 30.5273 21.4693 30.4666 21.642C30.4106 21.81 30.3639 21.9757 30.3266 22.139C30.2893 22.2977 30.2706 22.44 30.2706 22.566C30.2706 22.5893 30.2753 22.6127 30.2846 22.636C30.2939 22.6593 30.3126 22.671 30.3406 22.671C30.3919 22.671 30.4549 22.6407 30.5296 22.58C30.6089 22.5193 30.6649 22.4727 30.6976 22.44C30.8703 22.258 31.0266 22.0363 31.1666 21.775C31.3066 21.5137 31.4139 21.264 31.4886 21.026C31.5119 20.956 31.5353 20.907 31.5586 20.879C31.5819 20.8463 31.6239 20.8067 31.6846 20.76C31.7593 20.7087 31.8409 20.662 31.9296 20.62C32.0229 20.578 32.1163 20.557 32.2096 20.557C32.2189 20.557 32.2306 20.564 32.2446 20.578C32.2586 20.5873 32.2656 20.599 32.2656 20.613C32.2656 20.6223 32.2586 20.6293 32.2446 20.634C32.2353 20.634 32.2259 20.634 32.2166 20.634C32.1559 20.634 32.0929 20.6713 32.0276 20.746C31.9623 20.8207 31.8993 20.9163 31.8386 21.033C31.7779 21.1497 31.7219 21.271 31.6706 21.397C31.6239 21.523 31.5819 21.6397 31.5446 21.747C31.5119 21.8497 31.4886 21.9267 31.4746 21.978C31.4559 22.0667 31.4349 22.1553 31.4116 22.244C31.3929 22.3327 31.3836 22.4237 31.3836 22.517C31.3836 22.5543 31.3883 22.6033 31.3976 22.664C31.4116 22.72 31.4466 22.748 31.5026 22.748C31.5353 22.748 31.5679 22.7363 31.6006 22.713C31.7033 22.6523 31.8013 22.5707 31.8946 22.468C31.9879 22.3607 32.0743 22.2463 32.1536 22.125C32.2329 21.999 32.2959 21.8847 32.3426 21.782C32.3519 21.7867 32.3566 21.796 32.3566 21.81C32.3566 21.8473 32.3309 21.908 32.2796 21.992C32.2329 22.0713 32.1839 22.1483 32.1326 22.223C32.0859 22.293 32.0603 22.335 32.0556 22.349C32.0509 22.3817 32.0439 22.4097 32.0346 22.433C32.0299 22.4517 32.0206 22.4773 32.0066 22.51C31.9506 22.5707 31.8759 22.6407 31.7826 22.72C31.6939 22.7993 31.6006 22.8693 31.5026 22.93C31.4046 22.9907 31.3113 23.021 31.2226 23.021ZM32.2679 23.056C32.1793 23.056 32.0813 23.0397 31.9739 23.007C31.8666 22.9743 31.7873 22.9137 31.7359 22.825V22.811C31.7359 22.7877 31.7663 22.7527 31.8269 22.706C31.8829 22.6547 31.9436 22.6057 32.0089 22.559C32.0743 22.5077 32.1163 22.4703 32.1349 22.447L32.1839 22.433L32.1979 22.461C32.1653 22.489 32.1489 22.5193 32.1489 22.552C32.1489 22.622 32.1746 22.6803 32.2259 22.727C32.2819 22.7737 32.3449 22.8087 32.4149 22.832C32.4896 22.8553 32.5549 22.867 32.6109 22.867C32.6763 22.867 32.7579 22.8483 32.8559 22.811C32.9586 22.7737 33.0496 22.7223 33.1289 22.657C33.2083 22.5917 33.2479 22.5193 33.2479 22.44C33.2479 22.3187 33.2106 22.2137 33.1359 22.125C33.0613 22.0363 32.9749 21.9523 32.8769 21.873C32.7789 21.7937 32.6926 21.7097 32.6179 21.621C32.5433 21.5323 32.5059 21.4297 32.5059 21.313C32.5059 21.1777 32.5456 21.0563 32.6249 20.949C32.7089 20.837 32.8139 20.7437 32.9399 20.669C33.0706 20.5897 33.2059 20.5313 33.3459 20.494C33.4859 20.452 33.6143 20.431 33.7309 20.431C33.7496 20.431 33.7916 20.4357 33.8569 20.445C33.9223 20.4497 33.9829 20.4613 34.0389 20.48C34.0996 20.494 34.1299 20.515 34.1299 20.543C34.1299 20.5523 34.1276 20.557 34.1229 20.557H34.1089L34.0529 20.543C34.0669 20.5757 34.0739 20.6153 34.0739 20.662C34.0739 20.704 34.0646 20.7577 34.0459 20.823C34.0273 20.8883 34.0063 20.9397 33.9829 20.977C33.9783 20.9863 33.9549 21.0167 33.9129 21.068C33.8709 21.1193 33.8289 21.1683 33.7869 21.215C33.7449 21.2617 33.7193 21.285 33.7099 21.285L33.7029 21.271C33.7123 21.2477 33.7426 21.208 33.7939 21.152C33.8453 21.0913 33.8709 21.0143 33.8709 20.921C33.8709 20.823 33.8266 20.7437 33.7379 20.683C33.6493 20.6177 33.5583 20.585 33.4649 20.585C33.3763 20.585 33.2829 20.613 33.1849 20.669C33.0916 20.725 33.0123 20.7973 32.9469 20.886C32.8863 20.9747 32.8559 21.0657 32.8559 21.159C32.8559 21.243 32.8956 21.3317 32.9749 21.425C33.0589 21.5137 33.1523 21.6047 33.2549 21.698C33.3623 21.7867 33.4556 21.8753 33.5349 21.964C33.6189 22.0527 33.6609 22.1367 33.6609 22.216V22.237C33.6609 22.3537 33.6096 22.4633 33.5069 22.566C33.4043 22.664 33.2759 22.7503 33.1219 22.825C32.9679 22.8997 32.8116 22.958 32.6529 23C32.4989 23.0373 32.3706 23.056 32.2679 23.056ZM35.2823 19.99C35.245 19.99 35.1867 19.976 35.1073 19.948C35.0327 19.9153 34.9953 19.8757 34.9953 19.829C34.9953 19.8243 34.9953 19.822 34.9953 19.822C35 19.8173 35.0023 19.8127 35.0023 19.808C35.0257 19.7613 35.077 19.7333 35.1563 19.724C35.2403 19.7147 35.3033 19.7007 35.3453 19.682C35.4387 19.6447 35.5297 19.6143 35.6183 19.591C35.707 19.5677 35.791 19.5257 35.8703 19.465C35.889 19.4743 35.8983 19.4837 35.8983 19.493C35.8983 19.5117 35.8773 19.5373 35.8353 19.57C35.798 19.6027 35.7723 19.6307 35.7583 19.654C35.7397 19.682 35.6977 19.724 35.6323 19.78C35.5717 19.8313 35.5063 19.8803 35.4363 19.927C35.3663 19.969 35.315 19.99 35.2823 19.99ZM34.0993 23.021C34.0247 23.021 33.9733 23.0023 33.9453 22.965C33.9173 22.9277 33.9033 22.874 33.9033 22.804C33.9033 22.65 33.9337 22.4633 33.9943 22.244C34.0597 22.0247 34.132 21.803 34.2113 21.579C34.2907 21.3503 34.3537 21.1473 34.4003 20.97C34.419 20.9047 34.4633 20.8603 34.5333 20.837C34.608 20.809 34.671 20.7763 34.7223 20.739C34.797 20.6877 34.8763 20.6457 34.9603 20.613C35.0443 20.5757 35.133 20.557 35.2263 20.557C35.2497 20.557 35.2637 20.5617 35.2683 20.571C35.2777 20.5803 35.2823 20.5873 35.2823 20.592C35.2823 20.62 35.266 20.634 35.2333 20.634C35.168 20.634 35.1003 20.6737 35.0303 20.753C34.9603 20.8277 34.8903 20.9257 34.8203 21.047C34.7503 21.1683 34.6873 21.2943 34.6313 21.425C34.5753 21.5557 34.5263 21.677 34.4843 21.789C34.4423 21.8963 34.4143 21.9757 34.4003 22.027C34.377 22.1017 34.3537 22.1903 34.3303 22.293C34.307 22.391 34.2953 22.482 34.2953 22.566C34.2953 22.5987 34.3 22.6383 34.3093 22.685C34.3187 22.727 34.3467 22.748 34.3933 22.748C34.426 22.748 34.461 22.7363 34.4983 22.713C34.601 22.6523 34.7013 22.5707 34.7993 22.468C34.902 22.3607 34.9953 22.2463 35.0793 22.125C35.168 21.999 35.238 21.8847 35.2893 21.782C35.2987 21.7867 35.3033 21.796 35.3033 21.81C35.3033 21.838 35.287 21.88 35.2543 21.936C35.2217 21.9873 35.1843 22.0433 35.1423 22.104C35.1003 22.1647 35.0607 22.2183 35.0233 22.265C34.9907 22.3117 34.9743 22.3397 34.9743 22.349C34.9697 22.3863 34.9627 22.4143 34.9533 22.433C34.944 22.447 34.93 22.4727 34.9113 22.51C34.8553 22.566 34.7807 22.636 34.6873 22.72C34.594 22.7993 34.496 22.8693 34.3933 22.93C34.2907 22.9907 34.1927 23.021 34.0993 23.021ZM34.7809 23.091C34.7762 23.091 34.7739 23.0887 34.7739 23.084C34.7739 23.0653 34.7832 23.0467 34.8019 23.028C34.8159 23.0093 34.8252 22.9953 34.8299 22.986C34.8626 22.9347 34.9022 22.8483 34.9489 22.727C34.9909 22.601 35.0329 22.461 35.0749 22.307C35.1216 22.1483 35.1636 21.9897 35.2009 21.831C35.2429 21.6677 35.2802 21.5183 35.3129 21.383C35.3456 21.2477 35.3689 21.145 35.3829 21.075C35.3922 21.0377 35.4016 20.9887 35.4109 20.928C35.4202 20.8673 35.4342 20.8067 35.4529 20.746C35.4716 20.6853 35.4926 20.6457 35.5159 20.627C35.5626 20.5897 35.6256 20.557 35.7049 20.529C35.7889 20.501 35.8752 20.48 35.9639 20.466C36.0526 20.4473 36.1249 20.438 36.1809 20.438C36.1902 20.438 36.2019 20.4427 36.2159 20.452C36.2299 20.4613 36.2392 20.4707 36.2439 20.48V20.501C36.2439 20.515 36.2392 20.522 36.2299 20.522C36.2206 20.5173 36.2112 20.515 36.2019 20.515C36.0992 20.515 36.0082 20.5733 35.9289 20.69C35.8496 20.802 35.7819 20.942 35.7259 21.11C35.6699 21.2733 35.6232 21.432 35.5859 21.586C35.5486 21.74 35.5206 21.8567 35.5019 21.936C35.6512 21.6793 35.8216 21.4343 36.0129 21.201C36.2089 20.963 36.4376 20.7717 36.6989 20.627C36.7316 20.6083 36.7689 20.5897 36.8109 20.571C36.8529 20.5477 36.8902 20.536 36.9229 20.536C36.9836 20.536 37.0209 20.564 37.0349 20.62C37.0489 20.6713 37.0559 20.7203 37.0559 20.767C37.0559 20.8277 37.0349 20.9163 36.9929 21.033C36.9509 21.1497 36.9019 21.2663 36.8459 21.383C36.7946 21.495 36.7549 21.5837 36.7269 21.649C36.6989 21.7237 36.6662 21.8193 36.6289 21.936C36.5916 22.0527 36.5589 22.1693 36.5309 22.286C36.5029 22.4027 36.4889 22.5007 36.4889 22.58C36.4889 22.6127 36.4936 22.65 36.5029 22.692C36.5122 22.734 36.5379 22.755 36.5799 22.755C36.6032 22.755 36.6219 22.7503 36.6359 22.741C36.6546 22.7317 36.6732 22.7223 36.6919 22.713C36.7992 22.6523 36.9019 22.5707 36.9999 22.468C37.1026 22.3607 37.1959 22.2463 37.2799 22.125C37.3639 21.999 37.4339 21.8847 37.4899 21.782C37.4946 21.7867 37.4969 21.796 37.4969 21.81C37.4969 21.838 37.4806 21.88 37.4479 21.936C37.4152 21.9873 37.3779 22.0433 37.3359 22.104C37.2939 22.1647 37.2542 22.2183 37.2169 22.265C37.1842 22.3117 37.1679 22.3397 37.1679 22.349C37.1632 22.3817 37.1562 22.4097 37.1469 22.433C37.1376 22.4517 37.1259 22.4773 37.1119 22.51C37.0559 22.566 36.9742 22.636 36.8669 22.72C36.7642 22.7993 36.6569 22.8717 36.5449 22.937C36.4376 22.9977 36.3419 23.028 36.2579 23.028C36.1832 23.028 36.1319 23 36.1039 22.944C36.0806 22.8833 36.0689 22.8203 36.0689 22.755C36.0689 22.629 36.0946 22.4797 36.1459 22.307C36.1972 22.1297 36.2579 21.9547 36.3279 21.782C36.3979 21.6047 36.4562 21.4553 36.5029 21.334C36.5169 21.2967 36.5379 21.2383 36.5659 21.159C36.5986 21.0797 36.6149 21.0237 36.6149 20.991C36.6149 20.9677 36.6102 20.942 36.6009 20.914C36.5962 20.886 36.5752 20.872 36.5379 20.872C36.4912 20.872 36.4306 20.9023 36.3559 20.963C36.2859 21.0237 36.2322 21.0727 36.1949 21.11C35.9942 21.334 35.8216 21.5837 35.6769 21.859C35.5322 22.1297 35.4109 22.4097 35.3129 22.699C35.2989 22.7363 35.2896 22.7643 35.2849 22.783C35.2849 22.797 35.2662 22.8157 35.2289 22.839C35.2149 22.8483 35.1706 22.874 35.0959 22.916C35.0259 22.958 34.9582 22.9977 34.8929 23.035C34.8229 23.0723 34.7856 23.091 34.7809 23.091ZM37.5912 23.028C37.3206 23.028 37.1852 22.8903 37.1852 22.615C37.1852 22.4097 37.2272 22.1903 37.3112 21.957C37.3952 21.719 37.5049 21.4927 37.6402 21.278C37.7756 21.0587 37.9179 20.8813 38.0672 20.746C38.2446 20.592 38.4522 20.515 38.6902 20.515C38.7462 20.515 38.8139 20.522 38.8932 20.536C38.9772 20.55 39.0496 20.578 39.1102 20.62C39.1709 20.6573 39.2012 20.7133 39.2012 20.788C39.2012 20.8953 39.1616 21.019 39.0822 21.159C39.0029 21.2943 38.9306 21.404 38.8652 21.488C38.8886 21.4927 38.9166 21.4997 38.9492 21.509C38.9866 21.5183 39.0052 21.537 39.0052 21.565C39.0052 21.579 38.9936 21.586 38.9702 21.586C38.9282 21.586 38.8862 21.5813 38.8442 21.572C38.8022 21.5627 38.7602 21.558 38.7182 21.558C38.5596 21.558 38.3962 21.5813 38.2282 21.628C38.0649 21.6747 37.9086 21.7237 37.7592 21.775C37.7126 21.887 37.6706 22.0107 37.6332 22.146C37.6006 22.2813 37.5842 22.4097 37.5842 22.531C37.5842 22.6197 37.6006 22.699 37.6332 22.769C37.6706 22.839 37.7406 22.874 37.8432 22.874C37.9692 22.874 38.0976 22.839 38.2282 22.769C38.3636 22.6943 38.4919 22.601 38.6132 22.489C38.7392 22.3723 38.8512 22.251 38.9492 22.125C39.0472 21.999 39.1242 21.8847 39.1802 21.782C39.1849 21.7867 39.1872 21.796 39.1872 21.81C39.1872 21.852 39.1616 21.9103 39.1102 21.985C39.0589 22.055 39.0052 22.125 38.9492 22.195C38.8979 22.265 38.8676 22.3163 38.8582 22.349C38.8536 22.3817 38.8442 22.4097 38.8302 22.433C38.8209 22.4563 38.8092 22.482 38.7952 22.51C38.7159 22.5893 38.6016 22.671 38.4522 22.755C38.3076 22.8343 38.1559 22.8997 37.9972 22.951C37.8432 23.0023 37.7079 23.028 37.5912 23.028ZM37.8572 21.551C37.9786 21.5277 38.0976 21.509 38.2142 21.495C38.3356 21.481 38.4569 21.474 38.5782 21.474C38.6156 21.474 38.6529 21.474 38.6902 21.474C38.7276 21.474 38.7649 21.4763 38.8022 21.481C38.8396 21.4017 38.8699 21.3153 38.8932 21.222C38.9212 21.1287 38.9352 21.0377 38.9352 20.949C38.9352 20.879 38.9212 20.809 38.8932 20.739C38.8652 20.6643 38.8046 20.627 38.7112 20.627C38.6226 20.627 38.5316 20.6643 38.4382 20.739C38.3496 20.8137 38.2772 20.8813 38.2212 20.942C38.1466 21.0307 38.0789 21.1287 38.0182 21.236C37.9622 21.3387 37.9086 21.4437 37.8572 21.551ZM39.1039 23.056C39.0152 23.056 38.9172 23.0397 38.8099 23.007C38.7025 22.9743 38.6232 22.9137 38.5719 22.825V22.811C38.5719 22.7877 38.6022 22.7527 38.6629 22.706C38.7189 22.6547 38.7795 22.6057 38.8449 22.559C38.9102 22.5077 38.9522 22.4703 38.9709 22.447L39.0199 22.433L39.0339 22.461C39.0012 22.489 38.9849 22.5193 38.9849 22.552C38.9849 22.622 39.0105 22.6803 39.0619 22.727C39.1179 22.7737 39.1809 22.8087 39.2509 22.832C39.3255 22.8553 39.3909 22.867 39.4469 22.867C39.5122 22.867 39.5939 22.8483 39.6919 22.811C39.7945 22.7737 39.8855 22.7223 39.9649 22.657C40.0442 22.5917 40.0839 22.5193 40.0839 22.44C40.0839 22.3187 40.0465 22.2137 39.9719 22.125C39.8972 22.0363 39.8109 21.9523 39.7129 21.873C39.6149 21.7937 39.5285 21.7097 39.4539 21.621C39.3792 21.5323 39.3419 21.4297 39.3419 21.313C39.3419 21.1777 39.3815 21.0563 39.4609 20.949C39.5449 20.837 39.6499 20.7437 39.7759 20.669C39.9065 20.5897 40.0419 20.5313 40.1819 20.494C40.3219 20.452 40.4502 20.431 40.5669 20.431C40.5855 20.431 40.6275 20.4357 40.6929 20.445C40.7582 20.4497 40.8189 20.4613 40.8749 20.48C40.9355 20.494 40.9659 20.515 40.9659 20.543C40.9659 20.5523 40.9635 20.557 40.9589 20.557H40.9449L40.8889 20.543C40.9029 20.5757 40.9099 20.6153 40.9099 20.662C40.9099 20.704 40.9005 20.7577 40.8819 20.823C40.8632 20.8883 40.8422 20.9397 40.8189 20.977C40.8142 20.9863 40.7909 21.0167 40.7489 21.068C40.7069 21.1193 40.6649 21.1683 40.6229 21.215C40.5809 21.2617 40.5552 21.285 40.5459 21.285L40.5389 21.271C40.5482 21.2477 40.5785 21.208 40.6299 21.152C40.6812 21.0913 40.7069 21.0143 40.7069 20.921C40.7069 20.823 40.6625 20.7437 40.5739 20.683C40.4852 20.6177 40.3942 20.585 40.3009 20.585C40.2122 20.585 40.1189 20.613 40.0209 20.669C39.9275 20.725 39.8482 20.7973 39.7829 20.886C39.7222 20.9747 39.6919 21.0657 39.6919 21.159C39.6919 21.243 39.7315 21.3317 39.8109 21.425C39.8949 21.5137 39.9882 21.6047 40.0909 21.698C40.1982 21.7867 40.2915 21.8753 40.3709 21.964C40.4549 22.0527 40.4969 22.1367 40.4969 22.216V22.237C40.4969 22.3537 40.4455 22.4633 40.3429 22.566C40.2402 22.664 40.1119 22.7503 39.9579 22.825C39.8039 22.8997 39.6475 22.958 39.4889 23C39.3349 23.0373 39.2065 23.056 39.1039 23.056ZM40.9633 23.056C40.8746 23.056 40.7766 23.0397 40.6693 23.007C40.5619 22.9743 40.4826 22.9137 40.4313 22.825V22.811C40.4313 22.7877 40.4616 22.7527 40.5223 22.706C40.5783 22.6547 40.6389 22.6057 40.7043 22.559C40.7696 22.5077 40.8116 22.4703 40.8303 22.447L40.8793 22.433L40.8933 22.461C40.8606 22.489 40.8443 22.5193 40.8443 22.552C40.8443 22.622 40.8699 22.6803 40.9213 22.727C40.9773 22.7737 41.0403 22.8087 41.1103 22.832C41.1849 22.8553 41.2503 22.867 41.3063 22.867C41.3716 22.867 41.4533 22.8483 41.5513 22.811C41.6539 22.7737 41.7449 22.7223 41.8243 22.657C41.9036 22.5917 41.9433 22.5193 41.9433 22.44C41.9433 22.3187 41.9059 22.2137 41.8313 22.125C41.7566 22.0363 41.6703 21.9523 41.5723 21.873C41.4743 21.7937 41.3879 21.7097 41.3133 21.621C41.2386 21.5323 41.2013 21.4297 41.2013 21.313C41.2013 21.1777 41.2409 21.0563 41.3203 20.949C41.4043 20.837 41.5093 20.7437 41.6353 20.669C41.7659 20.5897 41.9013 20.5313 42.0413 20.494C42.1813 20.452 42.3096 20.431 42.4263 20.431C42.4449 20.431 42.4869 20.4357 42.5523 20.445C42.6176 20.4497 42.6783 20.4613 42.7343 20.48C42.7949 20.494 42.8253 20.515 42.8253 20.543C42.8253 20.5523 42.8229 20.557 42.8183 20.557H42.8043L42.7483 20.543C42.7623 20.5757 42.7693 20.6153 42.7693 20.662C42.7693 20.704 42.7599 20.7577 42.7413 20.823C42.7226 20.8883 42.7016 20.9397 42.6783 20.977C42.6736 20.9863 42.6503 21.0167 42.6083 21.068C42.5663 21.1193 42.5243 21.1683 42.4823 21.215C42.4403 21.2617 42.4146 21.285 42.4053 21.285L42.3983 21.271C42.4076 21.2477 42.4379 21.208 42.4893 21.152C42.5406 21.0913 42.5663 21.0143 42.5663 20.921C42.5663 20.823 42.5219 20.7437 42.4333 20.683C42.3446 20.6177 42.2536 20.585 42.1603 20.585C42.0716 20.585 41.9783 20.613 41.8803 20.669C41.7869 20.725 41.7076 20.7973 41.6423 20.886C41.5816 20.9747 41.5513 21.0657 41.5513 21.159C41.5513 21.243 41.5909 21.3317 41.6703 21.425C41.7543 21.5137 41.8476 21.6047 41.9503 21.698C42.0576 21.7867 42.1509 21.8753 42.2303 21.964C42.3143 22.0527 42.3563 22.1367 42.3563 22.216V22.237C42.3563 22.3537 42.3049 22.4633 42.2023 22.566C42.0996 22.664 41.9713 22.7503 41.8173 22.825C41.6633 22.8997 41.5069 22.958 41.3483 23C41.1943 23.0373 41.0659 23.056 40.9633 23.056Z" fill="#47426A"/>
<path d="M45.6354 23.371C45.122 23.371 44.709 23.2427 44.3964 22.986C44.0884 22.7293 43.9344 22.3327 43.9344 21.796C43.9344 21.3853 44.016 20.9957 44.1794 20.627C44.3427 20.2537 44.5597 19.913 44.8304 19.605C45.1057 19.297 45.409 19.0333 45.7404 18.814C45.5584 18.7907 45.374 18.7673 45.1874 18.744C45.0007 18.7207 44.8164 18.709 44.6344 18.709C44.4244 18.709 44.2354 18.737 44.0674 18.793C43.904 18.849 43.75 18.9563 43.6054 19.115C43.5634 19.1617 43.5307 19.2037 43.5074 19.241C43.484 19.2783 43.4724 19.3297 43.4724 19.395C43.4724 19.5023 43.491 19.5793 43.5284 19.626C43.5657 19.6727 43.61 19.703 43.6614 19.717C43.7127 19.731 43.7617 19.7403 43.8084 19.745C43.855 19.7497 43.8854 19.7637 43.8994 19.787C43.8947 19.801 43.8784 19.8127 43.8504 19.822C43.8224 19.8267 43.799 19.829 43.7804 19.829C43.7104 19.829 43.6497 19.8127 43.5984 19.78C43.5517 19.7473 43.5097 19.717 43.4724 19.689C43.4397 19.6563 43.4094 19.64 43.3814 19.64C43.372 19.64 43.3627 19.6447 43.3534 19.654C43.3487 19.6633 43.3394 19.668 43.3254 19.668C43.288 19.668 43.267 19.6423 43.2624 19.591C43.2577 19.535 43.2554 19.4977 43.2554 19.479C43.2554 19.4277 43.2764 19.3693 43.3184 19.304C43.3604 19.2387 43.3977 19.1873 43.4304 19.15C43.631 18.9073 43.8457 18.737 44.0744 18.639C44.3077 18.541 44.5784 18.492 44.8864 18.492C45.087 18.492 45.2854 18.506 45.4814 18.534C45.6774 18.5573 45.8734 18.5853 46.0694 18.618C46.298 18.492 46.5407 18.3987 46.7974 18.338C47.054 18.2727 47.3107 18.24 47.5674 18.24C47.7167 18.24 47.873 18.2563 48.0364 18.289C48.1997 18.317 48.3514 18.366 48.4914 18.436C48.636 18.506 48.7527 18.6017 48.8414 18.723C48.93 18.8443 48.9744 18.996 48.9744 19.178C48.9744 19.3227 48.9487 19.465 48.8974 19.605C48.8974 19.6237 48.8927 19.64 48.8834 19.654C48.8787 19.6633 48.8717 19.675 48.8624 19.689C48.8297 19.7497 48.797 19.8057 48.7644 19.857C48.7364 19.9037 48.6804 19.927 48.5964 19.927C48.5357 19.927 48.5054 19.8943 48.5054 19.829C48.5054 19.8057 48.5054 19.7823 48.5054 19.759C48.51 19.731 48.5147 19.7077 48.5194 19.689C48.146 19.4837 47.74 19.3133 47.3014 19.178C46.8674 19.038 46.4404 18.9307 46.0204 18.856C45.8057 19.0147 45.598 19.2037 45.3974 19.423C45.1967 19.6423 45.0147 19.8827 44.8514 20.144C44.6927 20.4007 44.5667 20.669 44.4734 20.949C44.38 21.229 44.3334 21.5067 44.3334 21.782C44.3334 22.0947 44.4034 22.356 44.5434 22.566C44.6834 22.776 44.8724 22.9323 45.1104 23.035C45.3484 23.1377 45.6167 23.189 45.9154 23.189C46.172 23.189 46.431 23.1493 46.6924 23.07C46.9584 22.9953 47.2104 22.8903 47.4484 22.755C47.6864 22.615 47.894 22.454 48.0714 22.272C48.1974 22.1413 48.3257 21.9873 48.4564 21.81C48.5917 21.6327 48.6944 21.4577 48.7644 21.285C48.7644 21.2803 48.769 21.2663 48.7784 21.243C48.7924 21.2197 48.8017 21.208 48.8064 21.208C48.8157 21.208 48.8204 21.222 48.8204 21.25C48.825 21.278 48.8274 21.2943 48.8274 21.299C48.8274 21.3223 48.825 21.376 48.8204 21.46C48.8204 21.5393 48.8157 21.5907 48.8064 21.614C48.741 21.8193 48.615 22.0153 48.4284 22.202C48.2464 22.384 48.034 22.5497 47.7914 22.699C47.5534 22.8483 47.3084 22.9743 47.0564 23.077C46.809 23.1797 46.585 23.252 46.3844 23.294C46.263 23.3173 46.1394 23.336 46.0134 23.35C45.8874 23.364 45.7614 23.371 45.6354 23.371ZM48.5754 19.381C48.58 19.353 48.5824 19.325 48.5824 19.297C48.587 19.269 48.5894 19.2387 48.5894 19.206C48.5894 18.996 48.531 18.8327 48.4144 18.716C48.2977 18.5947 48.153 18.5107 47.9804 18.464C47.8077 18.4127 47.6327 18.387 47.4554 18.387C47.2687 18.387 47.075 18.4103 46.8744 18.457C46.6737 18.499 46.4894 18.5667 46.3214 18.66C46.7087 18.7347 47.0914 18.8327 47.4694 18.954C47.8474 19.0753 48.216 19.2177 48.5754 19.381ZM49.004 23.035C48.9153 23.035 48.8523 23.0117 48.815 22.965C48.7823 22.9137 48.766 22.825 48.766 22.699C48.766 22.517 48.7893 22.3257 48.836 22.125C48.8826 21.9243 48.9456 21.7307 49.025 21.544C49.1043 21.3527 49.193 21.187 49.291 21.047C49.3656 20.9443 49.466 20.8487 49.592 20.76C49.718 20.6713 49.8533 20.599 49.998 20.543C50.1426 20.487 50.278 20.459 50.404 20.459C50.446 20.459 50.4973 20.466 50.558 20.48C50.6186 20.4893 50.6653 20.508 50.698 20.536C50.7213 20.5547 50.7353 20.5803 50.74 20.613C50.7493 20.6457 50.754 20.676 50.754 20.704C50.754 20.8253 50.733 20.9677 50.691 21.131C50.6536 21.2897 50.6023 21.453 50.537 21.621C50.4716 21.789 50.4016 21.9477 50.327 22.097C50.2523 22.2417 50.1776 22.363 50.103 22.461C50.061 22.517 49.9933 22.58 49.9 22.65C49.8066 22.7153 49.704 22.7783 49.592 22.839C49.4846 22.895 49.3773 22.9417 49.27 22.979C49.1626 23.0163 49.074 23.035 49.004 23.035ZM49.193 22.839C49.4123 22.7923 49.5896 22.6873 49.725 22.524C49.8323 22.398 49.9326 22.2323 50.026 22.027C50.1193 21.8217 50.194 21.6093 50.25 21.39C50.3106 21.1707 50.341 20.9793 50.341 20.816C50.341 20.802 50.3386 20.7787 50.334 20.746C50.334 20.7133 50.327 20.6947 50.313 20.69C50.257 20.662 50.194 20.648 50.124 20.648C50.0773 20.648 50.0166 20.6643 49.942 20.697C49.8673 20.725 49.8113 20.7577 49.774 20.795C49.7506 20.8183 49.7273 20.851 49.704 20.893C49.6853 20.9303 49.6666 20.963 49.648 20.991C49.5593 21.131 49.473 21.2943 49.389 21.481C49.3096 21.6677 49.2443 21.859 49.193 22.055C49.1416 22.251 49.116 22.4353 49.116 22.608C49.116 22.664 49.1206 22.7153 49.13 22.762C49.144 22.804 49.165 22.8297 49.193 22.839ZM50.9796 23.035C50.8909 23.035 50.8279 23.0117 50.7906 22.965C50.7579 22.9137 50.7416 22.825 50.7416 22.699C50.7416 22.517 50.7649 22.3257 50.8116 22.125C50.8582 21.9243 50.9212 21.7307 51.0006 21.544C51.0799 21.3527 51.1686 21.187 51.2666 21.047C51.3412 20.9443 51.4416 20.8487 51.5676 20.76C51.6936 20.6713 51.8289 20.599 51.9736 20.543C52.1182 20.487 52.2536 20.459 52.3796 20.459C52.4216 20.459 52.4729 20.466 52.5336 20.48C52.5942 20.4893 52.6409 20.508 52.6736 20.536C52.6969 20.5547 52.7109 20.5803 52.7156 20.613C52.7249 20.6457 52.7296 20.676 52.7296 20.704C52.7296 20.8253 52.7086 20.9677 52.6666 21.131C52.6292 21.2897 52.5779 21.453 52.5126 21.621C52.4472 21.789 52.3772 21.9477 52.3026 22.097C52.2279 22.2417 52.1532 22.363 52.0786 22.461C52.0366 22.517 51.9689 22.58 51.8756 22.65C51.7822 22.7153 51.6796 22.7783 51.5676 22.839C51.4602 22.895 51.3529 22.9417 51.2456 22.979C51.1382 23.0163 51.0496 23.035 50.9796 23.035ZM51.1686 22.839C51.3879 22.7923 51.5652 22.6873 51.7006 22.524C51.8079 22.398 51.9082 22.2323 52.0016 22.027C52.0949 21.8217 52.1696 21.6093 52.2256 21.39C52.2862 21.1707 52.3166 20.9793 52.3166 20.816C52.3166 20.802 52.3142 20.7787 52.3096 20.746C52.3096 20.7133 52.3026 20.6947 52.2886 20.69C52.2326 20.662 52.1696 20.648 52.0996 20.648C52.0529 20.648 51.9922 20.6643 51.9176 20.697C51.8429 20.725 51.7869 20.7577 51.7496 20.795C51.7262 20.8183 51.7029 20.851 51.6796 20.893C51.6609 20.9303 51.6422 20.963 51.6236 20.991C51.5349 21.131 51.4486 21.2943 51.3646 21.481C51.2852 21.6677 51.2199 21.859 51.1686 22.055C51.1172 22.251 51.0916 22.4353 51.0916 22.608C51.0916 22.664 51.0962 22.7153 51.1056 22.762C51.1196 22.804 51.1406 22.8297 51.1686 22.839ZM52.4651 23.091C52.4558 23.091 52.4511 23.0887 52.4511 23.084C52.4511 23.0653 52.4605 23.0467 52.4791 23.028C52.4931 23.014 52.5048 23 52.5141 22.986C52.5561 22.916 52.6028 22.797 52.6541 22.629C52.7101 22.4563 52.7638 22.2673 52.8151 22.062C52.8711 21.8567 52.9201 21.6653 52.9621 21.488C53.0088 21.306 53.0415 21.1683 53.0601 21.075C53.0695 21.0377 53.0788 20.9887 53.0881 20.928C53.1021 20.8673 53.1185 20.8067 53.1371 20.746C53.1558 20.6853 53.1768 20.6457 53.2001 20.627C53.2421 20.5897 53.3051 20.557 53.3891 20.529C53.4731 20.501 53.5571 20.48 53.6411 20.466C53.7298 20.4473 53.8021 20.438 53.8581 20.438C53.8675 20.438 53.8791 20.4427 53.8931 20.452C53.9071 20.4613 53.9165 20.4707 53.9211 20.48L53.9281 20.501C53.9235 20.515 53.9165 20.522 53.9071 20.522C53.8978 20.5173 53.8885 20.515 53.8791 20.515C53.7905 20.515 53.7088 20.5663 53.6341 20.669C53.5595 20.767 53.4941 20.8883 53.4381 21.033C53.3821 21.1777 53.3331 21.3177 53.2911 21.453C53.2538 21.5837 53.2281 21.6817 53.2141 21.747C53.2608 21.6397 53.3215 21.5183 53.3961 21.383C53.4755 21.243 53.5665 21.11 53.6691 20.984C53.7718 20.8533 53.8838 20.746 54.0051 20.662C54.1265 20.5733 54.2548 20.529 54.3901 20.529C54.4088 20.529 54.4391 20.5337 54.4811 20.543C54.5278 20.5477 54.5698 20.5593 54.6071 20.578C54.6491 20.592 54.6701 20.6107 54.6701 20.634L54.6631 20.641H54.6561L54.6141 20.627C54.6281 20.6597 54.6375 20.6923 54.6421 20.725C54.6468 20.7577 54.6491 20.7903 54.6491 20.823C54.6491 20.851 54.6398 20.9117 54.6211 21.005C54.6071 21.0983 54.5861 21.187 54.5581 21.271C54.5348 21.3503 54.5091 21.39 54.4811 21.39C54.4625 21.39 54.4531 21.383 54.4531 21.369C54.4531 21.3457 54.4601 21.3083 54.4741 21.257C54.4928 21.201 54.5021 21.1497 54.5021 21.103C54.5021 21.019 54.4811 20.9513 54.4391 20.9C54.3971 20.8487 54.3341 20.823 54.2501 20.823C54.1101 20.823 53.9748 20.8837 53.8441 21.005C53.7135 21.1217 53.5945 21.2687 53.4871 21.446C53.3798 21.6187 53.2888 21.7937 53.2141 21.971C53.1395 22.1483 53.0881 22.293 53.0601 22.405C53.0415 22.4657 53.0251 22.545 53.0111 22.643C52.9971 22.7363 52.9621 22.8017 52.9061 22.839C52.8921 22.8437 52.8478 22.867 52.7731 22.909C52.7031 22.951 52.6355 22.9907 52.5701 23.028C52.5001 23.07 52.4651 23.091 52.4651 23.091ZM54.5726 23.014C54.498 23.014 54.449 22.986 54.4256 22.93C54.407 22.8693 54.3976 22.8087 54.3976 22.748C54.3976 22.5287 54.4396 22.293 54.5236 22.041C54.6076 21.789 54.7173 21.5487 54.8526 21.32C54.988 21.0867 55.135 20.8953 55.2936 20.746C55.387 20.662 55.478 20.6013 55.5666 20.564C55.6553 20.522 55.765 20.501 55.8956 20.501C55.9703 20.501 56.045 20.5057 56.1196 20.515C56.1943 20.5243 56.269 20.536 56.3436 20.55C56.577 20.032 56.794 19.507 56.9946 18.975C57.0366 18.8677 57.1066 18.779 57.2046 18.709C57.284 18.6577 57.382 18.6157 57.4986 18.583C57.6153 18.5503 57.718 18.534 57.8066 18.534C57.816 18.534 57.8276 18.5387 57.8416 18.548C57.8556 18.5573 57.865 18.5667 57.8696 18.576V18.597C57.865 18.611 57.858 18.618 57.8486 18.618C57.8393 18.6133 57.83 18.611 57.8206 18.611C57.7553 18.611 57.6783 18.66 57.5896 18.758C57.5056 18.856 57.4146 18.9843 57.3166 19.143C57.2233 19.3017 57.13 19.4767 57.0366 19.668C56.9433 19.8547 56.8546 20.039 56.7706 20.221C56.6913 20.3983 56.6213 20.5593 56.5606 20.704C56.5046 20.844 56.4626 20.9467 56.4346 21.012C56.402 21.1007 56.3576 21.215 56.3016 21.355C56.2456 21.495 56.192 21.6443 56.1406 21.803C56.0893 21.9617 56.045 22.111 56.0076 22.251C55.9703 22.391 55.9516 22.5077 55.9516 22.601C55.9516 22.629 55.9563 22.6617 55.9656 22.699C55.975 22.7363 55.9983 22.755 56.0356 22.755C56.059 22.755 56.0776 22.7503 56.0916 22.741C56.1103 22.7317 56.129 22.7223 56.1476 22.713C56.255 22.6523 56.3576 22.5707 56.4556 22.468C56.5583 22.3607 56.6516 22.2463 56.7356 22.125C56.8196 21.999 56.8873 21.8847 56.9386 21.782C56.948 21.7867 56.9526 21.796 56.9526 21.81C56.9526 21.8427 56.9246 21.901 56.8686 21.985C56.8173 22.0643 56.7636 22.1413 56.7076 22.216C56.6563 22.286 56.6283 22.3303 56.6236 22.349C56.619 22.3817 56.612 22.4097 56.6026 22.433C56.5933 22.4517 56.5793 22.4773 56.5606 22.51C56.5 22.5707 56.423 22.6407 56.3296 22.72C56.2363 22.7993 56.1383 22.8693 56.0356 22.93C55.9376 22.986 55.842 23.014 55.7486 23.014C55.604 23.014 55.5316 22.937 55.5316 22.783C55.5316 22.6897 55.5503 22.5823 55.5876 22.461C55.6296 22.3397 55.6763 22.2183 55.7276 22.097C55.7836 21.9757 55.8326 21.873 55.8746 21.789C55.8233 21.8637 55.744 21.9687 55.6366 22.104C55.534 22.2393 55.4173 22.377 55.2866 22.517C55.1606 22.657 55.0346 22.776 54.9086 22.874C54.7826 22.9673 54.6706 23.014 54.5726 23.014ZM54.8806 22.713C54.932 22.713 54.995 22.6803 55.0696 22.615C55.149 22.5497 55.2306 22.4703 55.3146 22.377C55.4033 22.279 55.4803 22.188 55.5456 22.104C55.6156 22.0153 55.6646 21.95 55.6926 21.908C55.7486 21.824 55.8116 21.7167 55.8816 21.586C55.9516 21.4553 56.0123 21.3223 56.0636 21.187C56.1196 21.0517 56.1476 20.9373 56.1476 20.844C56.1476 20.6993 56.0776 20.627 55.9376 20.627C55.849 20.627 55.758 20.6643 55.6646 20.739C55.576 20.8137 55.5036 20.8813 55.4476 20.942C55.387 21.0167 55.317 21.124 55.2376 21.264C55.163 21.404 55.093 21.5557 55.0276 21.719C54.9623 21.8823 54.9063 22.0387 54.8596 22.188C54.8176 22.3373 54.7966 22.461 54.7966 22.559C54.7966 22.587 54.8013 22.6197 54.8106 22.657C54.82 22.6943 54.8433 22.713 54.8806 22.713ZM58.0182 19.99C57.9808 19.99 57.9225 19.976 57.8432 19.948C57.7685 19.9153 57.7312 19.8757 57.7312 19.829C57.7312 19.8243 57.7312 19.822 57.7312 19.822C57.7358 19.8173 57.7382 19.8127 57.7382 19.808C57.7615 19.7613 57.8128 19.7333 57.8922 19.724C57.9762 19.7147 58.0392 19.7007 58.0812 19.682C58.1745 19.6447 58.2655 19.6143 58.3542 19.591C58.4428 19.5677 58.5268 19.5257 58.6062 19.465C58.6248 19.4743 58.6342 19.4837 58.6342 19.493C58.6342 19.5117 58.6132 19.5373 58.5712 19.57C58.5338 19.6027 58.5082 19.6307 58.4942 19.654C58.4755 19.682 58.4335 19.724 58.3682 19.78C58.3075 19.8313 58.2422 19.8803 58.1722 19.927C58.1022 19.969 58.0508 19.99 58.0182 19.99ZM56.8352 23.021C56.7605 23.021 56.7092 23.0023 56.6812 22.965C56.6532 22.9277 56.6392 22.874 56.6392 22.804C56.6392 22.65 56.6695 22.4633 56.7302 22.244C56.7955 22.0247 56.8678 21.803 56.9472 21.579C57.0265 21.3503 57.0895 21.1473 57.1362 20.97C57.1548 20.9047 57.1992 20.8603 57.2692 20.837C57.3438 20.809 57.4068 20.7763 57.4582 20.739C57.5328 20.6877 57.6122 20.6457 57.6962 20.613C57.7802 20.5757 57.8688 20.557 57.9622 20.557C57.9855 20.557 57.9995 20.5617 58.0042 20.571C58.0135 20.5803 58.0182 20.5873 58.0182 20.592C58.0182 20.62 58.0018 20.634 57.9692 20.634C57.9038 20.634 57.8362 20.6737 57.7662 20.753C57.6962 20.8277 57.6262 20.9257 57.5562 21.047C57.4862 21.1683 57.4232 21.2943 57.3672 21.425C57.3112 21.5557 57.2622 21.677 57.2202 21.789C57.1782 21.8963 57.1502 21.9757 57.1362 22.027C57.1128 22.1017 57.0895 22.1903 57.0662 22.293C57.0428 22.391 57.0312 22.482 57.0312 22.566C57.0312 22.5987 57.0358 22.6383 57.0452 22.685C57.0545 22.727 57.0825 22.748 57.1292 22.748C57.1618 22.748 57.1968 22.7363 57.2342 22.713C57.3368 22.6523 57.4372 22.5707 57.5352 22.468C57.6378 22.3607 57.7312 22.2463 57.8152 22.125C57.9038 21.999 57.9738 21.8847 58.0252 21.782C58.0345 21.7867 58.0392 21.796 58.0392 21.81C58.0392 21.838 58.0228 21.88 57.9902 21.936C57.9575 21.9873 57.9202 22.0433 57.8782 22.104C57.8362 22.1647 57.7965 22.2183 57.7592 22.265C57.7265 22.3117 57.7102 22.3397 57.7102 22.349C57.7055 22.3863 57.6985 22.4143 57.6892 22.433C57.6798 22.447 57.6658 22.4727 57.6472 22.51C57.5912 22.566 57.5165 22.636 57.4232 22.72C57.3298 22.7993 57.2318 22.8693 57.1292 22.93C57.0265 22.9907 56.9285 23.021 56.8352 23.021ZM57.5167 23.091C57.5121 23.091 57.5097 23.0887 57.5097 23.084C57.5097 23.0653 57.5191 23.0467 57.5377 23.028C57.5517 23.0093 57.5611 22.9953 57.5657 22.986C57.5984 22.9347 57.6381 22.8483 57.6847 22.727C57.7267 22.601 57.7687 22.461 57.8107 22.307C57.8574 22.1483 57.8994 21.9897 57.9367 21.831C57.9787 21.6677 58.0161 21.5183 58.0487 21.383C58.0814 21.2477 58.1047 21.145 58.1187 21.075C58.1281 21.0377 58.1374 20.9887 58.1467 20.928C58.1561 20.8673 58.1701 20.8067 58.1887 20.746C58.2074 20.6853 58.2284 20.6457 58.2517 20.627C58.2984 20.5897 58.3614 20.557 58.4407 20.529C58.5247 20.501 58.6111 20.48 58.6997 20.466C58.7884 20.4473 58.8607 20.438 58.9167 20.438C58.9261 20.438 58.9377 20.4427 58.9517 20.452C58.9657 20.4613 58.9751 20.4707 58.9797 20.48V20.501C58.9797 20.515 58.9751 20.522 58.9657 20.522C58.9564 20.5173 58.9471 20.515 58.9377 20.515C58.8351 20.515 58.7441 20.5733 58.6647 20.69C58.5854 20.802 58.5177 20.942 58.4617 21.11C58.4057 21.2733 58.3591 21.432 58.3217 21.586C58.2844 21.74 58.2564 21.8567 58.2377 21.936C58.3871 21.6793 58.5574 21.4343 58.7487 21.201C58.9447 20.963 59.1734 20.7717 59.4347 20.627C59.4674 20.6083 59.5047 20.5897 59.5467 20.571C59.5887 20.5477 59.6261 20.536 59.6587 20.536C59.7194 20.536 59.7567 20.564 59.7707 20.62C59.7847 20.6713 59.7917 20.7203 59.7917 20.767C59.7917 20.8277 59.7707 20.9163 59.7287 21.033C59.6867 21.1497 59.6377 21.2663 59.5817 21.383C59.5304 21.495 59.4907 21.5837 59.4627 21.649C59.4347 21.7237 59.4021 21.8193 59.3647 21.936C59.3274 22.0527 59.2947 22.1693 59.2667 22.286C59.2387 22.4027 59.2247 22.5007 59.2247 22.58C59.2247 22.6127 59.2294 22.65 59.2387 22.692C59.2481 22.734 59.2737 22.755 59.3157 22.755C59.3391 22.755 59.3577 22.7503 59.3717 22.741C59.3904 22.7317 59.4091 22.7223 59.4277 22.713C59.5351 22.6523 59.6377 22.5707 59.7357 22.468C59.8384 22.3607 59.9317 22.2463 60.0157 22.125C60.0997 21.999 60.1697 21.8847 60.2257 21.782C60.2304 21.7867 60.2327 21.796 60.2327 21.81C60.2327 21.838 60.2164 21.88 60.1837 21.936C60.1511 21.9873 60.1137 22.0433 60.0717 22.104C60.0297 22.1647 59.9901 22.2183 59.9527 22.265C59.9201 22.3117 59.9037 22.3397 59.9037 22.349C59.8991 22.3817 59.8921 22.4097 59.8827 22.433C59.8734 22.4517 59.8617 22.4773 59.8477 22.51C59.7917 22.566 59.7101 22.636 59.6027 22.72C59.5001 22.7993 59.3927 22.8717 59.2807 22.937C59.1734 22.9977 59.0777 23.028 58.9937 23.028C58.9191 23.028 58.8677 23 58.8397 22.944C58.8164 22.8833 58.8047 22.8203 58.8047 22.755C58.8047 22.629 58.8304 22.4797 58.8817 22.307C58.9331 22.1297 58.9937 21.9547 59.0637 21.782C59.1337 21.6047 59.1921 21.4553 59.2387 21.334C59.2527 21.2967 59.2737 21.2383 59.3017 21.159C59.3344 21.0797 59.3507 21.0237 59.3507 20.991C59.3507 20.9677 59.3461 20.942 59.3367 20.914C59.3321 20.886 59.3111 20.872 59.2737 20.872C59.2271 20.872 59.1664 20.9023 59.0917 20.963C59.0217 21.0237 58.9681 21.0727 58.9307 21.11C58.7301 21.334 58.5574 21.5837 58.4127 21.859C58.2681 22.1297 58.1467 22.4097 58.0487 22.699C58.0347 22.7363 58.0254 22.7643 58.0207 22.783C58.0207 22.797 58.0021 22.8157 57.9647 22.839C57.9507 22.8483 57.9064 22.874 57.8317 22.916C57.7617 22.958 57.6941 22.9977 57.6287 23.035C57.5587 23.0723 57.5214 23.091 57.5167 23.091ZM60.0961 23.014C60.0214 23.014 59.9724 22.986 59.9491 22.93C59.9304 22.8693 59.9211 22.8087 59.9211 22.748C59.9211 22.5287 59.9631 22.293 60.0471 22.041C60.1311 21.789 60.2407 21.5487 60.3761 21.32C60.5114 21.0867 60.6584 20.8953 60.8171 20.746C60.9851 20.592 61.1834 20.515 61.4121 20.515C61.5054 20.515 61.5964 20.5267 61.6851 20.55C61.7784 20.5687 61.8694 20.5967 61.9581 20.634C62.0374 20.578 62.1237 20.529 62.2171 20.487C62.3104 20.445 62.4061 20.424 62.5041 20.424C62.5274 20.424 62.5461 20.438 62.5601 20.466V20.487C62.5601 20.501 62.5531 20.508 62.5391 20.508C62.5297 20.5033 62.5204 20.501 62.5111 20.501C62.4364 20.501 62.3547 20.5593 62.2661 20.676C62.1774 20.788 62.0887 20.9327 62.0001 21.11C61.9114 21.2873 61.8297 21.474 61.7551 21.67C61.6851 21.866 61.6267 22.0457 61.5801 22.209C61.5381 22.3723 61.5171 22.496 61.5171 22.58C61.5171 22.6127 61.5217 22.65 61.5311 22.692C61.5451 22.734 61.5731 22.755 61.6151 22.755C61.6384 22.755 61.6571 22.7503 61.6711 22.741C61.6897 22.7317 61.7084 22.7223 61.7271 22.713C61.8297 22.6523 61.9301 22.5707 62.0281 22.468C62.1307 22.3607 62.2241 22.2463 62.3081 22.125C62.3967 21.999 62.4691 21.8847 62.5251 21.782C62.5297 21.7867 62.5321 21.796 62.5321 21.81C62.5321 21.838 62.5157 21.88 62.4831 21.936C62.4504 21.9873 62.4131 22.0433 62.3711 22.104C62.3291 22.1647 62.2894 22.2183 62.2521 22.265C62.2194 22.3117 62.2031 22.3397 62.2031 22.349C62.1984 22.3817 62.1914 22.4097 62.1821 22.433C62.1727 22.4517 62.1587 22.4773 62.1401 22.51C62.0794 22.5707 62.0024 22.6407 61.9091 22.72C61.8157 22.7993 61.7177 22.8693 61.6151 22.93C61.5171 22.986 61.4214 23.014 61.3281 23.014C61.1834 23.014 61.1111 22.937 61.1111 22.783C61.1111 22.6897 61.1297 22.5823 61.1671 22.461C61.2091 22.335 61.2557 22.2113 61.3071 22.09C61.3631 21.964 61.4121 21.859 61.4541 21.775C61.4541 21.7703 61.4541 21.7633 61.4541 21.754C61.4541 21.7447 61.4517 21.74 61.4471 21.74C61.4424 21.74 61.4354 21.7447 61.4261 21.754C61.3701 21.8287 61.2884 21.936 61.1811 22.076C61.0737 22.216 60.9547 22.3583 60.8241 22.503C60.6981 22.643 60.5697 22.7643 60.4391 22.867C60.3084 22.965 60.1941 23.014 60.0961 23.014ZM60.4041 22.713C60.4554 22.713 60.5184 22.6803 60.5931 22.615C60.6724 22.545 60.7541 22.4633 60.8381 22.37C60.9267 22.272 61.0037 22.1787 61.0691 22.09C61.1391 22.0013 61.1881 21.936 61.2161 21.894C61.2721 21.81 61.3351 21.705 61.4051 21.579C61.4797 21.453 61.5427 21.3223 61.5941 21.187C61.6501 21.0517 61.6781 20.9373 61.6781 20.844C61.6781 20.6993 61.6057 20.627 61.4611 20.627C61.3771 20.627 61.2884 20.6643 61.1951 20.739C61.1017 20.8137 61.0271 20.8813 60.9711 20.942C60.9104 21.0167 60.8404 21.124 60.7611 21.264C60.6864 21.404 60.6164 21.5557 60.5511 21.719C60.4857 21.8823 60.4297 22.0387 60.3831 22.188C60.3411 22.3373 60.3201 22.461 60.3201 22.559C60.3201 22.587 60.3247 22.6197 60.3341 22.657C60.3434 22.6943 60.3667 22.713 60.4041 22.713ZM62.4484 23.021C62.3738 23.021 62.3224 23.0023 62.2944 22.965C62.2664 22.9277 62.2524 22.874 62.2524 22.804C62.2524 22.6827 62.2804 22.531 62.3364 22.349C62.3924 22.1623 62.4624 21.9663 62.5464 21.761C62.6304 21.551 62.7121 21.3527 62.7914 21.166C62.8754 20.9747 62.9431 20.8183 62.9944 20.697C62.9338 20.7017 62.8731 20.704 62.8124 20.704C62.7518 20.704 62.6888 20.7063 62.6234 20.711C62.6141 20.7017 62.6094 20.6923 62.6094 20.683C62.6094 20.655 62.6281 20.6223 62.6654 20.585C62.7028 20.5477 62.7448 20.5173 62.7914 20.494C62.8428 20.466 62.8801 20.452 62.9034 20.452H63.0994C63.1461 20.34 63.1928 20.228 63.2394 20.116C63.2908 20.004 63.3374 19.892 63.3794 19.78C63.4028 19.7193 63.4284 19.6703 63.4564 19.633C63.4891 19.591 63.5334 19.5513 63.5894 19.514C63.6688 19.4627 63.7668 19.4207 63.8834 19.388C64.0001 19.3553 64.1028 19.339 64.1914 19.339C64.2008 19.339 64.2101 19.3437 64.2194 19.353C64.2334 19.3623 64.2428 19.3693 64.2474 19.374V19.402C64.2474 19.416 64.2404 19.4207 64.2264 19.416C64.2171 19.4113 64.2078 19.409 64.1984 19.409C64.1424 19.409 64.0771 19.4557 64.0024 19.549C63.9278 19.6377 63.8508 19.745 63.7714 19.871C63.6921 19.997 63.6221 20.1183 63.5614 20.235C63.5054 20.347 63.4658 20.424 63.4424 20.466H63.7224C63.7971 20.466 63.8718 20.466 63.9464 20.466C64.0211 20.4613 64.0958 20.4543 64.1704 20.445L64.1774 20.459C64.1728 20.459 64.1704 20.4613 64.1704 20.466C64.1704 20.4707 64.1681 20.473 64.1634 20.473C64.1494 20.487 64.1144 20.5103 64.0584 20.543C64.0024 20.571 63.9464 20.5967 63.8904 20.62C63.8344 20.6433 63.7948 20.6573 63.7714 20.662C63.6968 20.6713 63.6221 20.6783 63.5474 20.683C63.4774 20.6877 63.4051 20.69 63.3304 20.69C63.2838 20.7927 63.2231 20.928 63.1484 21.096C63.0738 21.264 62.9991 21.4437 62.9244 21.635C62.8498 21.8217 62.7868 22.0013 62.7354 22.174C62.6888 22.342 62.6654 22.482 62.6654 22.594C62.6654 22.622 62.6701 22.6547 62.6794 22.692C62.6888 22.7293 62.7121 22.748 62.7494 22.748C62.7821 22.748 62.8148 22.7363 62.8474 22.713C62.9501 22.6523 63.0504 22.5707 63.1484 22.468C63.2511 22.3607 63.3444 22.2463 63.4284 22.125C63.5171 21.999 63.5871 21.8847 63.6384 21.782C63.6478 21.7867 63.6524 21.796 63.6524 21.81C63.6524 21.838 63.6361 21.88 63.6034 21.936C63.5708 21.9873 63.5334 22.0433 63.4914 22.104C63.4494 22.1647 63.4098 22.2183 63.3724 22.265C63.3398 22.3117 63.3234 22.3397 63.3234 22.349C63.3188 22.3863 63.3094 22.4143 63.2954 22.433C63.2861 22.447 63.2744 22.4727 63.2604 22.51C63.1998 22.566 63.1228 22.636 63.0294 22.72C62.9361 22.7993 62.8381 22.8693 62.7354 22.93C62.6328 22.9907 62.5371 23.021 62.4484 23.021ZM64.9361 19.99C64.8988 19.99 64.8405 19.976 64.7611 19.948C64.6865 19.9153 64.6491 19.8757 64.6491 19.829C64.6491 19.8243 64.6491 19.822 64.6491 19.822C64.6538 19.8173 64.6561 19.8127 64.6561 19.808C64.6795 19.7613 64.7308 19.7333 64.8101 19.724C64.8941 19.7147 64.9571 19.7007 64.9991 19.682C65.0925 19.6447 65.1835 19.6143 65.2721 19.591C65.3608 19.5677 65.4448 19.5257 65.5241 19.465C65.5428 19.4743 65.5521 19.4837 65.5521 19.493C65.5521 19.5117 65.5311 19.5373 65.4891 19.57C65.4518 19.6027 65.4261 19.6307 65.4121 19.654C65.3935 19.682 65.3515 19.724 65.2861 19.78C65.2255 19.8313 65.1601 19.8803 65.0901 19.927C65.0201 19.969 64.9688 19.99 64.9361 19.99ZM63.7531 23.021C63.6785 23.021 63.6271 23.0023 63.5991 22.965C63.5711 22.9277 63.5571 22.874 63.5571 22.804C63.5571 22.65 63.5875 22.4633 63.6481 22.244C63.7135 22.0247 63.7858 21.803 63.8651 21.579C63.9445 21.3503 64.0075 21.1473 64.0541 20.97C64.0728 20.9047 64.1171 20.8603 64.1871 20.837C64.2618 20.809 64.3248 20.7763 64.3761 20.739C64.4508 20.6877 64.5301 20.6457 64.6141 20.613C64.6981 20.5757 64.7868 20.557 64.8801 20.557C64.9035 20.557 64.9175 20.5617 64.9221 20.571C64.9315 20.5803 64.9361 20.5873 64.9361 20.592C64.9361 20.62 64.9198 20.634 64.8871 20.634C64.8218 20.634 64.7541 20.6737 64.6841 20.753C64.6141 20.8277 64.5441 20.9257 64.4741 21.047C64.4041 21.1683 64.3411 21.2943 64.2851 21.425C64.2291 21.5557 64.1801 21.677 64.1381 21.789C64.0961 21.8963 64.0681 21.9757 64.0541 22.027C64.0308 22.1017 64.0075 22.1903 63.9841 22.293C63.9608 22.391 63.9491 22.482 63.9491 22.566C63.9491 22.5987 63.9538 22.6383 63.9631 22.685C63.9725 22.727 64.0005 22.748 64.0471 22.748C64.0798 22.748 64.1148 22.7363 64.1521 22.713C64.2548 22.6523 64.3551 22.5707 64.4531 22.468C64.5558 22.3607 64.6491 22.2463 64.7331 22.125C64.8218 21.999 64.8918 21.8847 64.9431 21.782C64.9525 21.7867 64.9571 21.796 64.9571 21.81C64.9571 21.838 64.9408 21.88 64.9081 21.936C64.8755 21.9873 64.8381 22.0433 64.7961 22.104C64.7541 22.1647 64.7145 22.2183 64.6771 22.265C64.6445 22.3117 64.6281 22.3397 64.6281 22.349C64.6235 22.3863 64.6165 22.4143 64.6071 22.433C64.5978 22.447 64.5838 22.4727 64.5651 22.51C64.5091 22.566 64.4345 22.636 64.3411 22.72C64.2478 22.7993 64.1498 22.8693 64.0471 22.93C63.9445 22.9907 63.8465 23.021 63.7531 23.021ZM64.9317 23.035C64.843 23.035 64.78 23.0117 64.7427 22.965C64.71 22.9137 64.6937 22.825 64.6937 22.699C64.6937 22.517 64.717 22.3257 64.7637 22.125C64.8104 21.9243 64.8734 21.7307 64.9527 21.544C65.032 21.3527 65.1207 21.187 65.2187 21.047C65.2934 20.9443 65.3937 20.8487 65.5197 20.76C65.6457 20.6713 65.781 20.599 65.9257 20.543C66.0704 20.487 66.2057 20.459 66.3317 20.459C66.3737 20.459 66.425 20.466 66.4857 20.48C66.5464 20.4893 66.593 20.508 66.6257 20.536C66.649 20.5547 66.663 20.5803 66.6677 20.613C66.677 20.6457 66.6817 20.676 66.6817 20.704C66.6817 20.8253 66.6607 20.9677 66.6187 21.131C66.5814 21.2897 66.53 21.453 66.4647 21.621C66.3994 21.789 66.3294 21.9477 66.2547 22.097C66.18 22.2417 66.1054 22.363 66.0307 22.461C65.9887 22.517 65.921 22.58 65.8277 22.65C65.7344 22.7153 65.6317 22.7783 65.5197 22.839C65.4124 22.895 65.305 22.9417 65.1977 22.979C65.0904 23.0163 65.0017 23.035 64.9317 23.035ZM65.1207 22.839C65.34 22.7923 65.5174 22.6873 65.6527 22.524C65.76 22.398 65.8604 22.2323 65.9537 22.027C66.047 21.8217 66.1217 21.6093 66.1777 21.39C66.2384 21.1707 66.2687 20.9793 66.2687 20.816C66.2687 20.802 66.2664 20.7787 66.2617 20.746C66.2617 20.7133 66.2547 20.6947 66.2407 20.69C66.1847 20.662 66.1217 20.648 66.0517 20.648C66.005 20.648 65.9444 20.6643 65.8697 20.697C65.795 20.725 65.739 20.7577 65.7017 20.795C65.6784 20.8183 65.655 20.851 65.6317 20.893C65.613 20.9303 65.5944 20.963 65.5757 20.991C65.487 21.131 65.4007 21.2943 65.3167 21.481C65.2374 21.6677 65.172 21.859 65.1207 22.055C65.0694 22.251 65.0437 22.4353 65.0437 22.608C65.0437 22.664 65.0484 22.7153 65.0577 22.762C65.0717 22.804 65.0927 22.8297 65.1207 22.839ZM66.4103 23.091C66.4056 23.091 66.4033 23.0887 66.4033 23.084C66.4033 23.0653 66.4126 23.0467 66.4313 23.028C66.4453 23.0093 66.4546 22.9953 66.4593 22.986C66.492 22.9347 66.5316 22.8483 66.5783 22.727C66.6203 22.601 66.6623 22.461 66.7043 22.307C66.751 22.1483 66.793 21.9897 66.8303 21.831C66.8723 21.6677 66.9096 21.5183 66.9423 21.383C66.975 21.2477 66.9983 21.145 67.0123 21.075C67.0216 21.0377 67.031 20.9887 67.0403 20.928C67.0496 20.8673 67.0636 20.8067 67.0823 20.746C67.101 20.6853 67.122 20.6457 67.1453 20.627C67.192 20.5897 67.255 20.557 67.3343 20.529C67.4183 20.501 67.5046 20.48 67.5933 20.466C67.682 20.4473 67.7543 20.438 67.8103 20.438C67.8196 20.438 67.8313 20.4427 67.8453 20.452C67.8593 20.4613 67.8686 20.4707 67.8733 20.48V20.501C67.8733 20.515 67.8686 20.522 67.8593 20.522C67.85 20.5173 67.8406 20.515 67.8313 20.515C67.7286 20.515 67.6376 20.5733 67.5583 20.69C67.479 20.802 67.4113 20.942 67.3553 21.11C67.2993 21.2733 67.2526 21.432 67.2153 21.586C67.178 21.74 67.15 21.8567 67.1313 21.936C67.2806 21.6793 67.451 21.4343 67.6423 21.201C67.8383 20.963 68.067 20.7717 68.3283 20.627C68.361 20.6083 68.3983 20.5897 68.4403 20.571C68.4823 20.5477 68.5196 20.536 68.5523 20.536C68.613 20.536 68.6503 20.564 68.6643 20.62C68.6783 20.6713 68.6853 20.7203 68.6853 20.767C68.6853 20.8277 68.6643 20.9163 68.6223 21.033C68.5803 21.1497 68.5313 21.2663 68.4753 21.383C68.424 21.495 68.3843 21.5837 68.3563 21.649C68.3283 21.7237 68.2956 21.8193 68.2583 21.936C68.221 22.0527 68.1883 22.1693 68.1603 22.286C68.1323 22.4027 68.1183 22.5007 68.1183 22.58C68.1183 22.6127 68.123 22.65 68.1323 22.692C68.1416 22.734 68.1673 22.755 68.2093 22.755C68.2326 22.755 68.2513 22.7503 68.2653 22.741C68.284 22.7317 68.3026 22.7223 68.3213 22.713C68.4286 22.6523 68.5313 22.5707 68.6293 22.468C68.732 22.3607 68.8253 22.2463 68.9093 22.125C68.9933 21.999 69.0633 21.8847 69.1193 21.782C69.124 21.7867 69.1263 21.796 69.1263 21.81C69.1263 21.838 69.11 21.88 69.0773 21.936C69.0446 21.9873 69.0073 22.0433 68.9653 22.104C68.9233 22.1647 68.8836 22.2183 68.8463 22.265C68.8136 22.3117 68.7973 22.3397 68.7973 22.349C68.7926 22.3817 68.7856 22.4097 68.7763 22.433C68.767 22.4517 68.7553 22.4773 68.7413 22.51C68.6853 22.566 68.6036 22.636 68.4963 22.72C68.3936 22.7993 68.2863 22.8717 68.1743 22.937C68.067 22.9977 67.9713 23.028 67.8873 23.028C67.8126 23.028 67.7613 23 67.7333 22.944C67.71 22.8833 67.6983 22.8203 67.6983 22.755C67.6983 22.629 67.724 22.4797 67.7753 22.307C67.8266 22.1297 67.8873 21.9547 67.9573 21.782C68.0273 21.6047 68.0856 21.4553 68.1323 21.334C68.1463 21.2967 68.1673 21.2383 68.1953 21.159C68.228 21.0797 68.2443 21.0237 68.2443 20.991C68.2443 20.9677 68.2396 20.942 68.2303 20.914C68.2256 20.886 68.2046 20.872 68.1673 20.872C68.1206 20.872 68.06 20.9023 67.9853 20.963C67.9153 21.0237 67.8616 21.0727 67.8243 21.11C67.6236 21.334 67.451 21.5837 67.3063 21.859C67.1616 22.1297 67.0403 22.4097 66.9423 22.699C66.9283 22.7363 66.919 22.7643 66.9143 22.783C66.9143 22.797 66.8956 22.8157 66.8583 22.839C66.8443 22.8483 66.8 22.874 66.7253 22.916C66.6553 22.958 66.5876 22.9977 66.5223 23.035C66.4523 23.0723 66.415 23.091 66.4103 23.091Z" fill="#8A84B4"/>
<path d="M14.688 16.984C14.3253 16.984 13.9627 16.9413 13.6 16.856C13.248 16.7707 12.9173 16.632 12.608 16.44C12.224 16.2053 11.92 15.8853 11.696 15.48C11.472 15.0853 11.36 14.6693 11.36 14.232C11.36 14.1573 11.376 14.1147 11.408 14.104C11.44 14.1253 11.4667 14.1733 11.488 14.248C11.5093 14.312 11.5413 14.344 11.584 14.344C11.6373 14.344 11.68 14.3067 11.712 14.232C11.744 14.1467 11.7653 14.0933 11.776 14.072C11.8293 13.9547 11.872 13.864 11.904 13.8C11.936 13.736 12.0107 13.6667 12.128 13.592C12.1707 13.5707 12.24 13.5387 12.336 13.496C12.4427 13.4533 12.544 13.416 12.64 13.384C12.7467 13.3413 12.816 13.32 12.848 13.32C12.8587 13.32 12.864 13.3253 12.864 13.336C12.864 13.3573 12.8 13.3947 12.672 13.448C12.5547 13.5013 12.432 13.5867 12.304 13.704C12.1867 13.8107 12.128 13.9653 12.128 14.168C12.128 14.2 12.1387 14.2587 12.16 14.344C12.352 15.0907 12.7253 15.6293 13.28 15.96C13.8347 16.3013 14.4747 16.472 15.2 16.472C15.8613 16.472 16.5173 16.36 17.168 16.136C17.8187 15.912 18.4373 15.6133 19.024 15.24C19.6107 14.8773 20.1333 14.472 20.592 14.024C21.0293 13.608 21.456 13.1867 21.872 12.76C22.2987 12.3227 22.7093 11.88 23.104 11.432L20.24 11.288C20.176 11.288 20.112 11.288 20.048 11.288C19.984 11.2773 19.92 11.272 19.856 11.272C19.6107 11.272 19.3227 11.304 18.992 11.368C18.6613 11.4213 18.416 11.5547 18.256 11.768C18.1813 11.8747 18.1227 11.9973 18.08 12.136C18.0373 12.2747 17.9947 12.408 17.952 12.536C17.888 12.5147 17.8293 12.4773 17.776 12.424C17.7227 12.36 17.696 12.2907 17.696 12.216C17.696 12.0987 17.7547 11.9813 17.872 11.864C18 11.7467 18.1387 11.6453 18.288 11.56C18.4373 11.464 18.56 11.3893 18.656 11.336C18.9973 11.1547 19.3493 11.0053 19.712 10.888C20.0747 10.7707 20.4533 10.712 20.848 10.712C21.3173 10.712 21.7813 10.728 22.24 10.76C22.7093 10.7813 23.1733 10.8027 23.632 10.824C24.3573 9.97067 25.0507 9.10133 25.712 8.216C26.384 7.33067 27.1093 6.488 27.888 5.688C27.3013 5.44267 26.656 5.21867 25.952 5.016C25.2587 4.80267 24.5493 4.63733 23.824 4.52C23.1093 4.392 22.432 4.328 21.792 4.328C21.408 4.328 20.992 4.36533 20.544 4.44C20.1067 4.504 19.696 4.632 19.312 4.824C18.928 5.00533 18.6187 5.272 18.384 5.624C18.192 5.89067 18.096 6.2 18.096 6.552C18.096 7 18.2293 7.37867 18.496 7.688C18.7627 7.98667 19.0933 8.21067 19.488 8.36C19.8827 8.50933 20.2773 8.584 20.672 8.584C20.832 8.584 20.9813 8.552 21.12 8.488C21.2587 8.41333 21.3813 8.32267 21.488 8.216C21.52 8.22667 21.536 8.248 21.536 8.28C21.536 8.29067 21.5307 8.30667 21.52 8.328C21.52 8.33867 21.52 8.35467 21.52 8.376C21.3813 8.57867 21.1947 8.71733 20.96 8.792C20.7253 8.856 20.4907 8.888 20.256 8.888C19.808 8.888 19.3707 8.80267 18.944 8.632C18.528 8.46133 18.1813 8.20533 17.904 7.864C17.6373 7.52267 17.504 7.10133 17.504 6.6C17.504 6.38667 17.5307 6.184 17.584 5.992C17.648 5.78933 17.7333 5.59733 17.84 5.416C18.096 4.98933 18.4373 4.65867 18.864 4.424C19.2907 4.18933 19.7493 4.024 20.24 3.928C20.7307 3.82133 21.2053 3.768 21.664 3.768C22.3787 3.768 23.1147 3.848 23.872 4.008C24.6293 4.168 25.376 4.376 26.112 4.632C26.8587 4.87733 27.5573 5.13333 28.208 5.4C28.3147 5.31467 28.448 5.224 28.608 5.128C28.768 5.02133 28.9173 4.968 29.056 4.968C29.2053 4.968 29.3227 5.016 29.408 5.112C29.4933 5.19733 29.536 5.31467 29.536 5.464C29.536 5.50667 29.5307 5.55467 29.52 5.608C29.5093 5.65067 29.4987 5.69867 29.488 5.752C29.456 5.93333 29.4133 6.05067 29.36 6.104C29.3067 6.15733 29.248 6.2 29.184 6.232C29.1307 6.25333 29.0613 6.33333 28.976 6.472C28.816 6.73867 28.6293 7.13333 28.416 7.656C28.2133 8.168 28.0053 8.744 27.792 9.384C27.5787 10.0133 27.3813 10.6533 27.2 11.304C27.0187 11.944 26.8693 12.536 26.752 13.08C26.6453 13.624 26.592 14.0613 26.592 14.392C26.592 14.5307 26.6027 14.68 26.624 14.84C26.656 15 26.7147 15.1333 26.8 15.24C26.896 15.3573 27.0347 15.416 27.216 15.416C27.3653 15.416 27.4933 15.3733 27.6 15.288C27.7067 15.2133 27.808 15.1227 27.904 15.016C27.936 14.9947 27.952 15.0107 27.952 15.064V15.096C27.952 15.256 27.856 15.3947 27.664 15.512C27.4827 15.64 27.2747 15.736 27.04 15.8C26.816 15.864 26.6347 15.896 26.496 15.896C26.1333 15.896 25.9093 15.7787 25.824 15.544C25.7387 15.32 25.696 15.0533 25.696 14.744C25.696 14.3493 25.7387 13.9173 25.824 13.448C25.9093 12.9787 26.016 12.5147 26.144 12.056C26.2827 11.5867 26.416 11.16 26.544 10.776L25.872 11.416C25.6587 11.4373 25.4453 11.4533 25.232 11.464C25.0187 11.464 24.8053 11.464 24.592 11.464C24.4213 11.464 24.2507 11.464 24.08 11.464C23.92 11.464 23.7547 11.4587 23.584 11.448C23.0507 12.0453 22.5067 12.6427 21.952 13.24C21.3973 13.8373 20.7893 14.3653 20.128 14.824C19.6267 15.176 19.072 15.5173 18.464 15.848C17.8667 16.1787 17.248 16.4507 16.608 16.664C15.968 16.8773 15.328 16.984 14.688 16.984ZM25.376 10.904C25.5787 10.904 25.776 10.8987 25.968 10.888C26.16 10.8667 26.352 10.8293 26.544 10.776C26.8427 9.90133 27.1733 9.04267 27.536 8.2C27.9093 7.35733 28.2347 6.49867 28.512 5.624L24.096 10.856C24.3093 10.8667 24.5227 10.8773 24.736 10.888C24.9493 10.8987 25.1627 10.904 25.376 10.904Z" fill="#C1ACBD"/>
<path d="M49.536 15.848C48.3627 15.848 47.4187 15.5547 46.704 14.968C46 14.3813 45.648 13.4747 45.648 12.248C45.648 11.3093 45.8347 10.4187 46.208 9.576C46.5813 8.72267 47.0773 7.944 47.696 7.24C48.3253 6.536 49.0187 5.93333 49.776 5.432C49.36 5.37867 48.9387 5.32533 48.512 5.272C48.0853 5.21867 47.664 5.192 47.248 5.192C46.768 5.192 46.336 5.256 45.952 5.384C45.5787 5.512 45.2267 5.75733 44.896 6.12C44.8 6.22667 44.7253 6.32267 44.672 6.408C44.6187 6.49333 44.592 6.61067 44.592 6.76C44.592 7.00533 44.6347 7.18133 44.72 7.288C44.8053 7.39467 44.9067 7.464 45.024 7.496C45.1413 7.528 45.2533 7.54933 45.36 7.56C45.4667 7.57067 45.536 7.60267 45.568 7.656C45.5573 7.688 45.52 7.71467 45.456 7.736C45.392 7.74667 45.3387 7.752 45.296 7.752C45.136 7.752 44.9973 7.71467 44.88 7.64C44.7733 7.56533 44.6773 7.496 44.592 7.432C44.5173 7.35733 44.448 7.32 44.384 7.32C44.3627 7.32 44.3413 7.33067 44.32 7.352C44.3093 7.37333 44.288 7.384 44.256 7.384C44.1707 7.384 44.1227 7.32533 44.112 7.208C44.1013 7.08 44.096 6.99467 44.096 6.952C44.096 6.83467 44.144 6.70133 44.24 6.552C44.336 6.40267 44.4213 6.28533 44.496 6.2C44.9547 5.64533 45.4453 5.256 45.968 5.032C46.5013 4.808 47.12 4.696 47.824 4.696C48.2827 4.696 48.736 4.728 49.184 4.792C49.632 4.84533 50.08 4.90933 50.528 4.984C51.0507 4.696 51.6053 4.48267 52.192 4.344C52.7787 4.19467 53.3653 4.12 53.952 4.12C54.2933 4.12 54.6507 4.15733 55.024 4.232C55.3973 4.296 55.744 4.408 56.064 4.568C56.3947 4.728 56.6613 4.94667 56.864 5.224C57.0667 5.50133 57.168 5.848 57.168 6.264C57.168 6.59467 57.1093 6.92 56.992 7.24C56.992 7.28267 56.9813 7.32 56.96 7.352C56.9493 7.37333 56.9333 7.4 56.912 7.432C56.8373 7.57067 56.7627 7.69867 56.688 7.816C56.624 7.92267 56.496 7.976 56.304 7.976C56.1653 7.976 56.096 7.90133 56.096 7.752C56.096 7.69867 56.096 7.64533 56.096 7.592C56.1067 7.528 56.1173 7.47467 56.128 7.432C55.2747 6.96267 54.3467 6.57333 53.344 6.264C52.352 5.944 51.376 5.69867 50.416 5.528C49.9253 5.89067 49.4507 6.32267 48.992 6.824C48.5333 7.32533 48.1173 7.87467 47.744 8.472C47.3813 9.05867 47.0933 9.672 46.88 10.312C46.6667 10.952 46.56 11.5867 46.56 12.216C46.56 12.9307 46.72 13.528 47.04 14.008C47.36 14.488 47.792 14.8453 48.336 15.08C48.88 15.3147 49.4933 15.432 50.176 15.432C50.7627 15.432 51.3547 15.3413 51.952 15.16C52.56 14.9893 53.136 14.7493 53.68 14.44C54.224 14.12 54.6987 13.752 55.104 13.336C55.392 13.0373 55.6853 12.6853 55.984 12.28C56.2933 11.8747 56.528 11.4747 56.688 11.08C56.688 11.0693 56.6987 11.0373 56.72 10.984C56.752 10.9307 56.7733 10.904 56.784 10.904C56.8053 10.904 56.816 10.936 56.816 11C56.8267 11.064 56.832 11.1013 56.832 11.112C56.832 11.1653 56.8267 11.288 56.816 11.48C56.816 11.6613 56.8053 11.7787 56.784 11.832C56.6347 12.3013 56.3467 12.7493 55.92 13.176C55.504 13.592 55.0187 13.9707 54.464 14.312C53.92 14.6533 53.36 14.9413 52.784 15.176C52.2187 15.4107 51.7067 15.576 51.248 15.672C50.9707 15.7253 50.688 15.768 50.4 15.8C50.112 15.832 49.824 15.848 49.536 15.848ZM56.256 6.728C56.2667 6.664 56.272 6.6 56.272 6.536C56.2827 6.472 56.288 6.40267 56.288 6.328C56.288 5.848 56.1547 5.47467 55.888 5.208C55.6213 4.93067 55.2907 4.73867 54.896 4.632C54.5013 4.51467 54.1013 4.456 53.696 4.456C53.2693 4.456 52.8267 4.50933 52.368 4.616C51.9093 4.712 51.488 4.86667 51.104 5.08C51.9893 5.25067 52.864 5.47467 53.728 5.752C54.592 6.02933 55.4347 6.35467 56.256 6.728Z" fill="#8A84B4"/>
<path d="M36.624 15.752C36.1227 15.752 35.632 15.72 35.152 15.656C35.1307 15.656 35.12 15.6453 35.12 15.624C35.12 15.5707 35.168 15.4853 35.264 15.368C35.3707 15.2507 35.4827 15.1387 35.6 15.032C35.728 14.936 35.8187 14.888 35.872 14.888C35.9573 14.888 36.048 14.8987 36.144 14.92C36.2507 14.9307 36.352 14.9413 36.448 14.952C36.6613 14.9733 36.88 14.9893 37.104 15C37.328 15.0213 37.552 15.032 37.776 15.032C38.1493 15.032 38.5333 15 38.928 14.936C39.3333 14.8613 39.6853 14.7067 39.984 14.472C40.24 14.2587 40.496 13.9973 40.752 13.688C41.0187 13.3787 41.152 13.048 41.152 12.696C41.152 12.3333 41.0187 12.0293 40.752 11.784C40.496 11.5387 40.1707 11.3467 39.776 11.208C39.3813 11.0587 38.9867 10.9573 38.592 10.904C38.1973 10.84 37.8613 10.808 37.584 10.808C37.4133 10.808 37.248 10.8187 37.088 10.84C36.928 10.8613 36.7627 10.8827 36.592 10.904H36.56C36.5173 10.904 36.496 10.8827 36.496 10.84C36.496 10.7867 36.528 10.712 36.592 10.616C36.6667 10.5093 36.7467 10.4133 36.832 10.328C36.928 10.2427 36.9973 10.2 37.04 10.2C37.4453 10.2 37.872 10.152 38.32 10.056C38.7787 9.96 39.2267 9.82667 39.664 9.656C40.1013 9.48533 40.4853 9.29333 40.816 9.08C41.072 8.92 41.3653 8.712 41.696 8.456C42.0373 8.2 42.3307 7.91733 42.576 7.608C42.8213 7.288 42.944 6.95733 42.944 6.616C42.944 6.264 42.8107 5.96533 42.544 5.72C42.288 5.464 41.968 5.25067 41.584 5.08C41.2 4.90933 40.8107 4.776 40.416 4.68C40.032 4.57333 39.7067 4.49867 39.44 4.456C39.0773 4.40267 38.7147 4.36533 38.352 4.344C38 4.312 37.6373 4.296 37.264 4.296C36.8267 4.296 36.336 4.328 35.792 4.392C35.248 4.44533 34.6933 4.54133 34.128 4.68C33.5733 4.808 33.0453 4.98933 32.544 5.224C32.0427 5.45867 31.6107 5.75733 31.248 6.12C30.8853 6.472 30.64 6.89867 30.512 7.4C30.48 7.53867 30.464 7.68267 30.464 7.832C30.464 8.09867 30.5173 8.34933 30.624 8.584C30.7307 8.808 30.9173 8.968 31.184 9.064H31.232C31.3173 9.064 31.3973 9.05867 31.472 9.048C31.5573 9.02667 31.6373 9.016 31.712 9.016C31.7227 9.016 31.744 9.02133 31.776 9.032C31.808 9.032 31.824 9.04267 31.824 9.064C31.824 9.13867 31.7653 9.19733 31.648 9.24C31.5307 9.272 31.4453 9.288 31.392 9.288C31.2107 9.288 31.056 9.24533 30.928 9.16C30.8 9.07467 30.6987 9.032 30.624 9.032C30.6133 9.032 30.6027 9.03733 30.592 9.048C30.5813 9.048 30.576 9.048 30.576 9.048C30.5547 9.06933 30.5387 9.096 30.528 9.128C30.5173 9.16 30.4907 9.176 30.448 9.176C30.384 9.176 30.3253 9.12267 30.272 9.016C30.2187 8.89867 30.176 8.77067 30.144 8.632C30.112 8.49333 30.096 8.39733 30.096 8.344C30.096 8.12 30.1227 7.88533 30.176 7.64C30.3147 7.032 30.576 6.504 30.96 6.056C31.3547 5.59733 31.8293 5.208 32.384 4.888C32.9387 4.568 33.5307 4.312 34.16 4.12C34.7893 3.928 35.4187 3.78933 36.048 3.704C36.688 3.608 37.28 3.56 37.824 3.56C38.6027 3.56 39.3653 3.64 40.112 3.8C40.432 3.864 40.7893 3.96533 41.184 4.104C41.5787 4.24267 41.9573 4.41867 42.32 4.632C42.6827 4.84533 42.9813 5.10667 43.216 5.416C43.4613 5.71467 43.584 6.06133 43.584 6.456C43.584 6.872 43.4507 7.26133 43.184 7.624C42.9173 7.976 42.5973 8.29067 42.224 8.568C41.8613 8.84533 41.52 9.08 41.2 9.272C41.0933 9.336 40.9387 9.42667 40.736 9.544C40.544 9.65067 40.3307 9.768 40.096 9.896C39.8613 10.0133 39.6427 10.1147 39.44 10.2C39.248 10.2747 39.0987 10.312 38.992 10.312C39.3013 10.3227 39.6267 10.3653 39.968 10.44C40.32 10.5147 40.6453 10.632 40.944 10.792C41.2533 10.952 41.504 11.1653 41.696 11.432C41.888 11.688 41.984 12.008 41.984 12.392C41.984 12.744 41.888 13.0693 41.696 13.368C41.5147 13.656 41.2853 13.9067 41.008 14.12C40.3147 14.6427 39.632 15.0427 38.96 15.32C38.288 15.608 37.5093 15.752 36.624 15.752ZM30.144 17.128C30.0267 17.128 29.888 17.1227 29.728 17.112C29.568 17.1013 29.44 17.0693 29.344 17.016C29.3013 16.984 29.2213 16.9307 29.104 16.856C28.9867 16.792 28.928 16.728 28.928 16.664C28.928 16.5893 28.96 16.552 29.024 16.552C29.0773 16.5627 29.104 16.5253 29.104 16.44C29.104 16.3547 29.088 16.2693 29.056 16.184C29.024 16.0987 29.008 16.0133 29.008 15.928C29.008 15.832 29.0347 15.6987 29.088 15.528C29.1413 15.368 29.2267 15.288 29.344 15.288C29.376 15.288 29.392 15.304 29.392 15.336C29.392 15.4427 29.3653 15.544 29.312 15.64C29.248 15.736 29.216 15.832 29.216 15.928C29.216 16.0773 29.28 16.2213 29.408 16.36C29.5253 16.4987 29.6747 16.6107 29.856 16.696C30.0267 16.792 30.1813 16.84 30.32 16.84C30.3733 16.84 30.432 16.84 30.496 16.84C30.56 16.84 30.6187 16.8347 30.672 16.824C31.216 16.7493 31.728 16.4827 32.208 16.024C32.688 15.576 33.1307 15.0053 33.536 14.312C33.952 13.608 34.3307 12.8507 34.672 12.04C35.024 11.2187 35.3387 10.4027 35.616 9.592C35.904 8.78133 36.1547 8.02933 36.368 7.336C36.5813 6.64267 36.7573 6.08267 36.896 5.656C36.9493 5.48533 37.008 5.352 37.072 5.256C37.136 5.14933 37.2373 5.04267 37.376 4.936C37.568 4.78667 37.792 4.68 38.048 4.616C38.304 4.54133 38.5493 4.504 38.784 4.504C38.8053 4.504 38.8373 4.50933 38.88 4.52C38.9333 4.53067 38.96 4.552 38.96 4.584C38.96 4.62667 38.9227 4.65867 38.848 4.68C38.7733 4.69067 38.7253 4.696 38.704 4.696C38.5547 4.696 38.3947 4.81867 38.224 5.064C38.0533 5.30933 37.8827 5.61867 37.712 5.992C37.5413 6.36533 37.3813 6.75467 37.232 7.16C37.0827 7.55467 36.9547 7.912 36.848 8.232C36.7413 8.552 36.6667 8.77067 36.624 8.888C36.4853 9.28267 36.3467 9.67733 36.208 10.072C36.0693 10.456 35.9253 10.84 35.776 11.224C35.616 11.672 35.4453 12.12 35.264 12.568C35.0827 13.0053 34.8747 13.432 34.64 13.848C34.3093 14.4453 33.9573 14.9893 33.584 15.48C33.2213 15.9813 32.784 16.376 32.272 16.664C31.7707 16.9627 31.136 17.1173 30.368 17.128H30.144Z" fill="#47426A"/>
</svg>
