<svg width="30" height="30" viewBox="0 0 30 30" fill="none" xmlns="http://www.w3.org/2000/svg">
<path d="M15 29.9265C23.2843 29.9265 30 23.2273 30 14.9633C30 6.69928 23.2843 0 15 0C6.71573 0 0 6.69928 0 14.9633C0 23.2273 6.71573 29.9265 15 29.9265Z" fill="#C1ACBD"/>
<path fill-rule="evenodd" clip-rule="evenodd" d="M6.79907 14.8C11.1682 12.8888 14.0888 11.6535 15.5374 11.0475C19.6963 9.32277 20.5608 9.01978 21.1215 9.01978C21.2383 9.01978 21.5187 9.04308 21.7056 9.18293C21.8458 9.29946 21.8925 9.46261 21.9159 9.57915C21.9393 9.69569 21.9626 9.95207 21.9393 10.1618C21.7056 12.5159 20.7477 18.2728 20.2337 20.9065C20.0234 22.0252 19.6028 22.3982 19.2056 22.4448C18.3411 22.5147 17.6636 21.8621 16.8224 21.326C15.514 20.4636 14.7664 19.9276 13.4813 19.0885C12.0094 18.1096 12.9673 17.5735 13.8084 16.7112C14.0187 16.4781 17.8738 13.0053 17.9439 12.679C17.9439 12.6324 17.9673 12.4926 17.8738 12.4226C17.7804 12.3527 17.6636 12.376 17.5701 12.3993C17.4299 12.4226 15.3271 13.8211 11.2383 16.5713C10.6309 16.9909 10.0935 17.1773 9.60281 17.1773C9.06543 17.1773 8.03739 16.8743 7.26636 16.6179C6.33179 16.315 5.58412 16.1518 5.65422 15.639C5.72431 15.3594 6.09814 15.0797 6.79907 14.8Z" fill="#47426A"/>
</svg>
