<svg width="36" height="34" viewBox="0 0 36 34" fill="none" xmlns="http://www.w3.org/2000/svg">
<path d="M17.9998 33.9562C27.3993 33.9562 35.0191 26.3551 35.0191 16.9786C35.0191 7.60211 27.3993 0.000976562 17.9998 0.000976562C8.60026 0.000976562 0.980469 7.60211 0.980469 16.9786C0.980469 26.3551 8.60026 33.9562 17.9998 33.9562Z" fill="#C1ACBD"/>
<path fill-rule="evenodd" clip-rule="evenodd" d="M8.69453 16.7933C13.6519 14.6248 16.9656 13.2233 18.6092 12.5357C23.3279 10.5788 24.3088 10.235 24.945 10.235C25.0776 10.235 25.3957 10.2614 25.6078 10.4201C25.7668 10.5523 25.8199 10.7374 25.8464 10.8697C25.8729 11.0019 25.8994 11.2928 25.8729 11.5308C25.6078 14.2017 24.5209 20.7336 23.9377 23.7219C23.6991 24.9912 23.2219 25.4143 22.7712 25.4672C21.7904 25.5466 21.0216 24.8061 20.0672 24.1979C18.5827 23.2194 17.7344 22.6112 16.2763 21.6592C14.6062 20.5485 15.6931 19.9403 16.6475 18.9618C16.8861 18.6973 21.2602 14.7571 21.3397 14.3868C21.3397 14.3339 21.3662 14.1753 21.2602 14.0959C21.1541 14.0166 21.0216 14.043 20.9155 14.0695C20.7565 14.0959 18.3706 15.6826 13.7314 18.8031C13.0421 19.2791 12.4324 19.4907 11.8757 19.4907C11.266 19.4907 10.0996 19.1469 9.22473 18.856C8.16434 18.5122 7.31602 18.3271 7.39555 17.7453C7.47508 17.428 7.89924 17.1107 8.69453 16.7933Z" fill="#FDF6EC"/>
</svg>
