<svg width="30" height="30" viewBox="0 0 30 30" fill="none" xmlns="http://www.w3.org/2000/svg">
<g clip-path="url(#clip0_9_79)">
<path d="M0 14.375C0 7.59856 0 4.21034 2.10517 2.10517C4.21034 0 7.59856 0 14.375 0H15.625C22.4014 0 25.7897 0 27.8948 2.10517C30 4.21034 30 7.59856 30 14.375V15.625C30 22.4014 30 25.7897 27.8948 27.8948C25.7897 30 22.4014 30 15.625 30H14.375C7.59856 30 4.21034 30 2.10517 27.8948C0 25.7897 0 22.4014 0 15.625L0 14.375Z" fill="#C1ACBD"/>
<path fill-rule="evenodd" clip-rule="evenodd" d="M8.12557 9.375H5.93757C5.31242 9.375 5.18738 9.66925 5.18738 9.99363C5.18738 10.5731 5.92917 13.4467 8.64125 17.2474C10.4493 19.843 12.9967 21.25 15.3148 21.25C16.7056 21.25 16.8776 20.9375 16.8776 20.3993V18.4375C16.8776 17.8125 17.0094 17.6877 17.4498 17.6877C17.7743 17.6877 18.3306 17.85 19.6288 19.1014C21.1123 20.5846 21.3569 21.25 22.1913 21.25H24.3793C25.0045 21.25 25.3171 20.9375 25.1368 20.3208C24.9394 19.7062 24.2311 18.8144 23.2913 17.7573C22.7813 17.1547 22.0163 16.5059 21.7845 16.1814C21.46 15.7642 21.5527 15.5788 21.7845 15.2081C21.7845 15.2081 24.4503 11.4537 24.7284 10.1791C24.8675 9.71556 24.7284 9.375 24.0668 9.375H21.8788C21.3224 9.375 21.0659 9.66925 20.9268 9.99363C20.9268 9.99363 19.8142 12.7051 18.2379 14.4664C17.7279 14.9762 17.4961 15.1385 17.2179 15.1385C17.0789 15.1385 16.8776 14.9763 16.8776 14.5128V10.1791C16.8776 9.62288 16.7161 9.375 16.2524 9.375H12.8141C12.4665 9.375 12.2574 9.63312 12.2574 9.87781C12.2574 10.4051 13.0455 10.5267 13.1268 12.0099V15.2313C13.1268 15.9375 12.9991 16.0656 12.721 16.0656C11.9793 16.0656 10.1749 13.3419 9.10482 10.2254C8.89513 9.61969 8.68475 9.375 8.12557 9.375Z" fill="#47426A"/>
</g>
<defs>
<clipPath id="clip0_9_79">
<rect width="30" height="30" fill="white"/>
</clipPath>
</defs>
</svg>
