<svg width="35" height="35" viewBox="0 0 35 35" fill="none" xmlns="http://www.w3.org/2000/svg">
<g clip-path="url(#clip0_17_64)">
<path d="M0 16.3111C0 8.62245 0 4.77811 2.38857 2.38954C4.77713 0.000976562 8.62148 0.000976562 16.3102 0.000976562H17.7284C25.4171 0.000976562 29.2615 0.000976562 31.65 2.38954C34.0386 4.77811 34.0386 8.62245 34.0386 16.3111V17.7294C34.0386 25.4181 34.0386 29.2625 31.65 31.651C29.2615 34.0396 25.4171 34.0396 17.7284 34.0396H16.3102C8.62148 34.0396 4.77713 34.0396 2.38857 31.651C0 29.2625 0 25.4181 0 17.7294L0 16.3111Z" fill="#C1ACBD"/>
<path fill-rule="evenodd" clip-rule="evenodd" d="M9.21947 10.6378H6.73692C6.02761 10.6378 5.88574 10.9717 5.88574 11.3397C5.88574 11.9972 6.72739 15.2577 9.80458 19.57C11.856 22.515 14.7463 24.1114 17.3765 24.1114C18.9545 24.1114 19.1497 23.7569 19.1497 23.1461V20.9203C19.1497 20.2112 19.2992 20.0696 19.7989 20.0696C20.1671 20.0696 20.7983 20.2537 22.2712 21.6736C23.9545 23.3565 24.232 24.1114 25.1787 24.1114H27.6613C28.3706 24.1114 28.7253 23.7569 28.5207 23.0571C28.2968 22.3598 27.4931 21.3479 26.4267 20.1486C25.8481 19.4649 24.9802 18.7286 24.7172 18.3605C24.349 17.8872 24.4541 17.6768 24.7172 17.2561C24.7172 17.2561 27.7418 12.9963 28.0574 11.5502C28.2152 11.0242 28.0574 10.6378 27.3066 10.6378H24.8241C24.1929 10.6378 23.9019 10.9717 23.744 11.3397C23.744 11.3397 22.4816 14.4162 20.6932 16.4147C20.1145 16.9931 19.8515 17.1772 19.5359 17.1772C19.3781 17.1772 19.1497 16.9931 19.1497 16.4673V11.5502C19.1497 10.9191 18.9665 10.6378 18.4404 10.6378H14.5392C14.1448 10.6378 13.9075 10.9307 13.9075 11.2083C13.9075 11.8065 14.8017 11.9445 14.8939 13.6274V17.2824C14.8939 18.0838 14.7491 18.2291 14.4335 18.2291C13.5919 18.2291 11.5447 15.1388 10.3305 11.6027C10.0926 10.9154 9.85393 10.6378 9.21947 10.6378Z" fill="#FDF6EC"/>
</g>
<defs>
<clipPath id="clip0_17_64">
<rect width="34.0386" height="34.0386" fill="white" transform="translate(0 0.000976562)"/>
</clipPath>
</defs>
</svg>
