<svg width="25" height="20" viewBox="0 0 25 20" fill="none" xmlns="http://www.w3.org/2000/svg">
<path d="M21.1139 0.63764C21.546 0.224133 22.1208 -0.0044712 22.7173 6.62771e-05C23.3138 0.00460376 23.8852 0.241928 24.3109 0.661961C24.7366 1.08199 24.9834 1.65188 24.9992 2.25137C25.015 2.85086 24.7985 3.43307 24.3954 3.87513L12.1589 19.2609C11.9485 19.4888 11.6946 19.6716 11.4123 19.7985C11.1299 19.9255 10.8251 19.9938 10.5159 19.9996C10.2067 20.0054 9.89953 19.9484 9.61274 19.832C9.32595 19.7157 9.06544 19.5424 8.84679 19.3226L0.732068 11.1641C0.506086 10.9524 0.324832 10.6971 0.199119 10.4134C0.0734051 10.1298 0.00580698 9.82355 0.000357955 9.51306C-0.00509107 9.20256 0.0517208 8.89413 0.167403 8.60619C0.283086 8.31824 0.455269 8.05667 0.673682 7.83708C0.892095 7.61749 1.15226 7.44438 1.43866 7.32807C1.72507 7.21177 2.03183 7.15465 2.34067 7.16013C2.6495 7.16561 2.95408 7.23357 3.23622 7.35996C3.51836 7.48635 3.77229 7.66858 3.98286 7.89578L10.4047 14.3492L21.0557 0.705474L21.1139 0.63764Z" fill="#47426A"/>
</svg>
