<svg width="11" height="9" viewBox="0 0 11 9" fill="none" xmlns="http://www.w3.org/2000/svg">
<path d="M9.29013 0.286938C9.48022 0.10086 9.73317 -0.00201204 9.99562 2.98247e-05C10.2581 0.00207169 10.5095 0.108868 10.6968 0.297882C10.8841 0.486897 10.9927 0.743346 10.9996 1.01312C11.0066 1.28289 10.9113 1.54488 10.734 1.74381L5.34993 8.66741C5.25735 8.76994 5.14561 8.85223 5.02139 8.90934C4.89718 8.96646 4.76304 8.99723 4.62699 8.99982C4.49095 9.00241 4.35579 8.97677 4.22961 8.92442C4.10342 8.87207 3.9888 8.7941 3.89259 8.69516L0.32211 5.02385C0.222678 4.92858 0.142926 4.81369 0.0876123 4.68605C0.0322983 4.5584 0.00255507 4.4206 0.0001575 4.28087C-0.00224007 4.14115 0.0227572 4.00236 0.0736574 3.87278C0.124558 3.74321 0.200318 3.6255 0.29642 3.52669C0.392522 3.42787 0.506995 3.34997 0.633012 3.29763C0.759029 3.2453 0.894007 3.21959 1.02989 3.22206C1.16578 3.22452 1.29979 3.25511 1.42394 3.31198C1.54808 3.36886 1.65981 3.45086 1.75246 3.5531L4.57808 6.45713L9.2645 0.317463L9.29013 0.286938Z" fill="#47426A"/>
</svg>
